<svg xmlns="http://www.w3.org/2000/svg" width="150" height="56" viewBox="0 0 150 56" fill="none"><g clip-path="url(#clip0_130_246)"><path d="M69.135 35.6895V34.1868H59.3546V27.0223H69.135V25.5197H59.3546V18.6388H69.135V17.1132H57L57.6172 18.8842V35.6933H69.135V35.6895ZM87.3774 35.6895V34.1408C86.9393 34.2942 86.4554 34.4513 85.9258 34.4513C85.2209 34.4513 84.9161 34.0527 84.9161 33.4125V21.2263H83.2245V33.8112C82.2148 34.2098 81.0489 34.4513 79.7726 34.4513C77.0027 34.4513 75.7073 33.2783 75.7073 30.7368V21.2263H74.0156V30.7368C74.0156 34.1868 76.0807 36 79.7764 36C81.2052 36 82.5882 35.6895 83.7541 35.2027C84.1503 35.7317 84.8514 36 85.4686 36C86.1734 36 86.8516 35.8467 87.3812 35.6895H87.3774ZM95.2451 35.6895V35.0033L92.9362 34.229V13H91.2446V35.6895H95.2451ZM110.523 28.479C110.523 23.5915 107.974 20.9158 104.062 20.9158C100.149 20.9158 97.5121 23.5915 97.5121 28.479C97.5121 33.3665 100.457 36 105.075 36C106.37 36 108.218 35.6895 109.384 35.2908V33.7422C108.218 34.1408 106.374 34.4513 105.075 34.4513C101.669 34.4513 99.4476 32.8145 99.2495 28.9658H110.527V28.479H110.523ZM108.832 27.4862H99.2914C99.6 24.2125 101.402 22.4645 104.062 22.4645C106.546 22.4645 108.523 24.2125 108.832 27.4862ZM128 35.6895V35.0033L125.714 34.229V26.179C125.714 22.752 123.668 20.9158 119.976 20.9158C118.395 20.9158 116.284 21.3567 114.699 21.8013L114.28 21.9125L114.829 23.6145V35.6895H116.52V22.9743C117.663 22.6638 118.829 22.4645 119.972 22.4645C122.742 22.4645 124.019 23.6605 124.019 26.179V35.6895H127.996H128Z" fill="white"></path><path d="M47.8818 34.0766V0.716857H47.4109V0.79571C47.4109 6.35485 44.997 11.5838 40.6054 15.5215C38.2757 17.6161 35.5347 19.203 32.5507 20.2478C32.0352 20.3808 31.5247 20.5385 31.0389 20.7258C28.7638 21.3566 26.4094 21.677 24.045 21.677C17.7996 21.677 11.906 19.4937 7.45489 15.5363C2.99881 11.5789 0.490714 6.3105 0.386623 0.697144L0 0.721785V35.9198C0.401494 42.5139 5.94805 47.7527 12.6793 47.7527C13.745 47.7527 14.7859 47.6196 15.7772 47.3683C15.8664 47.3437 23.9607 55.5 23.9607 55.5L32.1443 47.3634C32.1443 47.3634 34.0724 47.7527 35.2422 47.7527C42.2312 47.7527 47.8818 42.0999 47.8818 35.151C47.8818 34.7863 47.9116 34.4265 47.8818 34.0766ZM12.6743 44.9928C7.22193 44.9928 2.78567 40.582 2.78567 35.1609C2.78567 34.4807 2.85507 33.8204 2.9889 33.1797C3.91085 28.6998 7.901 25.3239 12.6743 25.3239C18.1267 25.3239 22.558 29.7298 22.563 35.151C22.563 35.836 22.4936 36.4964 22.3597 37.1371C21.4378 41.612 17.4427 44.9928 12.6743 44.9928ZM23.9558 51.582L18.6224 46.2791C20.9124 45.0618 22.7711 43.1842 23.9607 40.8876C25.1454 43.1842 27.0042 45.0618 29.2942 46.2791C27.9112 47.6541 25.0512 50.5027 23.9607 51.5869L23.9558 51.582ZM35.2373 44.9928C29.7849 44.9928 25.3486 40.582 25.3486 35.1609C25.3486 34.4019 25.4378 33.6626 25.6014 32.953C26.3102 29.8826 28.4714 27.3544 31.3264 26.1223C31.7577 25.9843 32.179 25.8365 32.6003 25.6788C33.4578 25.4422 34.3451 25.319 35.2373 25.319C40.3575 25.319 44.5757 29.2074 45.0763 34.1653C45.0763 34.7666 45.1259 35.1313 45.1259 35.1461C45.1259 35.8262 45.0565 36.4915 44.9227 37.1322C44.0007 41.6071 40.0056 44.9879 35.2373 44.9879V44.9928Z" fill="white"></path><path d="M58.5219 40.9334C58.5027 40.9334 58.4109 40.9334 58.2501 40.9182C58.3228 40.7013 58.4032 40.4996 58.4836 40.3093C58.5142 40.2407 58.5755 40.0961 58.675 39.8754C58.675 39.9934 58.652 40.3435 58.6214 40.922C58.5908 40.922 58.5563 40.9296 58.5219 40.9334ZM59.0119 39.1294C58.9774 39.1142 58.9276 39.1104 58.8587 39.1256C58.7439 39.1446 58.6673 39.1789 58.6291 39.2322C58.5946 39.2778 58.5066 39.4605 58.3649 39.7764C58.3381 39.8335 58.296 39.9325 58.231 40.0771C58.1735 40.2065 58.1314 40.3055 58.097 40.3816C58.0204 40.5528 57.9477 40.7355 57.8826 40.9258C57.718 40.9449 57.5764 40.9905 57.4577 41.0628C57.4271 41.0819 57.4118 41.1009 57.4156 41.1199C57.4156 41.1199 57.4424 41.1466 57.4769 41.1466C57.5687 41.1466 57.6606 41.1275 57.7486 41.0781C57.7754 41.0781 57.7908 41.0743 57.7984 41.0743H57.829C57.7716 41.2493 57.7142 41.4396 57.6568 41.6452C57.6453 41.6908 57.6989 41.706 57.8175 41.6832C57.8711 41.6756 57.9209 41.6566 57.9668 41.6337C58.0166 41.6109 58.0434 41.5919 58.0472 41.5728C58.097 41.4016 58.1429 41.2417 58.1927 41.0933C58.2463 41.0933 58.2884 41.0933 58.3267 41.0933C58.453 41.0781 58.5487 41.0781 58.6138 41.0933C58.5946 41.4663 58.5831 41.786 58.5831 42.0486C58.5831 42.0486 58.6023 42.0714 58.6444 42.0714C58.6827 42.0714 58.7286 42.0714 58.7784 42.0562C58.9123 42.0296 58.9774 41.9915 58.9774 41.9382C58.9774 41.6299 58.9965 41.1656 59.031 40.549C59.0654 39.9325 59.0846 39.4681 59.0846 39.156C59.0846 39.156 59.0578 39.1332 59.008 39.1332L59.0119 39.1294ZM62.4838 39.2246C62.4072 39.1104 62.2617 39.0799 62.0474 39.1332C61.8751 39.1751 61.7297 39.2588 61.6148 39.3844C61.4311 39.5861 61.3009 39.8754 61.2244 40.2598C61.1708 40.5224 61.1363 40.8155 61.1172 41.139C61.1172 41.3749 61.1287 41.5348 61.1517 41.6223C61.2014 41.7974 61.3239 41.8887 61.5191 41.9002C61.6301 41.904 61.7411 41.8849 61.8445 41.8393C61.9517 41.7898 62.0359 41.7213 62.1048 41.6337C62.1737 41.5462 62.2388 41.4016 62.2962 41.1999C62.3115 41.1542 62.2579 41.1428 62.1392 41.1656C62.0857 41.1732 62.0359 41.1884 61.99 41.2113C61.9402 41.2341 61.9134 41.2531 61.9096 41.2722C61.8636 41.4244 61.8177 41.5424 61.7679 41.6299C61.745 41.6642 61.722 41.6984 61.699 41.7251C61.5957 41.6794 61.5344 41.5766 61.5115 41.4092C61.5076 41.3673 61.5038 41.2341 61.5115 41.0172C61.5268 40.6975 61.5651 40.4044 61.6225 40.1342C61.7067 39.746 61.8407 39.4643 62.0244 39.2969C62.0244 39.2969 62.0321 39.2931 62.0397 39.2854C62.1048 39.3311 62.1469 39.4187 62.1622 39.5519C62.1775 39.6622 62.1622 39.7993 62.1278 39.9667C62.0665 40.2293 62.0359 40.3663 62.0359 40.374C62.0321 40.3968 62.0627 40.4044 62.1316 40.3968C62.1775 40.3968 62.2158 40.3854 62.2464 40.3778C62.3613 40.3473 62.4225 40.3093 62.4302 40.2674C62.4378 40.2065 62.457 40.1152 62.4838 39.9972C62.5144 39.8754 62.5335 39.7878 62.545 39.7269C62.5795 39.5062 62.5603 39.3387 62.4838 39.2284V39.2246ZM65.7451 39.1637C65.6877 39.1713 65.638 39.1865 65.592 39.2093C65.5423 39.2322 65.5155 39.2512 65.5116 39.2702C65.4772 39.4225 65.4198 39.6508 65.3356 39.9553C65.2552 40.2598 65.1977 40.4881 65.1633 40.6404C65.0446 40.6556 64.926 40.6746 64.8035 40.7013C64.8379 40.5224 64.8953 40.2788 64.9681 39.9705C65.0523 39.6242 65.1097 39.3806 65.1365 39.2398C65.148 39.1941 65.0944 39.1827 64.9796 39.2055C64.926 39.2131 64.8762 39.2284 64.8303 39.2512C64.7805 39.274 64.7537 39.2931 64.7499 39.3121C64.7193 39.4491 64.6618 39.6965 64.5738 40.0619C64.4972 40.3778 64.4398 40.629 64.4054 40.8154C64.3786 40.8231 64.3633 40.8307 64.3594 40.8307C64.3288 40.8383 64.302 40.8535 64.2714 40.8725C64.2255 40.903 64.214 40.922 64.2408 40.941C64.2714 40.9601 64.3173 40.9601 64.3786 40.9487C64.3212 41.2531 64.279 41.5348 64.2561 41.7936C64.2561 41.7936 64.2752 41.8126 64.3173 41.8164C64.3556 41.8164 64.3977 41.8164 64.4513 41.805C64.5815 41.7784 64.6504 41.7403 64.6542 41.6908C64.6772 41.4358 64.7154 41.1504 64.7767 40.8421C64.8111 40.8345 64.8609 40.8269 64.926 40.8116C64.9949 40.8002 65.0638 40.7926 65.1288 40.7888C65.0446 41.1656 64.9949 41.5081 64.9796 41.8088C64.9796 41.8088 64.9987 41.8278 65.0408 41.8316C65.0791 41.8316 65.125 41.8316 65.1748 41.8202C65.3049 41.7936 65.3738 41.7555 65.3738 41.706C65.3891 41.4244 65.4312 41.1123 65.5078 40.7698C65.5691 40.7584 65.6226 40.7355 65.6686 40.7089C65.6992 40.6899 65.7145 40.6708 65.7107 40.6556C65.7107 40.6556 65.6839 40.629 65.6494 40.6252C65.6188 40.6252 65.5844 40.6252 65.5423 40.6252C65.5805 40.4615 65.6418 40.2255 65.7222 39.9172C65.8102 39.5975 65.8715 39.3616 65.9059 39.2093C65.9136 39.1637 65.8638 39.1522 65.749 39.1751L65.7451 39.1637ZM68.0419 39.491C67.9959 39.6851 67.9194 40.0695 67.8084 40.6366C67.7663 40.8573 67.728 41.0514 67.6935 41.2113C67.6246 41.5424 67.5864 41.7213 67.5864 41.7441C67.5864 41.7441 67.6055 41.7669 67.6476 41.7669C67.6859 41.7669 67.7318 41.7669 67.7816 41.7555C67.9117 41.7289 67.9806 41.6908 67.9806 41.6375C67.9806 41.5843 67.9959 41.5043 68.0266 41.394C68.0381 41.3407 68.061 41.2455 68.0878 41.1123C68.1184 40.9677 68.1567 40.7774 68.2027 40.5414C68.3098 39.9896 68.3864 39.6166 68.4285 39.4225C68.44 39.3768 68.3864 39.3654 68.2677 39.3844C68.2141 39.3958 68.1644 39.411 68.1184 39.4339C68.0687 39.4567 68.0419 39.4757 68.0381 39.4948L68.0419 39.491ZM71.5023 39.1941C71.376 39.1522 71.2037 39.1675 70.9932 39.236C70.7176 39.3235 70.53 39.5214 70.4305 39.8259C70.3692 40.0162 70.3539 40.2255 70.3846 40.4539C70.3999 40.5719 70.4343 40.6632 70.4803 40.7355C70.4037 40.7736 70.3425 40.8231 70.2889 40.8802C70.109 41.0781 70.0286 41.2836 70.0477 41.5005C70.0592 41.6223 70.1089 41.7213 70.197 41.7974C70.2659 41.8583 70.3769 41.8849 70.5262 41.8811C70.6755 41.8773 70.8133 41.8355 70.9434 41.7555C71.0774 41.6718 71.1731 41.5652 71.2267 41.4358C71.2382 41.4092 71.219 41.394 71.1655 41.394C71.1348 41.394 71.1042 41.394 71.0698 41.4016C70.9358 41.4244 70.8592 41.4587 70.8401 41.5081C70.8056 41.5957 70.7559 41.6642 70.6908 41.7175C70.6908 41.7175 70.6831 41.7175 70.6831 41.7213H70.6678C70.6678 41.7213 70.641 41.7137 70.6257 41.706C70.5951 41.6946 70.5645 41.6718 70.5377 41.6452C70.4879 41.5919 70.4535 41.5119 70.442 41.4054C70.4267 41.2607 70.4726 41.1047 70.5874 40.9296C70.6028 40.9068 70.6181 40.8878 70.6372 40.8649C70.6755 40.8802 70.7176 40.8878 70.7712 40.8916C70.8439 40.8916 70.9243 40.8763 71.0123 40.8345C71.0889 40.8002 71.1119 40.7698 71.0851 40.7469C71.0315 40.6975 70.9702 40.667 70.8937 40.6556C70.8937 40.6556 70.8784 40.6404 70.8707 40.6328C70.8362 40.5795 70.8056 40.5034 70.7865 40.4006C70.752 40.2217 70.752 40.0504 70.7865 39.8944C70.8363 39.6622 70.9281 39.4872 71.0659 39.3692C71.0659 39.3692 71.0889 39.354 71.108 39.3387C71.131 39.3387 71.1425 39.3387 71.1387 39.3387C71.242 39.354 71.2841 39.4149 71.2611 39.5252C71.2535 39.5671 71.3071 39.5785 71.4181 39.5595C71.4755 39.5481 71.5253 39.5328 71.5712 39.5138C71.621 39.491 71.6478 39.4719 71.6516 39.4529C71.6746 39.3235 71.6248 39.2398 71.5023 39.2017V39.1941ZM74.6756 39.3844C74.668 39.3425 74.5991 39.3387 74.4651 39.3692C74.335 39.4034 74.2737 39.4415 74.2814 39.4872C74.3005 39.5785 74.2928 39.6889 74.2622 39.8107C74.2546 39.8525 74.2393 39.9058 74.2163 39.9705C74.1895 40.0504 74.1742 40.1037 74.1665 40.1304C74.1015 40.3663 74.044 40.549 74.0019 40.6822C73.9407 40.8649 73.8833 41.0172 73.8297 41.1352C73.8297 40.0847 73.8297 39.5024 73.8297 39.3958C73.8297 39.3958 73.8105 39.3692 73.7684 39.3692C73.7301 39.3692 73.6842 39.3692 73.6306 39.3844C73.5005 39.4149 73.4354 39.4529 73.4354 39.5062C73.4431 39.7726 73.4469 40.138 73.4392 40.6061C73.4316 41.1275 73.4316 41.4929 73.4354 41.7022C73.4354 41.7327 73.489 41.7403 73.5962 41.7213C73.6957 41.7022 73.7684 41.6756 73.8105 41.6337C74.0326 41.4358 74.2278 41.1009 74.3885 40.6328C74.4307 40.5072 74.4881 40.3169 74.557 40.0619C74.6527 39.7117 74.6948 39.4834 74.6718 39.3844H74.6756ZM77.6691 39.1941C77.5427 39.1522 77.3705 39.1675 77.16 39.236C76.8882 39.3235 76.7006 39.5214 76.6011 39.8259C76.5398 40.0162 76.5245 40.2255 76.5551 40.4539C76.5705 40.5719 76.6011 40.6632 76.6508 40.7355C76.5781 40.7736 76.513 40.8231 76.4594 40.8802C76.2795 41.0781 76.1991 41.2836 76.2183 41.5005C76.2298 41.6223 76.2795 41.7213 76.3676 41.7974C76.4403 41.8583 76.5513 41.8849 76.6968 41.8811C76.8499 41.8773 76.9877 41.8355 77.114 41.7555C77.248 41.6718 77.3437 41.5652 77.4011 41.4358C77.4126 41.4092 77.3935 41.394 77.3399 41.394C77.3092 41.394 77.2748 41.394 77.2403 41.4016C77.1064 41.4244 77.0298 41.4587 77.0107 41.5081C76.9762 41.5957 76.9264 41.6642 76.8614 41.7175C76.8614 41.7175 76.8614 41.7175 76.8575 41.7213H76.8422C76.8422 41.7213 76.8154 41.7137 76.8001 41.706C76.7695 41.6946 76.7427 41.6718 76.7121 41.6452C76.6585 41.5919 76.6279 41.5119 76.6164 41.4054C76.5972 41.2607 76.647 41.1047 76.758 40.9296C76.7733 40.9068 76.7886 40.8878 76.8078 40.8649C76.8461 40.8802 76.8882 40.8878 76.9379 40.8916C77.0107 40.8916 77.091 40.8763 77.1829 40.8345C77.2556 40.8002 77.2786 40.7698 77.2518 40.7469C77.2021 40.6975 77.137 40.667 77.0604 40.6556C77.0604 40.6556 77.0451 40.6404 77.0413 40.6328C77.003 40.5795 76.9762 40.5034 76.9532 40.4006C76.9188 40.2217 76.9188 40.0504 76.9532 39.8944C76.9992 39.6622 77.091 39.4872 77.2327 39.3692C77.2327 39.3692 77.2556 39.354 77.2748 39.3387C77.2978 39.3387 77.3092 39.3387 77.3054 39.3387C77.4126 39.354 77.4547 39.4149 77.4317 39.5252C77.4241 39.5671 77.4738 39.5785 77.5887 39.5595C77.6461 39.5481 77.6959 39.5328 77.7418 39.5138C77.7916 39.491 77.8183 39.4719 77.8222 39.4529C77.849 39.3235 77.7992 39.2398 77.6729 39.2017L77.6691 39.1941ZM83.4683 40.2902C83.5487 40.1532 83.61 39.9781 83.6482 39.7612C83.6904 39.5138 83.6674 39.3387 83.5793 39.236C83.5258 39.1751 83.4339 39.1446 83.2999 39.156C83.1315 39.1675 82.9669 39.2169 82.8061 39.3121C82.5803 39.4453 82.4118 39.666 82.3047 39.9819C82.1936 40.2978 82.1936 40.5528 82.3047 40.7469C82.3582 40.8383 82.5075 40.9258 82.7563 41.0134C82.8559 41.0476 82.9248 41.0781 82.9631 41.0971C83.0434 41.1428 83.0894 41.1999 83.1047 41.2646C83.12 41.3331 83.097 41.4282 83.0358 41.55C83.0052 41.6109 82.9631 41.6642 82.9133 41.7099C82.8903 41.7289 82.8674 41.7479 82.8406 41.7669C82.8406 41.7669 82.8176 41.7822 82.8138 41.7822C82.8138 41.7822 82.7908 41.7936 82.7831 41.7974C82.7831 41.7974 82.7985 41.7898 82.7755 41.7974C82.7755 41.7974 82.7831 41.7974 82.7946 41.7974H82.7717C82.7717 41.7974 82.7602 41.7974 82.7449 41.7974C82.7449 41.7974 82.7181 41.7974 82.6913 41.786C82.6262 41.7708 82.5688 41.7365 82.5114 41.6756C82.4731 41.6299 82.4463 41.569 82.431 41.4853C82.4118 41.3978 82.4233 41.3407 82.4616 41.3102C82.4961 41.2836 82.5152 41.2646 82.5114 41.2493C82.5114 41.2493 82.4807 41.2227 82.4425 41.2227C82.3315 41.2227 82.2396 41.2455 82.163 41.2988C82.0941 41.3521 82.052 41.4054 82.0367 41.4663C82.0214 41.5272 82.029 41.5957 82.0597 41.6718C82.1094 41.805 82.2128 41.8925 82.3659 41.9382C82.5267 41.9839 82.7219 41.9649 82.9516 41.8735C83.1353 41.8012 83.2769 41.6984 83.3803 41.569C83.4454 41.4815 83.4875 41.394 83.5028 41.2988C83.5219 41.1884 83.4951 41.0971 83.4262 41.0286C83.3765 40.9791 83.3037 40.9372 83.2004 40.8992C83.1736 40.8916 83.1315 40.8763 83.0779 40.8573C83.0243 40.8421 82.986 40.8269 82.9631 40.8154C82.8674 40.7774 82.7908 40.7355 82.741 40.6899C82.6874 40.6404 82.6492 40.549 82.6339 40.4196C82.5994 40.1646 82.6645 39.8944 82.8367 39.6166C82.9133 39.4948 82.9937 39.4034 83.0855 39.3425C83.0855 39.3425 83.1085 39.3273 83.1277 39.3197C83.1277 39.3197 83.1277 39.3197 83.1391 39.3159C83.1391 39.3159 83.1391 39.3159 83.1468 39.3159C83.1468 39.3159 83.1468 39.3159 83.1506 39.3159C83.1506 39.3159 83.1238 39.3197 83.1085 39.3197H83.1123C83.1123 39.3197 83.1353 39.3235 83.1506 39.3311C83.1506 39.3311 83.1621 39.3387 83.1812 39.3501C83.1812 39.3501 83.2042 39.3692 83.2119 39.3768C83.231 39.4034 83.2463 39.4377 83.2616 39.4834C83.2846 39.5519 83.2884 39.647 83.2769 39.7612C83.254 39.9972 83.1889 40.2027 83.0894 40.3702C83.0741 40.3968 83.0894 40.4082 83.1506 40.412C83.1851 40.412 83.2195 40.412 83.2463 40.4082C83.3726 40.3854 83.4492 40.3511 83.4798 40.3016L83.4683 40.2902ZM86.301 40.2103C86.278 40.4691 86.2436 40.7127 86.1976 40.941C86.1249 41.2912 86.0177 41.5348 85.8761 41.6718C85.8761 41.6718 85.8455 41.6337 85.834 41.6033C85.7995 41.531 85.7842 41.4092 85.788 41.2417C85.7919 40.9372 85.8493 40.6213 85.9488 40.2864C86.0407 39.9934 86.1479 39.7726 86.2742 39.6242C86.2857 39.666 86.2972 39.7231 86.3048 39.7878C86.3163 39.8944 86.3163 40.0352 86.301 40.2141V40.2103ZM86.5498 39.3387C86.5154 39.3083 86.4273 39.3159 86.2972 39.3616C86.2053 39.3958 86.1632 39.4263 86.167 39.4529C86.1211 39.4681 86.0828 39.491 86.0522 39.5176C85.8761 39.6546 85.7268 39.8868 85.6043 40.2141C85.5086 40.4805 85.4397 40.7736 85.4053 41.0971C85.3899 41.2379 85.3823 41.3635 85.3899 41.4777C85.3976 41.6299 85.4359 41.7365 85.501 41.8012C85.5316 41.8316 85.589 41.8507 85.6656 41.8545C85.7613 41.8583 85.8876 41.8316 86.0369 41.7708C86.1594 41.7213 86.2665 41.6223 86.3622 41.4815C86.4464 41.3521 86.5192 41.1618 86.5766 40.9182C86.6149 40.7546 86.6455 40.5757 86.6646 40.3778C86.6953 40.1266 86.7106 39.9439 86.7106 39.8259C86.7106 39.5861 86.6532 39.4263 86.5498 39.3349V39.3387ZM90.0179 39.3844C90.0102 39.3425 89.9375 39.3387 89.8073 39.3692C89.6734 39.4034 89.6121 39.4415 89.6198 39.4872C89.6389 39.5785 89.6313 39.6889 89.6006 39.8107C89.593 39.8525 89.5777 39.9058 89.5547 39.9705C89.5317 40.0504 89.5164 40.1037 89.5088 40.1304C89.4437 40.3663 89.3863 40.549 89.3442 40.6822C89.2829 40.8649 89.2255 41.0172 89.1681 41.1352C89.1681 40.0847 89.1681 39.5024 89.1681 39.3958C89.1681 39.3958 89.149 39.3692 89.1068 39.3692C89.0686 39.3692 89.0226 39.3692 88.9729 39.3844C88.8389 39.4149 88.7738 39.4529 88.7738 39.5062C88.7853 39.7726 88.7853 40.138 88.7776 40.6061C88.77 41.1275 88.77 41.4929 88.7738 41.7022C88.7738 41.7327 88.8274 41.7403 88.9346 41.7213C89.0303 41.7022 89.103 41.6756 89.1489 41.6337C89.371 41.4358 89.5624 41.1009 89.7231 40.6328C89.7652 40.5072 89.8227 40.3169 89.8916 40.0619C89.9873 39.7117 90.0294 39.4834 90.0102 39.3844H90.0179ZM93.0113 39.1941C92.885 39.1522 92.7127 39.1675 92.4984 39.236C92.2266 39.3235 92.039 39.5214 91.9395 39.8259C91.8782 40.0162 91.8629 40.2255 91.8936 40.4539C91.9089 40.5719 91.9433 40.6632 91.9893 40.7355C91.9127 40.7736 91.8515 40.8231 91.7979 40.8802C91.618 41.0781 91.5376 41.2836 91.5567 41.5005C91.5682 41.6223 91.618 41.7213 91.7022 41.7974C91.7749 41.8583 91.8859 41.8849 92.0352 41.8811C92.1845 41.8773 92.3223 41.8355 92.4486 41.7555C92.5864 41.6718 92.6821 41.5652 92.7357 41.4358C92.7472 41.4092 92.728 41.394 92.6744 41.394C92.6438 41.394 92.6132 41.394 92.5788 41.4016C92.4409 41.4244 92.3644 41.4587 92.3452 41.5081C92.3108 41.5957 92.261 41.6642 92.1998 41.7175C92.1998 41.7175 92.1921 41.7175 92.1921 41.7213H92.1768C92.1768 41.7213 92.15 41.7137 92.1347 41.706C92.1041 41.6946 92.0773 41.6718 92.0467 41.6452C91.9931 41.5919 91.9625 41.5119 91.951 41.4054C91.9318 41.2607 91.9816 41.1047 92.0926 40.9296C92.1079 40.9068 92.1232 40.8878 92.1424 40.8649C92.1806 40.8802 92.2228 40.8878 92.2725 40.8916C92.3452 40.8916 92.4256 40.8763 92.5175 40.8345C92.5902 40.8002 92.6132 40.7698 92.5864 40.7469C92.5366 40.6975 92.4716 40.667 92.395 40.6556C92.395 40.6556 92.3797 40.6404 92.3759 40.6328C92.3376 40.5795 92.3108 40.5034 92.2878 40.4006C92.2534 40.2217 92.2534 40.0504 92.2878 39.8944C92.3338 39.6622 92.4256 39.4872 92.5673 39.3692C92.5673 39.3692 92.5902 39.354 92.6094 39.3387C92.6323 39.3387 92.6438 39.3387 92.64 39.3387C92.7434 39.354 92.7855 39.4149 92.7625 39.5252C92.7548 39.5671 92.8046 39.5785 92.9194 39.5595C92.9769 39.5481 93.0266 39.5328 93.0725 39.5138C93.1223 39.491 93.1491 39.4719 93.1529 39.4529C93.1797 39.3235 93.13 39.2398 93.0075 39.2017L93.0113 39.1941ZM95.7827 40.2369C95.7559 40.4044 95.6602 40.5719 95.4994 40.7393C95.465 40.7736 95.4267 40.8116 95.3846 40.8459C95.3846 40.8459 95.3616 40.8649 95.354 40.8725C95.3157 40.8573 95.2736 40.8459 95.2277 40.8459C95.3272 40.3359 95.3923 39.8982 95.4152 39.5252C95.465 39.5519 95.5109 39.5785 95.553 39.6128C95.6449 39.6851 95.71 39.7764 95.7521 39.8906C95.7942 40.001 95.8057 40.1152 95.7827 40.2331V40.2369ZM96.311 41.8811C96.1808 41.786 95.9741 41.5652 95.6985 41.2265C95.576 41.0781 95.5071 40.9943 95.4841 40.9753C95.5683 40.9372 95.6487 40.8878 95.7253 40.8269C95.9435 40.6594 96.0851 40.4729 96.1464 40.2636C96.1923 40.119 96.1961 39.9781 96.1578 39.8411C96.1196 39.7041 96.0468 39.5861 95.932 39.4872C95.7061 39.2969 95.4076 39.236 95.0363 39.3121C95.0133 39.3159 94.9827 39.3235 94.9482 39.3349C94.8181 39.3654 94.7568 39.4034 94.7683 39.4453C94.7798 39.4834 94.8487 39.4872 94.975 39.4529C94.975 39.4529 94.998 39.4529 95.0056 39.4491C95.0056 39.4491 95.021 39.4491 95.0248 39.4491C95.0018 39.9401 94.8832 40.6937 94.6611 41.7137C94.6496 41.7593 94.7032 41.7708 94.8181 41.7479C94.8755 41.7403 94.9253 41.7251 94.9712 41.7022C95.021 41.6794 95.0478 41.6604 95.0516 41.6413C95.1052 41.3978 95.1396 41.2341 95.1588 41.1542C95.1779 41.177 95.2506 41.2646 95.3731 41.4168C95.6105 41.7099 95.798 41.9078 95.9358 42.0143C95.9779 42.0448 96.0621 42.0372 96.1885 41.9915C96.2229 41.9801 96.2535 41.9649 96.2765 41.9496C96.3224 41.923 96.3301 41.9002 96.3071 41.8811H96.311ZM99.312 39.1941C99.1857 39.1522 99.0135 39.1675 98.7991 39.236C98.5273 39.3235 98.3397 39.5214 98.2402 39.8259C98.179 40.0162 98.1637 40.2255 98.1943 40.4539C98.2096 40.5719 98.244 40.6632 98.29 40.7355C98.2134 40.7736 98.1522 40.8231 98.0986 40.8802C97.9187 41.0781 97.8383 41.2836 97.8574 41.5005C97.8689 41.6223 97.9187 41.7213 98.0029 41.7974C98.0756 41.8583 98.1866 41.8849 98.3359 41.8811C98.4852 41.8773 98.623 41.8355 98.7532 41.7555C98.8871 41.6718 98.9828 41.5652 99.0364 41.4358C99.0479 41.4092 99.0288 41.394 98.9752 41.394C98.9446 41.394 98.9139 41.394 98.8795 41.4016C98.7455 41.4244 98.6651 41.4587 98.646 41.5081C98.6115 41.5957 98.5618 41.6642 98.5005 41.7175C98.5005 41.7175 98.4929 41.7175 98.4929 41.7213H98.4776C98.4776 41.7213 98.4546 41.7137 98.4354 41.706C98.4048 41.6946 98.378 41.6718 98.3474 41.6452C98.2976 41.5919 98.2632 41.5119 98.2517 41.4054C98.2326 41.2607 98.2823 41.1047 98.3933 40.9296C98.4086 40.9068 98.4278 40.8878 98.4431 40.8649C98.4814 40.8802 98.5235 40.8878 98.5732 40.8916C98.646 40.8916 98.7264 40.8763 98.8182 40.8345C98.8948 40.8002 98.9178 40.7698 98.891 40.7469C98.8374 40.6975 98.7723 40.667 98.6957 40.6556C98.6957 40.6556 98.6804 40.6404 98.6766 40.6328C98.6383 40.5795 98.6115 40.5034 98.5886 40.4006C98.5541 40.2217 98.5541 40.0504 98.5886 39.8944C98.6345 39.6622 98.7264 39.4872 98.868 39.3692C98.868 39.3692 98.891 39.354 98.9101 39.3387C98.9331 39.3387 98.9446 39.3387 98.9407 39.3387C99.0441 39.354 99.0862 39.4149 99.0632 39.5252C99.0556 39.5671 99.1053 39.5785 99.2202 39.5595C99.2776 39.5481 99.3273 39.5328 99.3733 39.5138C99.423 39.491 99.4498 39.4719 99.4537 39.4529C99.4805 39.3235 99.4307 39.2398 99.3082 39.2017L99.312 39.1941ZM101.394 39.491C101.352 39.6851 101.272 40.0695 101.161 40.6366C101.119 40.8573 101.081 41.0514 101.046 41.2113C100.977 41.5424 100.939 41.7213 100.939 41.7441C100.939 41.7441 100.958 41.7669 101 41.7669C101.038 41.7669 101.084 41.7669 101.134 41.7555C101.264 41.7289 101.333 41.6908 101.333 41.6375C101.333 41.5843 101.348 41.5043 101.375 41.394C101.391 41.3407 101.41 41.2455 101.44 41.1123C101.471 40.9677 101.509 40.7774 101.555 40.5414C101.662 39.9896 101.739 39.6166 101.781 39.4225C101.789 39.3768 101.735 39.3654 101.62 39.3844C101.567 39.3958 101.517 39.411 101.471 39.4339C101.421 39.4567 101.394 39.4757 101.387 39.4948L101.394 39.491ZM104.43 40.9144C104.43 40.9144 104.438 40.9144 104.441 40.9106C104.441 40.9106 104.434 40.9144 104.43 40.9144ZM104.851 39.2588C104.782 39.1218 104.625 39.1066 104.384 39.2131C104.281 39.2588 104.181 39.3501 104.078 39.4948C103.994 39.6128 103.913 39.746 103.837 39.902C103.672 40.2331 103.561 40.6061 103.511 41.0172C103.492 41.1846 103.481 41.3293 103.481 41.4434C103.477 41.6109 103.511 41.7251 103.592 41.7784C103.672 41.8393 103.817 41.8355 104.02 41.7631C104.139 41.7213 104.25 41.649 104.357 41.5462C104.449 41.4587 104.526 41.3407 104.583 41.1922C104.61 41.1237 104.625 41.0552 104.637 40.9867C104.648 40.9182 104.644 40.8687 104.625 40.8421C104.595 40.7926 104.518 40.7812 104.395 40.804C104.265 40.8307 104.143 40.8878 104.032 40.9753C104.001 41.0019 104.001 41.0172 104.039 41.0286C104.066 41.0362 104.093 41.04 104.124 41.0362C104.166 41.0362 104.208 41.0248 104.246 41.0134C104.246 41.0628 104.231 41.1352 104.196 41.2379C104.162 41.3369 104.12 41.4206 104.074 41.4929C104.074 41.4929 104.059 41.5119 104.051 41.5158C104.032 41.5386 104.017 41.5614 103.997 41.5766C103.997 41.5766 103.963 41.6109 103.936 41.6299C103.936 41.6299 103.917 41.6071 103.909 41.5881C103.886 41.5462 103.875 41.4815 103.867 41.3978C103.867 41.3445 103.871 41.2113 103.89 40.9981C103.925 40.6061 104.028 40.2293 104.2 39.8678C104.292 39.6699 104.384 39.5138 104.472 39.3996C104.495 39.4529 104.507 39.5062 104.507 39.5595C104.507 39.628 104.495 39.6737 104.461 39.7003C104.43 39.7231 104.43 39.7422 104.468 39.7498C104.495 39.7574 104.522 39.7612 104.552 39.7612C104.66 39.7498 104.748 39.7193 104.813 39.666C104.87 39.6242 104.897 39.5557 104.897 39.4681C104.897 39.392 104.882 39.3197 104.847 39.2512L104.851 39.2588ZM108.25 39.0114C108.193 39.019 108.143 39.0343 108.097 39.0571C108.047 39.0799 108.021 39.099 108.017 39.118C107.86 39.6242 107.722 40.1875 107.611 40.8002C107.596 40.7089 107.576 40.6023 107.557 40.4843C107.504 40.1684 107.473 39.9743 107.465 39.902C107.439 39.6737 107.408 39.5214 107.374 39.4491C107.374 39.4491 107.374 39.4491 107.37 39.4453C107.37 39.4453 107.37 39.4453 107.37 39.4415C107.377 39.3958 107.324 39.3844 107.209 39.4072C107.155 39.4187 107.106 39.4339 107.06 39.4529C107.006 39.4796 106.979 39.4986 106.979 39.5138C106.945 39.7117 106.872 40.0809 106.753 40.6252C106.654 41.0933 106.585 41.4663 106.551 41.7441C106.551 41.7669 106.581 41.7746 106.65 41.7669C106.696 41.7669 106.734 41.7555 106.765 41.7479C106.88 41.7175 106.941 41.6794 106.945 41.6375C106.979 41.3635 107.048 40.9943 107.148 40.53C107.152 40.5604 107.155 40.5795 107.159 40.5909C107.198 40.8231 107.232 41.0324 107.266 41.2189C107.312 41.4891 107.358 41.6794 107.4 41.7936C107.408 41.8202 107.446 41.8316 107.508 41.824C107.565 41.8202 107.622 41.805 107.684 41.7822C107.791 41.7517 107.848 41.7175 107.852 41.6756C107.99 40.6632 108.177 39.7878 108.407 39.0457C108.422 39 108.373 38.9886 108.25 39.0114ZM111.32 39.4415C111.148 39.411 110.972 39.392 110.792 39.3882C110.773 39.3654 110.723 39.3616 110.635 39.3768C110.635 39.3768 110.601 39.3844 110.578 39.392C110.386 39.4034 110.199 39.4301 110.011 39.4719C109.877 39.5024 109.816 39.5404 109.831 39.5861C109.839 39.6204 109.908 39.6242 110.038 39.5937C110.038 39.5937 110.038 39.5937 110.042 39.5937C110.042 39.5937 110.045 39.5937 110.049 39.5937C110.049 39.5937 110.084 39.5899 110.111 39.5823C110.141 39.5785 110.176 39.5709 110.218 39.5671C110.271 39.5595 110.325 39.5557 110.382 39.5519C110.13 40.3854 109.965 41.1199 109.892 41.7593C109.892 41.7593 109.912 41.7746 109.954 41.7784C109.992 41.7784 110.034 41.7784 110.088 41.7669C110.218 41.7441 110.287 41.706 110.294 41.6528C110.359 41.0476 110.512 40.3511 110.75 39.5633C110.834 39.5709 110.918 39.5823 110.995 39.5975C111.075 39.6128 111.167 39.5975 111.274 39.5481C111.301 39.5366 111.324 39.5176 111.343 39.4986C111.37 39.4719 111.362 39.4529 111.324 39.4491L111.32 39.4415ZM114.451 39.1142C114.448 39.0761 114.375 39.0685 114.245 39.099C114.115 39.1294 114.049 39.1713 114.057 39.2169C114.088 39.4339 114.088 39.6699 114.046 39.9172C113.996 40.2103 113.904 40.4463 113.77 40.6252C113.743 40.6594 113.705 40.6975 113.659 40.7355C113.659 40.7355 113.632 40.7584 113.613 40.7698C113.613 40.7698 113.605 40.7736 113.59 40.785C113.59 40.785 113.563 40.7926 113.552 40.7964C113.552 40.7964 113.537 40.7964 113.525 40.7926C113.525 40.7926 113.521 40.7926 113.514 40.7888H113.51C113.403 40.7393 113.349 40.6061 113.349 40.3854C113.349 40.1418 113.437 39.7612 113.609 39.2474C113.625 39.2017 113.571 39.1903 113.448 39.2131C113.311 39.2398 113.234 39.274 113.219 39.3197C113.062 39.784 112.974 40.1456 112.959 40.4006C112.939 40.6252 112.978 40.785 113.073 40.8802C113.123 40.9334 113.2 40.9601 113.311 40.9639C113.337 40.9639 113.364 40.9639 113.391 40.9639C113.38 41.0781 113.33 41.3216 113.234 41.6946C113.223 41.7403 113.276 41.7555 113.391 41.7327C113.448 41.7251 113.498 41.7099 113.544 41.687C113.594 41.6642 113.621 41.6413 113.625 41.6261C113.72 41.2417 113.778 40.9905 113.785 40.8649C113.785 40.8649 113.797 40.8611 113.801 40.8611C114.088 40.7393 114.287 40.4805 114.394 40.0809C114.486 39.7536 114.509 39.4339 114.459 39.1256L114.451 39.1142Z" fill="white"></path></g><defs><clipPath id="clip0_130_246"><rect width="150" height="55" fill="white" transform="translate(0 0.5)"></rect></clipPath></defs></svg>