<svg width="360" height="443" viewBox="0 0 360 443" fill="none" xmlns="http://www.w3.org/2000/svg">
<g filter="url(#filter0_d_3692_13082)">
<rect width="258.606" height="187" rx="20" transform="matrix(0.95545 -0.295154 0.893595 0.448873 20.6777 322.625)" fill="#009C3B"/>
</g>
<path d="M68.7894 331.158C68.2098 330.92 67.5462 330.801 66.7986 330.801C66.051 330.801 65.3407 330.906 64.6675 331.114C64.1753 331.266 63.8191 331.436 63.5989 331.625C63.3823 331.813 63.3011 332.004 63.3555 332.198C63.4134 332.392 63.6083 332.572 63.94 332.739C64.2176 332.878 64.5268 332.976 64.8676 333.033C65.2087 333.087 65.5574 333.112 65.9138 333.109C66.2668 333.105 66.6087 333.085 66.9394 333.052C67.2668 333.017 67.559 332.98 67.816 332.942L69.2295 332.736C69.5901 332.682 70.0104 332.632 70.4903 332.585C70.9738 332.537 71.4868 332.518 72.0291 332.526C72.5717 332.531 73.1173 332.585 73.6659 332.687C74.2146 332.79 74.7326 332.963 75.22 333.208C75.7819 333.49 76.1322 333.794 76.2709 334.119C76.4132 334.443 76.3177 334.765 75.9843 335.085C75.6546 335.404 75.0626 335.695 74.2085 335.959C73.4123 336.205 72.6027 336.358 71.7797 336.417C70.9603 336.475 70.1692 336.448 69.4064 336.335C68.6472 336.22 67.9615 336.027 67.3494 335.755L68.7392 335.326C69.168 335.512 69.6341 335.631 70.1374 335.684C70.641 335.735 71.1454 335.733 71.6507 335.678C72.1562 335.621 72.6297 335.524 73.0712 335.388C73.5851 335.229 73.9687 335.047 74.222 334.843C74.4718 334.637 74.5757 334.426 74.5337 334.211C74.4882 333.994 74.2759 333.791 73.8968 333.6C73.5516 333.427 73.1675 333.318 72.7446 333.273C72.3216 333.228 71.8742 333.223 71.4022 333.259C70.9302 333.295 70.4481 333.348 69.9556 333.418L68.2221 333.657C67.1199 333.808 66.0989 333.852 65.1589 333.791C64.219 333.73 63.3987 333.524 62.698 333.172C62.1158 332.879 61.7764 332.572 61.6797 332.251C61.5833 331.926 61.7008 331.615 62.0323 331.318C62.364 331.018 62.8846 330.758 63.5939 330.539C64.3105 330.318 65.0677 330.181 65.8653 330.13C66.6596 330.077 67.4261 330.103 68.1648 330.21C68.907 330.316 69.5496 330.498 70.0923 330.756L68.7894 331.158ZM82.7193 333.33C82.1909 333.493 81.6183 333.595 81.0015 333.634C80.3813 333.672 79.7668 333.641 79.158 333.54C78.5459 333.438 77.986 333.26 77.4782 333.005C77.0314 332.78 76.7634 332.569 76.674 332.372C76.5813 332.173 76.6128 331.984 76.7686 331.807C76.9243 331.63 77.1533 331.463 77.4555 331.307C77.7578 331.147 78.079 330.996 78.4188 330.853C78.8646 330.665 79.2297 330.516 79.5141 330.403C79.7987 330.288 79.9745 330.188 80.0414 330.104C80.1119 330.019 80.0507 329.928 79.8578 329.831L79.8172 329.811C79.3162 329.559 78.7804 329.409 78.2097 329.36C77.6426 329.31 77.0641 329.376 76.4742 329.559C75.8625 329.748 75.5082 329.959 75.4113 330.192C75.3143 330.425 75.3374 330.635 75.4806 330.821L73.8584 330.993C73.6017 330.688 73.5223 330.413 73.6202 330.168C73.7183 329.921 73.9302 329.705 74.256 329.519C74.5819 329.33 74.9548 329.171 75.3747 329.042C75.6425 328.959 75.9806 328.879 76.3889 328.802C76.7975 328.723 77.2561 328.679 77.7646 328.67C78.2767 328.66 78.8258 328.714 79.4119 328.832C79.998 328.951 80.6008 329.165 81.2202 329.476L86.3584 332.057L85.0772 332.453L84.0211 331.923L83.956 331.943C84.0384 332.055 84.0747 332.19 84.0649 332.35C84.0552 332.509 83.9498 332.675 83.7486 332.847C83.5474 333.019 83.2043 333.18 82.7193 333.33ZM81.8384 332.729C82.3451 332.572 82.6791 332.394 82.8403 332.193C83.0052 331.991 83.0291 331.789 82.9119 331.586C82.7984 331.382 82.5792 331.198 82.2542 331.035L81.1576 330.484C81.1642 330.532 81.1006 330.597 80.9668 330.679C80.8332 330.759 80.6656 330.845 80.464 330.937C80.2626 331.027 80.0633 331.113 79.866 331.196C79.6689 331.276 79.51 331.342 79.3894 331.393C79.0971 331.516 78.8519 331.646 78.6537 331.781C78.4558 331.913 78.3579 332.052 78.36 332.197C78.3622 332.339 78.5157 332.487 78.8203 332.64C79.2367 332.849 79.7161 332.956 80.2587 332.961C80.8015 332.964 81.3281 332.886 81.8384 332.729ZM79.5797 325.716L89.9779 330.939L88.6968 331.335L78.2986 326.112L79.5797 325.716ZM95.6356 329.323C94.9407 329.538 94.1631 329.645 93.3028 329.645C92.4391 329.642 91.5558 329.536 90.6529 329.326C89.7466 329.115 88.8805 328.802 88.0546 328.387C87.2355 327.975 86.6749 327.572 86.3727 327.176C86.0706 326.781 86.0232 326.418 86.2305 326.088C86.4378 325.757 86.8925 325.484 87.5947 325.267C88.1375 325.099 88.651 325.009 89.1351 324.997C89.6195 324.982 90.0515 325.002 90.4312 325.058C90.8112 325.11 91.1159 325.156 91.3454 325.195L91.454 325.162L87.6156 323.234L88.8967 322.838L99.2949 328.061L98.0572 328.444L96.859 327.842L96.707 327.889C96.755 327.989 96.8005 328.121 96.8434 328.283C96.8829 328.444 96.8263 328.616 96.6734 328.801C96.5172 328.984 96.1712 329.158 95.6356 329.323ZM94.7329 328.729C95.2469 328.57 95.5559 328.373 95.6601 328.138C95.7609 327.901 95.6802 327.641 95.418 327.36C95.1524 327.077 94.7251 326.787 94.1362 326.492C93.554 326.199 92.9541 325.971 92.3365 325.808C91.7155 325.643 91.1058 325.554 90.5074 325.541C89.9056 325.526 89.3442 325.599 88.823 325.76C88.2802 325.928 87.9581 326.133 87.8568 326.376C87.7558 326.616 87.8365 326.875 88.0989 327.154C88.3616 327.43 88.7671 327.705 89.3155 327.981C89.8706 328.26 90.4654 328.485 91.0999 328.657C91.7347 328.826 92.3649 328.922 92.9906 328.946C93.6165 328.967 94.1973 328.895 94.7329 328.729ZM105.369 326.317C104.616 326.549 103.788 326.669 102.885 326.676C101.985 326.682 101.075 326.583 100.154 326.379C99.2368 326.173 98.3753 325.868 97.5697 325.464C96.7573 325.056 96.2057 324.651 95.9146 324.249C95.6272 323.847 95.5983 323.474 95.8278 323.131C96.0609 322.787 96.5538 322.499 97.3066 322.266C98.0594 322.034 98.8856 321.915 99.7853 321.909C100.689 321.901 101.601 322.001 102.521 322.208C103.446 322.414 104.314 322.721 105.126 323.129C105.932 323.534 106.477 323.937 106.761 324.338C107.048 324.738 107.076 325.11 106.843 325.454C106.613 325.796 106.122 326.084 105.369 326.317ZM104.293 325.776C104.865 325.599 105.198 325.385 105.293 325.133C105.388 324.881 105.301 324.616 105.031 324.337C104.762 324.058 104.367 323.787 103.845 323.525C103.324 323.263 102.75 323.047 102.122 322.875C101.495 322.704 100.857 322.606 100.211 322.58C99.564 322.555 98.9548 322.63 98.383 322.807C97.8111 322.984 97.4794 323.199 97.3878 323.452C97.2962 323.706 97.3869 323.973 97.6597 324.254C97.9326 324.535 98.3296 324.806 98.8509 325.068C99.3721 325.33 99.9448 325.546 100.569 325.715C101.193 325.885 101.827 325.982 102.47 326.005C103.113 326.029 103.721 325.952 104.293 325.776ZM118.899 322.137C118.095 322.385 117.237 322.516 116.322 322.529C115.408 322.54 114.494 322.443 113.58 322.24C112.666 322.033 111.81 321.729 111.011 321.328C110.212 320.927 109.664 320.525 109.366 320.123C109.068 319.718 109.029 319.343 109.248 318.998C109.467 318.65 109.953 318.36 110.706 318.127C111.14 317.993 111.637 317.895 112.196 317.832C112.754 317.769 113.36 317.76 114.012 317.806C114.661 317.85 115.337 317.965 116.041 318.151C116.745 318.338 117.46 318.614 118.188 318.979L118.696 319.234L112.268 321.22L111.233 320.699L116.357 319.116C115.917 318.895 115.431 318.727 114.897 318.612C114.367 318.495 113.831 318.44 113.287 318.446C112.747 318.451 112.246 318.525 111.782 318.668C111.272 318.826 110.949 319.021 110.813 319.256C110.678 319.487 110.698 319.728 110.875 319.978C111.051 320.228 111.355 320.461 111.785 320.677L112.475 321.024C113.064 321.32 113.672 321.537 114.299 321.676C114.926 321.812 115.541 321.873 116.145 321.859C116.746 321.844 117.305 321.756 117.823 321.596C118.159 321.492 118.419 321.376 118.603 321.248C118.786 321.117 118.888 320.976 118.908 320.825C118.924 320.671 118.851 320.51 118.689 320.34L120.251 320.121C120.514 320.359 120.64 320.6 120.63 320.844C120.617 321.087 120.467 321.32 120.181 321.543C119.891 321.765 119.463 321.963 118.899 322.137ZM124.138 320.387L116.339 316.469L117.577 316.087L118.796 316.699L118.904 316.666C118.662 316.403 118.619 316.154 118.776 315.918C118.93 315.682 119.278 315.479 119.821 315.311C120.371 315.142 120.945 315.059 121.545 315.063C122.144 315.065 122.755 315.138 123.377 315.284L123.464 315.257C123.275 314.989 123.275 314.729 123.466 314.478C123.652 314.225 124.044 314.007 124.641 313.822C125.387 313.592 126.215 313.513 127.126 313.586C128.033 313.657 128.946 313.923 129.863 314.384L135.082 317.006L133.801 317.402L128.582 314.78C128.006 314.491 127.427 314.336 126.843 314.316C126.259 314.296 125.739 314.356 125.283 314.497C124.697 314.678 124.409 314.902 124.418 315.168C124.425 315.432 124.68 315.691 125.184 315.945L130.262 318.495L128.959 318.898L123.617 316.215C123.174 315.992 122.663 315.86 122.085 315.819C121.503 315.776 120.969 315.83 120.485 315.98C120.152 316.082 119.923 316.22 119.8 316.393C119.68 316.565 119.678 316.752 119.795 316.955C119.913 317.154 120.163 317.35 120.545 317.543L125.419 319.991L124.138 320.387ZM141.898 314.9L131.5 309.677L135.387 308.476C136.161 308.237 136.925 308.103 137.679 308.073C138.429 308.042 139.137 308.094 139.803 308.228C140.465 308.362 141.05 308.556 141.558 308.811C142.005 309.035 142.289 309.247 142.41 309.446C142.534 309.643 142.544 309.827 142.438 309.997C142.336 310.166 142.166 310.32 141.929 310.459L142.03 310.51C142.391 310.415 142.844 310.366 143.391 310.361C143.938 310.357 144.517 310.415 145.128 310.533C145.739 310.652 146.318 310.849 146.866 311.125C147.388 311.387 147.73 311.661 147.893 311.949C148.056 312.236 147.986 312.525 147.683 312.817C147.38 313.108 146.791 313.389 145.915 313.659L141.898 314.9ZM142.127 313.923L144.798 313.098C145.678 312.827 146.143 312.554 146.194 312.28C146.245 312.003 146.042 311.75 145.585 311.521C145.233 311.344 144.812 311.21 144.323 311.12C143.83 311.028 143.316 310.992 142.782 311.011C142.245 311.029 141.733 311.113 141.248 311.262L138.512 312.108L142.127 313.923ZM137.416 311.557L139.913 310.785C140.318 310.66 140.609 310.51 140.786 310.334C140.966 310.158 141.017 309.972 140.938 309.777C140.863 309.58 140.642 309.39 140.277 309.206C139.82 308.977 139.262 308.835 138.604 308.78C137.942 308.724 137.242 308.809 136.504 309.038L133.963 309.822L137.416 311.557ZM151.667 311.883L143.868 307.965L145.149 307.569L152.948 311.487L151.667 311.883ZM143.22 307.111C142.97 307.188 142.675 307.215 142.335 307.191C141.999 307.166 141.719 307.097 141.496 306.985C141.272 306.873 141.17 306.749 141.188 306.614C141.21 306.479 141.345 306.372 141.595 306.295C141.845 306.218 142.138 306.192 142.474 306.217C142.814 306.241 143.096 306.309 143.32 306.421C143.543 306.533 143.644 306.657 143.622 306.793C143.604 306.928 143.47 307.034 143.22 307.111ZM151.122 305.724L152.138 306.234L147.817 307.569L146.801 307.059L151.122 305.724ZM146.192 305.732L147.473 305.336L154.906 309.07C155.245 309.24 155.551 309.351 155.825 309.404C156.1 309.453 156.349 309.467 156.573 309.444C156.797 309.419 157.004 309.377 157.192 309.319C157.333 309.276 157.442 309.236 157.519 309.202C157.592 309.165 157.651 309.136 157.695 309.114L159.032 309.574C158.976 309.617 158.885 309.669 158.76 309.733C158.638 309.798 158.458 309.867 158.219 309.941C157.857 310.053 157.43 310.126 156.937 310.16C156.447 310.193 155.94 310.17 155.414 310.091C154.892 310.011 154.404 309.856 153.95 309.629L146.192 305.732ZM164.309 308.109C163.527 308.351 162.681 308.472 161.771 308.473C160.861 308.474 159.952 308.369 159.042 308.159C158.132 307.948 157.288 307.648 156.509 307.256C155.717 306.859 155.174 306.459 154.879 306.059C154.585 305.656 154.547 305.281 154.766 304.936C154.985 304.589 155.471 304.298 156.224 304.066C156.81 303.885 157.44 303.773 158.114 303.729C158.788 303.686 159.457 303.71 160.123 303.8C160.789 303.891 161.402 304.048 161.962 304.27L160.681 304.666C160.228 304.518 159.696 304.427 159.085 304.393C158.474 304.357 157.887 304.425 157.322 304.6C156.823 304.754 156.507 304.951 156.374 305.189C156.242 305.425 156.29 305.686 156.521 305.972C156.751 306.255 157.161 306.544 157.75 306.84C158.352 307.143 158.978 307.375 159.628 307.537C160.281 307.698 160.917 307.783 161.537 307.792C162.16 307.799 162.726 307.725 163.232 307.569C163.565 307.466 163.813 307.345 163.976 307.207C164.139 307.069 164.214 306.919 164.199 306.759C164.184 306.599 164.074 306.435 163.869 306.268L165.15 305.872C165.538 306.126 165.774 306.389 165.857 306.663C165.94 306.934 165.857 307.196 165.606 307.449C165.356 307.699 164.924 307.919 164.309 308.109ZM172.848 305.471C172.095 305.704 171.267 305.824 170.364 305.831C169.464 305.837 168.554 305.738 167.633 305.534C166.715 305.328 165.854 305.023 165.048 304.619C164.236 304.21 163.684 303.806 163.393 303.404C163.106 303.001 163.077 302.629 163.306 302.286C163.54 301.942 164.032 301.654 164.785 301.421C165.538 301.189 166.364 301.069 167.264 301.063C168.167 301.056 169.079 301.156 170 301.363C170.924 301.569 171.793 301.876 172.605 302.284C173.411 302.689 173.955 303.092 174.239 303.493C174.527 303.893 174.554 304.265 174.321 304.608C174.092 304.951 173.601 305.239 172.848 305.471ZM171.772 304.931C172.343 304.754 172.677 304.54 172.772 304.288C172.867 304.036 172.779 303.771 172.51 303.492C172.241 303.212 171.845 302.942 171.324 302.68C170.803 302.418 170.228 302.202 169.601 302.03C168.973 301.859 168.336 301.76 167.689 301.735C167.043 301.71 166.433 301.785 165.862 301.962C165.29 302.139 164.958 302.354 164.866 302.607C164.775 302.861 164.866 303.128 165.138 303.409C165.411 303.69 165.808 303.961 166.33 304.223C166.851 304.485 167.423 304.7 168.048 304.87C168.672 305.04 169.305 305.136 169.949 305.16C170.592 305.184 171.2 305.107 171.772 304.931ZM178.419 303.618L170.621 299.701L171.902 299.305L179.701 303.223L178.419 303.618ZM169.972 298.847C169.723 298.924 169.428 298.95 169.088 298.926C168.751 298.901 168.472 298.833 168.248 298.72C168.025 298.608 167.922 298.485 167.94 298.35C167.962 298.214 168.098 298.108 168.348 298.031C168.597 297.953 168.891 297.927 169.227 297.953C169.567 297.977 169.849 298.045 170.072 298.157C170.296 298.269 170.396 298.393 170.374 298.529C170.356 298.664 170.222 298.77 169.972 298.847ZM178.637 299.745L183.328 302.102L182.047 302.498L174.249 298.58L175.486 298.198L176.705 298.81L176.813 298.776C176.613 298.517 176.591 298.266 176.749 298.022C176.904 297.777 177.296 297.557 177.925 297.362C178.49 297.188 179.092 297.089 179.732 297.067C180.369 297.044 181.023 297.105 181.695 297.252C182.364 297.397 183.03 297.636 183.693 297.969L188.648 300.458L187.367 300.854L182.493 298.406C181.881 298.098 181.233 297.911 180.551 297.844C179.866 297.776 179.226 297.833 178.633 298.017C178.224 298.143 177.941 298.298 177.785 298.48C177.632 298.662 177.623 298.861 177.756 299.078C177.89 299.295 178.183 299.517 178.637 299.745ZM192.005 299.488C191.737 299.57 191.417 299.596 191.046 299.565C190.675 299.535 190.364 299.456 190.114 299.33C189.863 299.205 189.744 299.067 189.756 298.918C189.769 298.768 189.909 298.652 190.177 298.569C190.445 298.487 190.764 298.461 191.135 298.492C191.507 298.522 191.817 298.601 192.068 298.727C192.234 298.81 192.341 298.9 192.389 298.998C192.441 299.095 192.435 299.187 192.371 299.275C192.308 299.361 192.186 299.432 192.005 299.488ZM186.217 296.58C185.949 296.663 185.629 296.689 185.258 296.658C184.887 296.627 184.576 296.549 184.325 296.423C184.075 296.297 183.956 296.159 183.968 296.01C183.981 295.861 184.121 295.745 184.389 295.662C184.657 295.579 184.976 295.553 185.347 295.584C185.718 295.615 186.029 295.693 186.28 295.819C186.446 295.902 186.553 295.993 186.601 296.091C186.653 296.187 186.647 296.28 186.583 296.368C186.52 296.454 186.397 296.524 186.217 296.58Z" fill="#0C0B0D"/>
<path d="M112.266 351.864L109.523 350.321L108.537 351.966L105.648 351.4L107.196 349.872L103.059 350.1L102.353 348.86L106.644 348.875L103.493 347.457L105.683 346.781L108.419 348.327L109.405 346.681L112.293 347.247L110.754 348.773L114.883 348.548L115.589 349.788L111.298 349.773L114.457 351.188L112.266 351.864ZM125.21 347.866L122.466 346.323L121.48 347.968L118.592 347.402L120.139 345.874L116.002 346.101L115.296 344.861L119.587 344.877L116.436 343.459L118.627 342.782L121.362 344.328L122.348 342.683L125.237 343.249L123.698 344.774L127.826 344.549L128.532 345.789L124.241 345.774L127.4 347.189L125.21 347.866ZM138.153 343.868L135.409 342.324L134.424 343.969L131.535 343.404L133.082 341.875L128.946 342.103L128.24 340.863L132.531 340.878L129.38 339.46L131.57 338.784L134.306 340.33L135.291 338.685L138.18 339.25L136.641 340.776L140.769 340.551L141.476 341.791L137.185 341.776L140.344 343.191L138.153 343.868ZM151.097 339.869L148.353 338.326L147.367 339.971L144.479 339.405L146.026 337.877L141.889 338.105L141.183 336.865L145.474 336.88L142.323 335.462L144.514 334.785L147.249 336.331L148.235 334.686L151.123 335.252L149.584 336.778L153.713 336.553L154.419 337.793L150.128 337.777L153.287 339.193L151.097 339.869ZM164.04 335.871L161.296 334.327L160.31 335.973L157.422 335.407L158.969 333.879L154.833 334.106L154.126 332.866L158.417 332.881L155.266 331.464L157.457 330.787L160.193 332.333L161.178 330.688L164.067 331.254L162.528 332.779L166.656 332.554L167.362 333.794L163.071 333.779L166.23 335.194L164.04 335.871ZM185.181 334.876L169.584 327.041L176.261 324.978C177.488 324.599 178.681 324.368 179.841 324.286C181.001 324.204 182.09 324.251 183.106 324.427C184.118 324.6 185.015 324.883 185.797 325.276C186.406 325.582 186.811 325.891 187.013 326.204C187.209 326.514 187.227 326.813 187.065 327.102C186.904 327.387 186.594 327.649 186.135 327.89L186.287 327.966C186.948 327.783 187.71 327.684 188.573 327.668C189.442 327.651 190.329 327.729 191.235 327.902C192.136 328.073 192.97 328.351 193.737 328.736C194.564 329.152 195.083 329.591 195.293 330.053C195.504 330.511 195.371 330.966 194.894 331.418C194.418 331.87 193.555 332.289 192.306 332.675L185.181 334.876ZM186.011 332.432L188.886 331.544C189.868 331.241 190.41 330.931 190.51 330.616C190.605 330.298 190.358 329.992 189.769 329.696C189.338 329.479 188.846 329.322 188.293 329.225C187.74 329.128 187.164 329.096 186.563 329.129C185.968 329.161 185.389 329.263 184.824 329.438L181.868 330.351L186.011 332.432ZM179.637 329.23L182.251 328.423C182.734 328.273 183.084 328.101 183.301 327.907C183.519 327.708 183.589 327.501 183.511 327.286C183.439 327.069 183.198 326.857 182.787 326.651C182.223 326.368 181.554 326.206 180.78 326.165C180.011 326.122 179.236 326.221 178.454 326.463L175.775 327.291L179.637 329.23ZM186.828 323.919L184.109 322.554L197.806 318.323L200.525 319.688L195.419 321.266L208.297 327.735L204.812 328.811L191.934 322.342L186.828 323.919ZM219.475 316.058L215.908 317.16C215.412 316.964 214.895 316.812 214.359 316.706C213.818 316.597 213.271 316.531 212.717 316.509C212.164 316.486 211.617 316.507 211.078 316.57C210.544 316.632 210.038 316.737 209.56 316.885C208.697 317.151 208.146 317.484 207.906 317.884C207.662 318.281 207.744 318.725 208.153 319.216C208.556 319.705 209.299 320.221 210.38 320.765C211.492 321.323 212.603 321.738 213.712 322.009C214.827 322.278 215.898 322.411 216.924 322.407C217.95 322.403 218.884 322.271 219.726 322.011C220.198 321.865 220.577 321.701 220.862 321.518C221.152 321.334 221.343 321.137 221.434 320.927C221.521 320.715 221.505 320.496 221.386 320.269C221.273 320.04 221.049 319.809 220.714 319.574L224.296 318.48C224.919 318.868 225.379 319.286 225.675 319.734C225.971 320.178 226.072 320.627 225.976 321.081C225.88 321.531 225.559 321.964 225.011 322.38C224.464 322.792 223.655 323.163 222.586 323.494C221.098 323.953 219.453 324.206 217.651 324.252C215.855 324.296 214.02 324.124 212.149 323.734C210.282 323.343 208.501 322.721 206.805 321.869C205.105 321.015 204 320.182 203.49 319.371C202.981 318.561 203.001 317.818 203.549 317.142C204.092 316.463 205.096 315.897 206.562 315.445C207.528 315.146 208.551 314.933 209.63 314.806C210.714 314.677 211.821 314.636 212.949 314.683C214.072 314.727 215.184 314.863 216.287 315.091C217.394 315.317 218.457 315.64 219.475 316.058Z" fill="#0C0B0D"/>
<path d="M137.736 366.602L135.713 365.544L134.902 366.674L133.973 366.492L134.939 365.39L131.992 365.497L131.766 365.098L134.745 365.057L132.618 364.031L133.33 363.811L135.353 364.869L136.164 363.739L137.093 363.921L136.127 365.023L139.075 364.916L139.301 365.315L136.321 365.356L138.448 366.382L137.736 366.602ZM144.424 364.536L142.401 363.478L141.59 364.608L140.661 364.426L141.627 363.324L138.68 363.431L138.454 363.032L141.433 362.991L139.306 361.965L140.019 361.745L142.041 362.803L142.852 361.673L143.781 361.855L142.815 362.957L145.763 362.85L145.989 363.249L143.009 363.29L145.136 364.316L144.424 364.536ZM151.112 362.47L149.09 361.411L148.278 362.541L147.349 362.36L148.316 361.258L145.368 361.365L145.142 360.966L148.121 360.925L145.994 359.899L146.707 359.679L148.729 360.737L149.54 359.607L150.469 359.789L149.503 360.891L152.451 360.784L152.677 361.183L149.698 361.224L151.825 362.25L151.112 362.47ZM157.8 360.404L155.778 359.345L154.966 360.475L154.037 360.294L155.004 359.192L152.056 359.299L151.83 358.9L154.809 358.859L152.682 357.833L153.395 357.613L155.417 358.671L156.229 357.541L157.158 357.723L156.191 358.825L159.139 358.718L159.365 359.117L156.386 359.158L158.513 360.184L157.8 360.404ZM164.488 358.338L162.466 357.279L161.655 358.409L160.726 358.228L161.692 357.126L158.744 357.233L158.518 356.834L161.497 356.793L159.37 355.767L160.083 355.547L162.105 356.605L162.917 355.475L163.846 355.657L162.879 356.759L165.827 356.652L166.053 357.051L163.074 357.092L165.201 358.118L164.488 358.338ZM171.176 356.272L169.154 355.213L168.343 356.343L167.414 356.162L168.38 355.06L165.432 355.166L165.206 354.768L168.186 354.727L166.059 353.701L166.771 353.481L168.794 354.539L169.605 353.409L170.534 353.59L169.568 354.693L172.515 354.586L172.741 354.984L169.762 355.025L171.889 356.051L171.176 356.272ZM177.865 354.206L175.842 353.147L175.031 354.277L174.102 354.096L175.068 352.993L172.12 353.1L171.894 352.702L174.874 352.661L172.747 351.635L173.459 351.415L175.482 352.473L176.293 351.343L177.222 351.524L176.256 352.627L179.203 352.52L179.429 352.918L176.45 352.959L178.577 353.985L177.865 354.206ZM187.985 346.927L188.873 346.653L194.898 349.679C195.517 349.99 195.915 350.316 196.094 350.657C196.269 350.997 196.22 351.323 195.947 351.636C195.675 351.946 195.173 352.214 194.441 352.44C193.713 352.665 192.931 352.792 192.095 352.822C191.26 352.852 190.444 352.793 189.648 352.645C188.852 352.497 188.144 352.267 187.525 351.956L181.501 348.93L182.389 348.656L188.356 351.653C188.839 351.895 189.385 352.076 189.995 352.195C190.603 352.313 191.223 352.361 191.858 352.341C192.495 352.319 193.096 352.221 193.659 352.047C194.223 351.873 194.607 351.667 194.812 351.428C195.017 351.189 195.046 350.94 194.898 350.681C194.75 350.419 194.434 350.167 193.951 349.924L187.985 346.927ZM199.012 345.366C198.451 345.128 197.81 345 197.086 344.981C196.363 344.962 195.679 345.051 195.037 345.25C194.584 345.39 194.257 345.55 194.057 345.729C193.86 345.908 193.793 346.092 193.854 346.282C193.916 346.47 194.109 346.645 194.435 346.809C194.675 346.929 194.941 347.018 195.232 347.074C195.524 347.131 195.828 347.163 196.145 347.171C196.462 347.176 196.781 347.167 197.101 347.142C197.424 347.117 197.734 347.084 198.03 347.043L199.332 346.864C199.722 346.808 200.134 346.764 200.569 346.73C201.004 346.697 201.444 346.688 201.89 346.704C202.337 346.718 202.774 346.769 203.201 346.858C203.629 346.944 204.032 347.083 204.412 347.273C204.897 347.517 205.2 347.778 205.318 348.056C205.437 348.334 205.359 348.609 205.083 348.879C204.805 349.147 204.314 349.39 203.611 349.607C202.949 349.812 202.272 349.938 201.58 349.986C200.885 350.032 200.216 350.007 199.574 349.91C198.931 349.813 198.352 349.65 197.837 349.42L198.749 349.138C199.139 349.308 199.569 349.421 200.04 349.478C200.51 349.534 200.988 349.541 201.473 349.497C201.955 349.451 202.415 349.361 202.852 349.226C203.336 349.076 203.691 348.905 203.917 348.713C204.143 348.518 204.227 348.319 204.17 348.116C204.113 347.91 203.903 347.715 203.538 347.532C203.23 347.378 202.887 347.274 202.509 347.223C202.128 347.17 201.712 347.156 201.263 347.179C200.817 347.202 200.338 347.248 199.826 347.317L198.343 347.516C197.366 347.644 196.479 347.679 195.682 347.62C194.885 347.561 194.194 347.385 193.611 347.092C193.122 346.847 192.832 346.588 192.74 346.316C192.649 346.042 192.739 345.778 193.01 345.527C193.281 345.272 193.716 345.053 194.314 344.868C194.919 344.681 195.558 344.568 196.231 344.528C196.903 344.488 197.558 344.518 198.195 344.617C198.832 344.713 199.391 344.874 199.872 345.101L199.012 345.366ZM211.816 346.947L208.966 347.827L199.867 343.257L202.889 342.323C203.816 342.037 204.79 341.882 205.81 341.861C206.834 341.838 207.859 341.941 208.885 342.172C209.912 342.403 210.898 342.755 211.843 343.23C212.796 343.709 213.435 344.176 213.758 344.631C214.081 345.084 214.081 345.508 213.759 345.903C213.439 346.297 212.791 346.645 211.816 346.947ZM209.108 347.178L211.017 346.588C211.853 346.33 212.399 346.036 212.655 345.707C212.911 345.378 212.893 345.027 212.604 344.653C212.314 344.278 211.774 343.893 210.983 343.495C210.195 343.102 209.38 342.806 208.539 342.607C207.701 342.407 206.862 342.314 206.021 342.329C205.184 342.342 204.371 342.471 203.583 342.714L201.502 343.357L209.108 347.178Z" fill="#0C0B0D"/>
<g clip-path="url(#clip0_3692_13082)">
<path d="M283.826 267.413L282.035 267.178C281.594 266.888 280.976 266.681 280.179 266.555C279.382 266.43 278.765 266.475 278.329 266.692L276.538 266.457C276.609 266.362 276.704 266.278 276.824 266.205C276.944 266.132 277.099 266.066 277.287 266.008C277.993 265.79 278.887 265.751 279.967 265.893C281.048 266.035 282.008 266.317 282.845 266.737C283.069 266.85 283.259 266.961 283.417 267.07C283.575 267.18 283.711 267.294 283.826 267.413ZM287.745 267.915L285.987 267.697C286.021 267.424 285.984 267.147 285.877 266.868C285.769 266.588 285.568 266.295 285.275 265.987C283.676 265.566 282.104 265.324 280.559 265.262C279.014 265.2 277.7 265.337 276.617 265.671C276.344 265.755 276.098 265.85 275.879 265.953C275.66 266.057 275.468 266.171 275.303 266.294L273.388 266.043C273.585 265.829 273.838 265.635 274.148 265.462C274.458 265.289 274.834 265.135 275.276 264.998C276.698 264.559 278.431 264.402 280.475 264.527C282.519 264.652 284.533 265.011 286.518 265.603C286.96 266.001 287.287 266.396 287.498 266.788C287.709 267.181 287.791 267.556 287.745 267.915ZM292.149 269.898L286.995 269.234C286.788 269.398 286.548 269.547 286.275 269.681C286.002 269.815 285.687 269.937 285.329 270.048C283.907 270.487 282.175 270.644 280.131 270.519C278.087 270.393 276.073 270.035 274.088 269.443C273.694 269.084 273.393 268.731 273.186 268.382C272.979 268.034 272.868 267.699 272.852 267.378L269.422 266.915L269.274 266.2L292.002 269.183L292.149 269.898ZM274.581 267.605C274.598 267.835 274.667 268.072 274.788 268.316C274.908 268.56 275.089 268.807 275.331 269.059C276.93 269.48 278.502 269.721 280.047 269.783C281.592 269.845 282.906 269.709 283.989 269.374C284.177 269.316 284.347 269.252 284.498 269.183C284.649 269.114 284.802 269.042 284.957 268.967L283.811 268.804C283.741 268.853 283.668 268.896 283.59 268.933C283.513 268.971 283.422 269.006 283.319 269.038C282.612 269.256 281.719 269.294 280.638 269.152C279.557 269.01 278.598 268.729 277.76 268.308C277.638 268.246 277.527 268.185 277.43 268.125C277.332 268.064 277.236 267.999 277.141 267.928L274.581 267.605Z" fill="#0C0B0D"/>
</g>
<rect width="116.949" height="55" rx="25" transform="matrix(0.95545 -0.295154 0.893595 0.448873 231.326 373.539)" fill="#212121"/>
<g clip-path="url(#clip1_3692_13082)">
<path d="M284.95 382.346L282.597 382.058L281.359 374.031L276.166 375.635L274.379 374.738L282.248 372.307L291.184 376.796L289.61 377.282L283.712 374.319L284.95 382.346Z" fill="#D1D2D2"/>
</g>
<g clip-path="url(#clip2_3692_13082)">
<path d="M341.185 364.249L332.249 359.76L333.823 359.274L339.72 362.236L338.483 354.21L340.835 354.498L342.073 362.524L347.267 360.92L349.054 361.818L341.185 364.249Z" fill="#D1D2D2"/>
</g>
<g filter="url(#filter1_d_3692_13082)">
<rect width="258.606" height="187" rx="20" transform="matrix(0.95545 -0.295154 0.893595 0.448873 7 286.328)" fill="#FFA726"/>
</g>
<path d="M55.1117 294.861C54.532 294.623 53.8684 294.504 53.1209 294.504C52.3733 294.505 51.6629 294.609 50.9898 294.817C50.4976 294.969 50.1414 295.139 49.9211 295.328C49.7045 295.516 49.6234 295.707 49.6778 295.902C49.7357 296.095 49.9306 296.275 50.2623 296.442C50.5398 296.581 50.849 296.679 51.1899 296.736C51.531 296.79 51.8797 296.815 52.2361 296.812C52.5891 296.808 52.931 296.789 53.2617 296.755C53.589 296.72 53.8812 296.683 54.1383 296.645L55.5518 296.439C55.9124 296.385 56.3327 296.335 56.8126 296.288C57.2961 296.24 57.809 296.221 58.3514 296.229C58.894 296.234 59.4396 296.288 59.9882 296.391C60.5368 296.493 61.0549 296.666 61.5423 296.911C62.1042 297.194 62.4545 297.497 62.5932 297.822C62.7355 298.146 62.64 298.468 62.3066 298.788C61.9768 299.107 61.3849 299.398 60.5308 299.662C59.7346 299.908 58.925 300.061 58.102 300.12C57.2826 300.178 56.4915 300.151 55.7286 300.038C54.9694 299.923 54.2838 299.73 53.6717 299.458L55.0614 299.029C55.4903 299.215 55.9564 299.334 56.4597 299.388C56.9633 299.438 57.4677 299.436 57.9729 299.381C58.4784 299.324 58.9519 299.227 59.3935 299.091C59.9074 298.932 60.291 298.75 60.5442 298.546C60.7941 298.34 60.898 298.129 60.8559 297.914C60.8105 297.698 60.5982 297.494 60.2191 297.304C59.8738 297.13 59.4897 297.021 59.0668 296.976C58.6439 296.931 58.1965 296.926 57.7245 296.962C57.2525 296.998 56.7703 297.051 56.2779 297.121L54.5443 297.36C53.4422 297.511 52.4211 297.556 51.4812 297.494C50.5413 297.433 49.721 297.227 49.0203 296.875C48.4381 296.582 48.0987 296.275 48.002 295.954C47.9056 295.629 48.0231 295.318 48.3546 295.021C48.6863 294.721 49.2069 294.461 49.9162 294.242C50.6328 294.021 51.3899 293.884 52.1876 293.833C52.9819 293.78 53.7484 293.807 54.487 293.913C55.2293 294.019 55.8718 294.201 56.4146 294.459L55.1117 294.861ZM69.0416 297.033C68.5132 297.196 67.9406 297.298 67.3238 297.337C66.7035 297.375 66.089 297.344 65.4803 297.244C64.8682 297.142 64.3082 296.963 63.8005 296.708C63.3537 296.484 63.0856 296.273 62.9963 296.075C62.9035 295.876 62.935 295.688 63.0908 295.51C63.2466 295.333 63.4756 295.166 63.7777 295.01C64.0801 294.851 64.4012 294.699 64.7411 294.556C65.1868 294.369 65.5519 294.219 65.8363 294.106C66.121 293.991 66.2967 293.891 66.3636 293.807C66.4342 293.722 66.373 293.631 66.18 293.535L66.1394 293.514C65.6385 293.263 65.1026 293.112 64.5319 293.063C63.9649 293.013 63.3863 293.08 62.7964 293.262C62.1848 293.451 61.8305 293.662 61.7335 293.895C61.6366 294.128 61.6597 294.338 61.8029 294.524L60.1807 294.696C59.9239 294.391 59.8445 294.116 59.9424 293.872C60.0405 293.624 60.2525 293.408 60.5782 293.222C60.9042 293.034 61.2771 292.874 61.6969 292.745C61.9647 292.662 62.3028 292.582 62.7112 292.506C63.1198 292.426 63.5783 292.382 64.0869 292.373C64.599 292.363 65.1481 292.417 65.7342 292.535C66.3203 292.654 66.923 292.868 67.5425 293.18L72.6806 295.761L71.3995 296.156L70.3434 295.626L70.2782 295.646C70.3606 295.758 70.3969 295.894 70.3872 296.053C70.3775 296.213 70.272 296.378 70.0708 296.55C69.8696 296.722 69.5266 296.883 69.0416 297.033ZM68.1607 296.432C68.6673 296.275 69.0013 296.097 69.1626 295.896C69.3275 295.694 69.3513 295.492 69.2342 295.289C69.1207 295.085 68.9014 294.902 68.5765 294.738L67.4798 294.187C67.4865 294.235 67.4229 294.3 67.2891 294.382C67.1555 294.462 66.9879 294.548 66.7863 294.641C66.5849 294.73 66.3855 294.817 66.1882 294.899C65.9912 294.98 65.8323 295.045 65.7117 295.096C65.4194 295.219 65.1741 295.349 64.976 295.484C64.7781 295.617 64.6802 295.755 64.6822 295.9C64.6845 296.042 64.838 296.19 65.1426 296.343C65.5589 296.552 66.0384 296.659 66.581 296.665C67.1238 296.667 67.6504 296.59 68.1607 296.432ZM65.902 289.419L76.3002 294.642L75.019 295.038L64.6208 289.815L65.902 289.419ZM81.9579 293.027C81.263 293.241 80.4854 293.348 79.6251 293.348C78.7613 293.345 77.878 293.239 76.9751 293.029C76.0689 292.818 75.2028 292.505 74.3769 292.09C73.5577 291.678 72.9971 291.275 72.695 290.879C72.3929 290.484 72.3455 290.121 72.5528 289.791C72.7601 289.46 73.2148 289.187 73.9169 288.97C74.4598 288.802 74.9733 288.712 75.4574 288.7C75.9417 288.685 76.3738 288.705 76.7535 288.761C77.1334 288.814 77.4382 288.86 77.6677 288.898L77.7762 288.865L73.9378 286.937L75.219 286.541L85.6172 291.764L84.3795 292.147L83.1812 291.545L83.0292 291.592C83.0773 291.692 83.1228 291.824 83.1657 291.986C83.2052 292.147 83.1485 292.32 82.9957 292.504C82.8394 292.687 82.4935 292.861 81.9579 293.027ZM81.0552 292.432C81.5691 292.273 81.8782 292.076 81.9824 291.841C82.0832 291.604 82.0025 291.345 81.7403 291.063C81.4747 290.78 81.0474 290.49 80.4584 290.195C79.8762 289.902 79.2763 289.674 78.6587 289.511C78.0377 289.346 77.4281 289.257 76.8297 289.244C76.2279 289.229 75.6665 289.302 75.1453 289.463C74.6024 289.631 74.2804 289.836 74.1791 290.079C74.078 290.319 74.1587 290.578 74.4212 290.857C74.6839 291.133 75.0894 291.408 75.6377 291.684C76.1929 291.963 76.7877 292.188 77.4222 292.36C78.057 292.529 78.6872 292.625 79.3129 292.649C79.9388 292.67 80.5196 292.598 81.0552 292.432ZM91.6915 290.02C90.9387 290.252 90.1107 290.372 89.2074 290.379C88.3077 290.385 87.3974 290.286 86.4764 290.082C85.559 289.877 84.6976 289.572 83.892 289.167C83.0796 288.759 82.5279 288.354 82.2369 287.952C81.9495 287.55 81.9205 287.177 82.15 286.834C82.3831 286.49 82.8761 286.202 83.6289 285.97C84.3816 285.737 85.2079 285.618 86.1075 285.612C87.0108 285.604 87.9229 285.704 88.8436 285.911C89.768 286.117 90.6363 286.424 91.4487 286.833C92.2543 287.237 92.7991 287.64 93.0831 288.041C93.3708 288.441 93.398 288.813 93.1649 289.157C92.9354 289.499 92.4443 289.787 91.6915 290.02ZM90.6151 289.479C91.187 289.302 91.5204 289.088 91.6153 288.836C91.7103 288.585 91.6231 288.319 91.3536 288.04C91.0842 287.761 90.6888 287.49 90.1675 287.228C89.6463 286.966 89.0719 286.75 88.4444 286.578C87.8168 286.407 87.1797 286.309 86.533 286.283C85.8863 286.258 85.277 286.334 84.7052 286.51C84.1334 286.687 83.8017 286.902 83.7101 287.155C83.6185 287.409 83.7091 287.676 83.982 287.957C84.2548 288.238 84.6519 288.509 85.1731 288.771C85.6944 289.033 86.2671 289.249 86.8912 289.418C87.5154 289.588 88.1491 289.685 88.7924 289.708C89.4357 289.732 90.0433 289.656 90.6151 289.479ZM105.221 285.84C104.418 286.088 103.559 286.219 102.644 286.232C101.73 286.243 100.816 286.146 99.9022 285.943C98.9885 285.736 98.1322 285.432 97.3334 285.031C96.5345 284.63 95.9861 284.228 95.6881 283.826C95.3903 283.421 95.351 283.046 95.5701 282.701C95.7894 282.353 96.2754 282.063 97.0282 281.83C97.4625 281.696 97.9591 281.598 98.5179 281.535C99.0767 281.472 99.6822 281.464 100.334 281.509C100.983 281.553 101.659 281.668 102.363 281.855C103.067 282.041 103.783 282.317 104.51 282.682L105.018 282.937L98.5906 284.923L97.5549 284.403L102.68 282.819C102.24 282.598 101.753 282.43 101.219 282.315C100.69 282.199 100.153 282.143 99.6093 282.149C99.0694 282.154 98.5678 282.228 98.1046 282.371C97.5943 282.529 97.2712 282.725 97.1354 282.959C96.9998 283.19 97.0203 283.431 97.197 283.681C97.3737 283.931 97.6769 284.164 98.1068 284.38L98.7973 284.727C99.3863 285.023 99.9941 285.24 100.621 285.379C101.248 285.515 101.863 285.576 102.467 285.562C103.068 285.547 103.627 285.459 104.145 285.299C104.481 285.195 104.741 285.079 104.925 284.951C105.108 284.821 105.21 284.679 105.23 284.528C105.246 284.374 105.173 284.213 105.011 284.043L106.574 283.824C106.836 284.062 106.962 284.303 106.952 284.547C106.939 284.79 106.789 285.023 106.503 285.246C106.213 285.468 105.786 285.666 105.221 285.84ZM110.46 284.09L102.662 280.172L103.899 279.79L105.118 280.402L105.226 280.369C104.984 280.106 104.941 279.857 105.098 279.622C105.252 279.385 105.6 279.182 106.143 279.015C106.693 278.845 107.268 278.762 107.867 278.766C108.466 278.768 109.077 278.841 109.7 278.987L109.787 278.96C109.597 278.692 109.598 278.432 109.788 278.181C109.975 277.928 110.367 277.71 110.964 277.525C111.709 277.295 112.537 277.216 113.448 277.289C114.355 277.36 115.268 277.626 116.185 278.087L121.404 280.709L120.123 281.105L114.904 278.483C114.328 278.194 113.749 278.039 113.165 278.019C112.582 277.999 112.062 278.059 111.606 278.2C111.019 278.381 110.731 278.605 110.741 278.871C110.747 279.136 111.002 279.394 111.507 279.648L116.584 282.198L115.281 282.601L109.94 279.918C109.496 279.695 108.985 279.563 108.407 279.522C107.825 279.479 107.292 279.533 106.807 279.683C106.474 279.786 106.246 279.923 106.122 280.096C106.002 280.268 106 280.455 106.117 280.658C106.235 280.858 106.485 281.054 106.867 281.246L111.741 283.694L110.46 284.09ZM128.22 278.604L117.822 273.38L121.709 272.18C122.483 271.94 123.247 271.806 124.001 271.776C124.751 271.745 125.459 271.797 126.125 271.932C126.787 272.065 127.372 272.259 127.88 272.514C128.327 272.738 128.611 272.95 128.732 273.149C128.857 273.346 128.866 273.53 128.76 273.7C128.658 273.869 128.488 274.023 128.251 274.162L128.352 274.213C128.713 274.118 129.167 274.069 129.714 274.065C130.261 274.06 130.839 274.118 131.45 274.237C132.061 274.355 132.64 274.553 133.189 274.828C133.71 275.09 134.052 275.365 134.215 275.652C134.378 275.939 134.308 276.229 134.005 276.52C133.703 276.811 133.113 277.092 132.237 277.363L128.22 278.604ZM128.45 277.627L131.12 276.801C132 276.53 132.465 276.257 132.516 275.983C132.567 275.706 132.364 275.453 131.907 275.224C131.555 275.047 131.135 274.913 130.645 274.823C130.152 274.731 129.638 274.695 129.104 274.714C128.567 274.732 128.056 274.816 127.571 274.965L124.835 275.811L128.45 277.627ZM123.738 275.26L126.235 274.488C126.64 274.363 126.931 274.213 127.108 274.037C127.289 273.861 127.339 273.675 127.26 273.48C127.185 273.283 126.965 273.093 126.599 272.91C126.142 272.68 125.584 272.538 124.926 272.483C124.264 272.427 123.564 272.513 122.826 272.741L120.285 273.525L123.738 275.26ZM137.989 275.586L130.19 271.668L131.472 271.273L139.27 275.19L137.989 275.586ZM129.542 270.814C129.292 270.891 128.998 270.918 128.658 270.894C128.321 270.869 128.041 270.8 127.818 270.688C127.594 270.576 127.492 270.452 127.51 270.317C127.532 270.182 127.668 270.075 127.917 269.998C128.167 269.921 128.46 269.895 128.797 269.92C129.137 269.944 129.418 270.012 129.642 270.124C129.865 270.237 129.966 270.361 129.944 270.496C129.926 270.631 129.792 270.737 129.542 270.814ZM137.445 269.427L138.46 269.938L134.139 271.272L133.123 270.762L137.445 269.427ZM132.514 269.435L133.796 269.039L141.229 272.773C141.567 272.943 141.873 273.054 142.148 273.107C142.422 273.156 142.671 273.17 142.895 273.148C143.12 273.122 143.326 273.08 143.514 273.022C143.655 272.979 143.764 272.94 143.841 272.905C143.915 272.868 143.974 272.839 144.018 272.817L145.355 273.278C145.298 273.32 145.207 273.372 145.082 273.436C144.961 273.501 144.78 273.57 144.541 273.644C144.179 273.756 143.752 273.829 143.259 273.863C142.77 273.896 142.262 273.873 141.736 273.794C141.214 273.714 140.726 273.56 140.272 273.332L132.514 269.435ZM150.631 271.812C149.849 272.054 149.003 272.175 148.093 272.176C147.184 272.177 146.274 272.072 145.364 271.862C144.454 271.651 143.61 271.351 142.831 270.96C142.039 270.562 141.496 270.163 141.201 269.762C140.907 269.359 140.869 268.985 141.088 268.64C141.308 268.292 141.794 268.002 142.546 267.769C143.133 267.588 143.763 267.476 144.436 267.432C145.11 267.389 145.78 267.413 146.446 267.504C147.111 267.594 147.724 267.751 148.284 267.974L147.003 268.369C146.55 268.221 146.018 268.13 145.407 268.096C144.797 268.06 144.209 268.129 143.645 268.303C143.145 268.457 142.829 268.654 142.696 268.892C142.564 269.128 142.613 269.389 142.843 269.675C143.073 269.958 143.483 270.248 144.072 270.543C144.674 270.846 145.3 271.078 145.95 271.24C146.603 271.401 147.239 271.486 147.859 271.495C148.483 271.503 149.048 271.428 149.554 271.272C149.887 271.169 150.135 271.048 150.299 270.91C150.462 270.772 150.536 270.623 150.521 270.462C150.506 270.302 150.396 270.138 150.192 269.971L151.473 269.575C151.861 269.829 152.096 270.092 152.179 270.366C152.262 270.637 152.179 270.899 151.929 271.152C151.679 271.402 151.246 271.622 150.631 271.812ZM159.17 269.174C158.417 269.407 157.589 269.527 156.686 269.534C155.786 269.54 154.876 269.441 153.955 269.237C153.038 269.031 152.176 268.726 151.371 268.322C150.558 267.914 150.007 267.509 149.716 267.107C149.428 266.704 149.399 266.332 149.629 265.989C149.862 265.645 150.355 265.357 151.107 265.124C151.86 264.892 152.687 264.773 153.586 264.766C154.489 264.759 155.402 264.859 156.322 265.066C157.247 265.272 158.115 265.579 158.927 265.987C159.733 266.392 160.278 266.795 160.562 267.196C160.849 267.596 160.877 267.968 160.644 268.311C160.414 268.654 159.923 268.942 159.17 269.174ZM158.094 268.634C158.666 268.457 158.999 268.243 159.094 267.991C159.189 267.739 159.102 267.474 158.832 267.195C158.563 266.915 158.167 266.645 157.646 266.383C157.125 266.121 156.551 265.905 155.923 265.733C155.295 265.562 154.658 265.464 154.012 265.438C153.365 265.413 152.756 265.488 152.184 265.665C151.612 265.842 151.28 266.057 151.189 266.31C151.097 266.564 151.188 266.831 151.461 267.112C151.733 267.393 152.131 267.664 152.652 267.926C153.173 268.188 153.746 268.404 154.37 268.573C154.994 268.743 155.628 268.839 156.271 268.863C156.914 268.887 157.522 268.81 158.094 268.634ZM164.742 267.321L156.943 263.404L158.224 263.008L166.023 266.926L164.742 267.321ZM156.295 262.55C156.045 262.627 155.75 262.654 155.41 262.63C155.074 262.604 154.794 262.536 154.57 262.424C154.347 262.311 154.244 262.188 154.263 262.053C154.285 261.917 154.42 261.811 154.67 261.734C154.92 261.657 155.213 261.631 155.549 261.656C155.889 261.68 156.171 261.748 156.394 261.86C156.618 261.972 156.719 262.096 156.697 262.232C156.678 262.367 156.544 262.473 156.295 262.55ZM164.959 263.448L169.651 265.805L168.369 266.201L160.571 262.283L161.809 261.901L163.027 262.513L163.136 262.48C162.935 262.22 162.914 261.969 163.071 261.725C163.226 261.48 163.618 261.26 164.248 261.065C164.812 260.891 165.415 260.793 166.055 260.771C166.691 260.747 167.346 260.808 168.017 260.955C168.686 261.1 169.352 261.339 170.015 261.672L174.971 264.162L173.69 264.557L168.815 262.109C168.203 261.801 167.555 261.614 166.873 261.547C166.188 261.479 165.548 261.537 164.955 261.72C164.546 261.846 164.263 262.001 164.107 262.184C163.954 262.365 163.945 262.565 164.079 262.781C164.212 262.998 164.506 263.221 164.959 263.448ZM178.327 263.191C178.059 263.273 177.74 263.299 177.368 263.269C176.997 263.238 176.686 263.159 176.436 263.034C176.185 262.908 176.066 262.77 176.079 262.621C176.091 262.471 176.231 262.355 176.499 262.273C176.767 262.19 177.086 262.164 177.458 262.195C177.829 262.226 178.14 262.304 178.39 262.43C178.556 262.513 178.663 262.604 178.711 262.701C178.763 262.798 178.757 262.89 178.694 262.979C178.63 263.064 178.508 263.135 178.327 263.191ZM172.539 260.283C172.271 260.366 171.951 260.392 171.58 260.361C171.209 260.33 170.898 260.252 170.648 260.126C170.397 260 170.278 259.863 170.291 259.713C170.303 259.564 170.443 259.448 170.711 259.365C170.979 259.282 171.298 259.256 171.67 259.287C172.041 259.318 172.352 259.396 172.602 259.522C172.768 259.606 172.875 259.696 172.923 259.794C172.975 259.89 172.969 259.983 172.906 260.071C172.842 260.157 172.72 260.227 172.539 260.283Z" fill="#0C0B0D"/>
<path d="M98.5887 315.568L95.845 314.024L94.8593 315.669L91.9707 315.104L93.518 313.575L89.3813 313.803L88.6752 312.563L92.9662 312.578L89.8152 311.16L92.0057 310.484L94.7413 312.03L95.727 310.384L98.6155 310.95L97.0765 312.476L101.205 312.251L101.911 313.491L97.6201 313.476L100.779 314.891L98.5887 315.568ZM111.532 311.569L108.788 310.026L107.803 311.671L104.914 311.105L106.461 309.577L102.325 309.804L101.619 308.565L105.91 308.58L102.759 307.162L104.949 306.485L107.685 308.031L108.67 306.386L111.559 306.952L110.02 308.478L114.148 308.253L114.854 309.492L110.563 309.477L113.723 310.892L111.532 311.569ZM124.475 307.571L121.732 306.027L120.746 307.673L117.857 307.107L119.405 305.578L115.268 305.806L114.562 304.566L118.853 304.581L115.702 303.164L117.892 302.487L120.628 304.033L121.614 302.388L124.502 302.953L122.963 304.479L127.092 304.254L127.798 305.494L123.507 305.479L126.666 306.894L124.475 307.571ZM137.419 303.572L134.675 302.029L133.689 303.674L130.801 303.108L132.348 301.58L128.211 301.808L127.505 300.568L131.796 300.583L128.645 299.165L130.836 298.489L133.571 300.034L134.557 298.389L137.446 298.955L135.907 300.481L140.035 300.256L140.741 301.496L136.45 301.481L139.609 302.896L137.419 303.572ZM150.362 299.574L147.618 298.031L146.633 299.676L143.744 299.11L145.291 297.582L141.155 297.809L140.449 296.569L144.74 296.584L141.589 295.167L143.779 294.49L146.515 296.036L147.5 294.391L150.389 294.957L148.85 296.482L152.978 296.257L153.685 297.497L149.394 297.482L152.553 298.897L150.362 299.574ZM171.503 298.579L155.906 290.744L162.583 288.681C163.81 288.302 165.004 288.072 166.164 287.989C167.324 287.907 168.412 287.954 169.429 288.13C170.44 288.303 171.337 288.586 172.119 288.979C172.728 289.285 173.134 289.594 173.335 289.907C173.532 290.217 173.549 290.516 173.387 290.805C173.226 291.09 172.916 291.352 172.457 291.593L172.609 291.67C173.27 291.486 174.032 291.387 174.895 291.371C175.764 291.354 176.652 291.432 177.558 291.605C178.458 291.776 179.292 292.054 180.059 292.439C180.886 292.855 181.405 293.294 181.616 293.756C181.826 294.214 181.693 294.669 181.216 295.121C180.74 295.573 179.877 295.992 178.629 296.378L171.503 298.579ZM172.333 296.135L175.208 295.247C176.19 294.944 176.732 294.634 176.832 294.319C176.927 294.002 176.68 293.695 176.091 293.399C175.66 293.182 175.168 293.025 174.615 292.928C174.063 292.831 173.486 292.799 172.886 292.832C172.291 292.864 171.711 292.967 171.146 293.141L168.19 294.054L172.333 296.135ZM165.959 292.933L168.573 292.126C169.056 291.977 169.406 291.804 169.623 291.61C169.841 291.411 169.911 291.204 169.834 290.989C169.762 290.772 169.52 290.56 169.109 290.354C168.545 290.071 167.876 289.909 167.102 289.868C166.334 289.825 165.558 289.925 164.777 290.166L162.098 290.994L165.959 292.933ZM173.15 287.623L170.431 286.257L184.128 282.026L186.847 283.392L181.741 284.969L194.62 291.438L191.134 292.515L178.256 286.045L173.15 287.623ZM205.797 279.762L202.231 280.863C201.734 280.667 201.218 280.515 200.682 280.409C200.141 280.3 199.593 280.234 199.04 280.212C198.486 280.189 197.94 280.21 197.4 280.273C196.866 280.335 196.36 280.44 195.883 280.588C195.019 280.855 194.468 281.188 194.229 281.587C193.984 281.984 194.066 282.428 194.475 282.919C194.878 283.408 195.621 283.925 196.702 284.468C197.814 285.026 198.925 285.441 200.034 285.712C201.149 285.982 202.22 286.114 203.246 286.11C204.273 286.106 205.207 285.974 206.048 285.714C206.52 285.568 206.899 285.404 207.184 285.221C207.474 285.037 207.665 284.84 207.757 284.63C207.843 284.418 207.827 284.199 207.708 283.972C207.595 283.743 207.371 283.512 207.036 283.277L210.618 282.183C211.242 282.571 211.701 282.989 211.997 283.438C212.294 283.882 212.394 284.33 212.298 284.784C212.202 285.234 211.881 285.667 211.333 286.083C210.786 286.495 209.977 286.867 208.908 287.197C207.421 287.656 205.776 287.909 203.974 287.955C202.177 287.999 200.343 287.827 198.471 287.437C196.605 287.046 194.823 286.424 193.128 285.572C191.427 284.718 190.322 283.885 189.813 283.075C189.303 282.264 189.323 281.521 189.871 280.845C190.414 280.166 191.418 279.601 192.884 279.148C193.851 278.849 194.873 278.636 195.952 278.509C197.037 278.38 198.143 278.339 199.271 278.386C200.394 278.43 201.506 278.566 202.609 278.794C203.717 279.02 204.779 279.343 205.797 279.762Z" fill="#0C0B0D"/>
<path d="M124.058 330.305L122.035 329.247L121.224 330.377L120.295 330.195L121.261 329.093L118.314 329.2L118.088 328.801L121.067 328.76L118.94 327.734L119.653 327.514L121.675 328.572L122.486 327.442L123.415 327.624L122.449 328.726L125.397 328.619L125.623 329.018L122.644 329.059L124.77 330.085L124.058 330.305ZM130.746 328.239L128.724 327.181L127.912 328.311L126.983 328.129L127.95 327.027L125.002 327.134L124.776 326.735L127.755 326.694L125.628 325.668L126.341 325.448L128.363 326.506L129.174 325.376L130.104 325.558L129.137 326.66L132.085 326.553L132.311 326.952L129.332 326.993L131.459 328.019L130.746 328.239ZM137.434 326.173L135.412 325.115L134.6 326.245L133.671 326.063L134.638 324.961L131.69 325.068L131.464 324.669L134.443 324.628L132.316 323.602L133.029 323.382L135.051 324.44L135.863 323.31L136.792 323.492L135.825 324.594L138.773 324.487L138.999 324.886L136.02 324.927L138.147 325.953L137.434 326.173ZM144.122 324.107L142.1 323.049L141.289 324.179L140.36 323.997L141.326 322.895L138.378 323.002L138.152 322.603L141.131 322.562L139.005 321.536L139.717 321.316L141.739 322.374L142.551 321.244L143.48 321.426L142.513 322.528L145.461 322.421L145.687 322.82L142.708 322.861L144.835 323.887L144.122 324.107ZM150.811 322.041L148.788 320.982L147.977 322.112L147.048 321.931L148.014 320.829L145.066 320.936L144.84 320.537L147.82 320.496L145.693 319.47L146.405 319.25L148.428 320.308L149.239 319.178L150.168 319.36L149.202 320.462L152.149 320.355L152.375 320.754L149.396 320.795L151.523 321.821L150.811 322.041ZM157.499 319.975L155.476 318.916L154.665 320.046L153.736 319.865L154.702 318.763L151.754 318.87L151.528 318.471L154.508 318.43L152.381 317.404L153.093 317.184L155.116 318.242L155.927 317.112L156.856 317.294L155.89 318.396L158.838 318.289L159.064 318.688L156.084 318.729L158.211 319.755L157.499 319.975ZM164.187 317.909L162.164 316.85L161.353 317.98L160.424 317.799L161.39 316.697L158.443 316.803L158.217 316.405L161.196 316.364L159.069 315.338L159.781 315.118L161.804 316.176L162.615 315.046L163.544 315.228L162.578 316.33L165.526 316.223L165.752 316.622L162.772 316.662L164.899 317.689L164.187 317.909ZM174.307 310.63L175.196 310.356L181.22 313.382C181.839 313.693 182.237 314.019 182.416 314.361C182.591 314.7 182.542 315.027 182.27 315.339C181.997 315.649 181.495 315.917 180.763 316.143C180.035 316.368 179.253 316.496 178.418 316.525C177.582 316.555 176.766 316.496 175.97 316.348C175.174 316.2 174.467 315.97 173.848 315.659L167.823 312.633L168.712 312.359L174.678 315.356C175.161 315.599 175.707 315.779 176.318 315.898C176.925 316.016 177.546 316.064 178.18 316.044C178.817 316.022 179.418 315.925 179.982 315.75C180.545 315.576 180.93 315.37 181.134 315.131C181.339 314.892 181.368 314.643 181.22 314.384C181.072 314.122 180.756 313.87 180.274 313.628L174.307 310.63ZM185.334 309.069C184.774 308.832 184.132 308.703 183.408 308.684C182.685 308.665 182.002 308.754 181.359 308.953C180.906 309.093 180.58 309.253 180.379 309.432C180.183 309.611 180.115 309.795 180.176 309.985C180.238 310.173 180.431 310.348 180.757 310.512C180.997 310.633 181.263 310.721 181.554 310.778C181.846 310.834 182.15 310.866 182.467 310.874C182.785 310.879 183.103 310.87 183.423 310.845C183.746 310.82 184.056 310.787 184.352 310.746L185.654 310.567C186.044 310.511 186.457 310.467 186.891 310.434C187.326 310.4 187.766 310.391 188.213 310.407C188.659 310.421 189.096 310.472 189.523 310.561C189.951 310.648 190.355 310.786 190.734 310.976C191.22 311.22 191.522 311.481 191.641 311.76C191.759 312.038 191.681 312.312 191.406 312.582C191.127 312.85 190.636 313.093 189.933 313.31C189.272 313.515 188.595 313.641 187.903 313.689C187.208 313.736 186.539 313.71 185.896 313.613C185.253 313.517 184.674 313.353 184.159 313.123L185.071 312.841C185.461 313.011 185.892 313.125 186.362 313.181C186.833 313.238 187.31 313.244 187.795 313.2C188.277 313.154 188.737 313.064 189.174 312.929C189.658 312.779 190.013 312.608 190.239 312.416C190.465 312.221 190.55 312.022 190.493 311.819C190.436 311.613 190.225 311.418 189.861 311.235C189.553 311.081 189.21 310.978 188.831 310.926C188.45 310.873 188.035 310.859 187.585 310.882C187.139 310.905 186.66 310.951 186.148 311.02L184.665 311.219C183.688 311.347 182.801 311.382 182.004 311.323C181.207 311.265 180.516 311.089 179.933 310.796C179.444 310.55 179.154 310.291 179.063 310.019C178.971 309.745 179.061 309.482 179.332 309.23C179.603 308.975 180.038 308.756 180.636 308.571C181.241 308.384 181.88 308.271 182.553 308.231C183.226 308.191 183.88 308.221 184.517 308.32C185.154 308.416 185.713 308.578 186.194 308.804L185.334 309.069ZM198.138 310.65L195.288 311.53L186.19 306.96L189.211 306.027C190.139 305.74 191.113 305.586 192.133 305.564C193.156 305.541 194.181 305.645 195.207 305.875C196.234 306.106 197.22 306.458 198.165 306.933C199.119 307.412 199.757 307.879 200.08 308.334C200.403 308.787 200.404 309.211 200.081 309.606C199.761 310.001 199.114 310.348 198.138 310.65ZM195.43 310.881L197.34 310.291C198.176 310.033 198.721 309.739 198.977 309.41C199.233 309.081 199.216 308.73 198.926 308.356C198.636 307.981 198.096 307.596 197.305 307.199C196.517 306.805 195.702 306.509 194.861 306.31C194.023 306.11 193.184 306.017 192.344 306.032C191.506 306.045 190.693 306.174 189.905 306.418L187.824 307.06L195.43 310.881Z" fill="#0C0B0D"/>
<g clip-path="url(#clip3_3692_13082)">
<path d="M270.148 231.116L268.357 230.881C267.917 230.591 267.298 230.384 266.501 230.258C265.704 230.133 265.088 230.178 264.651 230.395L262.86 230.16C262.931 230.065 263.026 229.982 263.147 229.908C263.267 229.835 263.421 229.769 263.609 229.711C264.315 229.493 265.209 229.455 266.29 229.596C267.371 229.738 268.33 230.02 269.168 230.44C269.391 230.553 269.582 230.664 269.739 230.774C269.897 230.883 270.033 230.998 270.148 231.116ZM274.067 231.618L272.309 231.4C272.343 231.127 272.306 230.85 272.199 230.571C272.091 230.292 271.891 229.998 271.597 229.69C269.998 229.269 268.426 229.027 266.881 228.965C265.336 228.903 264.022 229.04 262.939 229.374C262.666 229.459 262.42 229.553 262.201 229.657C261.982 229.761 261.79 229.874 261.625 229.998L259.711 229.746C259.907 229.532 260.16 229.338 260.47 229.165C260.78 228.992 261.156 228.838 261.599 228.701C263.02 228.262 264.753 228.105 266.797 228.23C268.841 228.355 270.855 228.714 272.84 229.306C273.282 229.704 273.609 230.099 273.82 230.492C274.031 230.884 274.113 231.26 274.067 231.618ZM278.471 233.601L273.317 232.937C273.11 233.101 272.87 233.25 272.598 233.384C272.325 233.518 272.009 233.64 271.652 233.751C270.23 234.19 268.497 234.347 266.453 234.222C264.409 234.096 262.395 233.738 260.41 233.146C260.016 232.787 259.715 232.434 259.509 232.085C259.302 231.737 259.19 231.402 259.174 231.081L255.744 230.618L255.597 229.903L278.324 232.886L278.471 233.601ZM260.903 231.308C260.921 231.538 260.99 231.775 261.11 232.019C261.23 232.263 261.411 232.51 261.653 232.762C263.252 233.183 264.824 233.425 266.369 233.486C267.914 233.548 269.228 233.412 270.311 233.077C270.5 233.019 270.669 232.956 270.82 232.886C270.971 232.817 271.124 232.745 271.279 232.67L270.134 232.507C270.064 232.556 269.99 232.599 269.912 232.637C269.835 232.674 269.745 232.709 269.641 232.741C268.935 232.959 268.041 232.997 266.96 232.855C265.88 232.713 264.92 232.432 264.083 232.011C263.96 231.95 263.85 231.888 263.752 231.828C263.654 231.767 263.558 231.702 263.464 231.632L260.903 231.308Z" fill="#0C0B0D"/>
</g>
<rect width="116.949" height="55" rx="25" transform="matrix(0.95545 -0.295154 0.893595 0.448873 217.648 337.242)" fill="#212121"/>
<g clip-path="url(#clip4_3692_13082)">
<path d="M271.272 346.049L268.919 345.761L267.682 337.734L262.488 339.339L260.701 338.441L268.57 336.01L277.506 340.499L275.932 340.985L270.034 338.022L271.272 346.049Z" fill="#D1D2D2"/>
</g>
<g clip-path="url(#clip5_3692_13082)">
<path d="M327.507 327.952L318.571 323.463L320.145 322.977L326.043 325.94L324.805 317.913L327.158 318.201L328.395 326.228L333.589 324.623L335.376 325.521L327.507 327.952Z" fill="#D1D2D2"/>
</g>
<g filter="url(#filter2_d_3692_13082)">
<rect width="295.724" height="187" rx="20" transform="matrix(0.942753 -0.33349 0.488357 0.872644 35.5867 157.762)" fill="#FF9800"/>
</g>
<path d="M72.0419 178.604C71.6965 178.125 71.2175 177.827 70.605 177.711C69.9925 177.595 69.3542 177.654 68.69 177.889C68.2043 178.061 67.8201 178.284 67.5372 178.559C67.2579 178.832 67.0877 179.131 67.0266 179.458C66.9691 179.783 67.031 180.108 67.2122 180.432C67.3639 180.703 67.564 180.911 67.8124 181.057C68.0625 181.198 68.3344 181.294 68.6279 181.345C68.9196 181.392 69.21 181.414 69.4991 181.411C69.7863 181.404 70.0456 181.389 70.2768 181.367L71.5464 181.251C71.8709 181.219 72.2424 181.202 72.6608 181.201C73.0828 181.198 73.5137 181.246 73.9534 181.344C74.3949 181.437 74.8126 181.61 75.2064 181.863C75.6003 182.115 75.9304 182.48 76.1967 182.956C76.5038 183.504 76.6259 184.055 76.5631 184.608C76.5039 185.159 76.251 185.671 75.8043 186.142C75.3612 186.611 74.7183 186.995 73.8755 187.293C73.0899 187.571 72.344 187.694 71.6377 187.663C70.935 187.63 70.3019 187.462 69.7384 187.159C69.1785 186.854 68.7218 186.431 68.3682 185.891L69.7394 185.406C69.9897 185.777 70.3066 186.045 70.69 186.21C71.0751 186.371 71.4894 186.446 71.9328 186.436C72.3779 186.421 72.8183 186.337 73.254 186.182C73.7611 186.003 74.1738 185.766 74.4923 185.471C74.8089 185.173 75.0082 184.845 75.0904 184.487C75.1707 184.126 75.1072 183.761 74.9001 183.391C74.7114 183.053 74.4561 182.815 74.1341 182.675C73.8122 182.536 73.4482 182.459 73.0421 182.444C72.636 182.429 72.2123 182.441 71.7712 182.478L70.2215 182.598C69.2369 182.673 68.3761 182.588 67.6394 182.342C66.9027 182.095 66.3429 181.63 65.96 180.946C65.6418 180.377 65.5304 179.823 65.6257 179.282C65.7227 178.737 65.9877 178.247 66.4206 177.813C66.8552 177.374 67.4225 177.031 68.1224 176.783C68.8294 176.533 69.5236 176.428 70.2049 176.468C70.8843 176.505 71.4976 176.669 72.0447 176.958C72.5953 177.246 73.0229 177.644 73.3275 178.15L72.0419 178.604ZM82.2733 184.322C81.7519 184.507 81.2279 184.583 80.7012 184.552C80.1726 184.517 79.6863 184.37 79.2421 184.112C78.796 183.85 78.4342 183.471 78.1568 182.975C77.9126 182.539 77.8075 182.152 77.8415 181.815C77.8737 181.475 78.0016 181.173 78.2253 180.908C78.4491 180.642 78.7272 180.405 79.0596 180.197C79.3937 179.983 79.7389 179.786 80.0951 179.605C80.5617 179.368 80.9421 179.18 81.2361 179.041C81.5318 178.896 81.7299 178.761 81.8302 178.634C81.934 178.507 81.9332 178.349 81.8278 178.16L81.8056 178.12C81.5318 177.631 81.1745 177.302 80.7335 177.134C80.2962 176.964 79.7864 176.982 79.2044 177.187C78.6009 177.401 78.1961 177.691 77.9902 178.056C77.7843 178.422 77.6894 178.769 77.7055 179.096L76.2836 179.123C76.2389 178.585 76.323 178.124 76.5358 177.739C76.7503 177.351 77.0414 177.03 77.409 176.777C77.7783 176.52 78.1701 176.318 78.5844 176.171C78.8486 176.078 79.1688 176 79.5449 175.938C79.9228 175.872 80.3223 175.871 80.7436 175.936C81.1685 176 81.5888 176.174 82.0047 176.458C82.4206 176.743 82.7978 177.187 83.1363 177.792L85.9444 182.81L84.6803 183.257L84.1031 182.226L84.0388 182.249C84.0456 182.444 84.0017 182.672 83.9072 182.931C83.8127 183.19 83.6363 183.444 83.3782 183.694C83.1201 183.944 82.7518 184.153 82.2733 184.322ZM81.8779 183.203C82.3778 183.026 82.7483 182.786 82.9894 182.483C83.2341 182.179 83.3634 181.852 83.3774 181.502C83.3951 181.152 83.3151 180.818 83.1375 180.5L82.5381 179.429C82.5179 179.508 82.4306 179.604 82.2762 179.718C82.1235 179.828 81.9395 179.942 81.7242 180.062C81.5106 180.177 81.3005 180.287 81.0939 180.392C80.889 180.492 80.7233 180.574 80.5968 180.639C80.2905 180.795 80.0195 180.968 79.7837 181.158C79.5497 181.344 79.3942 181.555 79.3173 181.792C79.2421 182.025 79.2877 182.29 79.4542 182.587C79.6817 182.994 80.0163 183.244 80.4578 183.337C80.901 183.426 81.3744 183.381 81.8779 183.203ZM83.8332 171.392L89.5159 181.547L88.2517 181.994L82.569 171.839L83.8332 171.392ZM95.0269 179.787C94.3412 180.03 93.6462 180.084 92.9418 179.949C92.2356 179.81 91.5697 179.499 90.944 179.016C90.3165 178.529 89.777 177.882 89.3257 177.076C88.878 176.276 88.6377 175.529 88.6049 174.836C88.572 174.143 88.7301 173.543 89.0792 173.035C89.4282 172.527 89.9492 172.151 90.642 171.906C91.1776 171.717 91.647 171.649 92.0502 171.705C92.4551 171.756 92.7979 171.856 93.0788 172.006C93.3613 172.152 93.586 172.274 93.7528 172.374L93.8599 172.336L91.7622 168.587L93.0264 168.14L98.7091 178.295L97.4878 178.727L96.8329 177.556L96.683 177.61C96.6678 177.781 96.6337 178.003 96.5807 178.275C96.5258 178.544 96.3857 178.817 96.1604 179.095C95.9332 179.37 95.5554 179.6 95.0269 179.787ZM94.61 178.675C95.1171 178.496 95.4772 178.222 95.6903 177.854C95.9015 177.482 95.9761 177.046 95.914 176.545C95.8501 176.041 95.6572 175.501 95.3353 174.926C95.0172 174.358 94.6495 173.892 94.2323 173.529C93.8133 173.162 93.3622 172.922 92.879 172.807C92.394 172.69 91.8944 172.722 91.3802 172.904C90.8445 173.094 90.4694 173.379 90.2547 173.76C90.0418 174.136 89.9672 174.572 90.031 175.068C90.0965 175.56 90.279 176.073 90.5787 176.609C90.8821 177.151 91.247 177.612 91.6734 177.992C92.1016 178.367 92.5655 178.623 93.0652 178.759C93.5665 178.89 94.0815 178.862 94.61 178.675ZM104.631 176.39C103.888 176.653 103.145 176.719 102.401 176.591C101.661 176.46 100.969 176.157 100.326 175.679C99.6857 175.201 99.1456 174.568 98.7054 173.782C98.2614 172.988 98.0292 172.241 98.0088 171.539C97.9919 170.836 98.1704 170.223 98.5444 169.699C98.9219 169.173 99.4821 168.779 100.225 168.516C100.968 168.253 101.709 168.187 102.449 168.317C103.193 168.446 103.886 168.752 104.528 169.233C105.173 169.714 105.718 170.351 106.162 171.144C106.602 171.931 106.83 172.674 106.845 173.373C106.863 174.072 106.684 174.684 106.306 175.209C105.932 175.733 105.374 176.127 104.631 176.39ZM104.043 175.339C104.607 175.139 104.996 174.841 105.211 174.444C105.425 174.048 105.498 173.6 105.429 173.102C105.359 172.604 105.182 172.1 104.898 171.591C104.613 171.082 104.26 170.639 103.839 170.261C103.418 169.883 102.949 169.623 102.433 169.481C101.917 169.339 101.377 169.368 100.813 169.567C100.249 169.767 99.8605 170.067 99.6479 170.467C99.4354 170.866 99.3646 171.317 99.4356 171.819C99.5067 172.32 99.6847 172.825 99.9695 173.334C100.254 173.844 100.606 174.285 101.026 174.66C101.445 175.034 101.911 175.291 102.425 175.43C102.94 175.569 103.479 175.538 104.043 175.339ZM117.981 171.667C117.188 171.948 116.414 172.028 115.658 171.907C114.903 171.782 114.207 171.482 113.569 171.007C112.932 170.527 112.396 169.897 111.959 169.117C111.523 168.337 111.291 167.595 111.266 166.891C111.241 166.183 111.413 165.564 111.779 165.035C112.148 164.5 112.703 164.102 113.446 163.839C113.875 163.688 114.335 163.604 114.827 163.588C115.318 163.573 115.819 163.653 116.328 163.829C116.836 164.002 117.327 164.296 117.803 164.71C118.278 165.124 118.715 165.686 119.112 166.397L119.39 166.892L113.048 169.136L112.482 168.124L117.538 166.336C117.298 165.906 116.99 165.555 116.616 165.284C116.245 165.011 115.836 164.837 115.387 164.762C114.942 164.686 114.491 164.729 114.034 164.89C113.531 165.068 113.16 165.338 112.922 165.7C112.685 166.057 112.571 166.453 112.58 166.89C112.589 167.326 112.711 167.754 112.946 168.174L113.323 168.848C113.645 169.423 114.025 169.873 114.463 170.197C114.903 170.517 115.374 170.713 115.876 170.784C116.377 170.853 116.882 170.797 117.393 170.616C117.725 170.499 118.001 170.35 118.221 170.169C118.442 169.984 118.602 169.769 118.7 169.524C118.797 169.276 118.825 169.001 118.784 168.699L120.183 168.584C120.269 169.013 120.241 169.426 120.101 169.825C119.958 170.22 119.709 170.577 119.353 170.897C118.995 171.214 118.538 171.47 117.981 171.667ZM123.222 169.623L118.96 162.008L120.181 161.576L120.847 162.766L120.954 162.728C120.898 162.26 120.998 161.847 121.255 161.487C121.509 161.124 121.904 160.847 122.44 160.658C122.983 160.466 123.498 160.42 123.986 160.521C124.477 160.616 124.937 160.832 125.368 161.166L125.454 161.136C125.444 160.668 125.586 160.244 125.878 159.863C126.168 159.48 126.607 159.184 127.196 158.975C127.932 158.715 128.653 158.715 129.36 158.976C130.064 159.234 130.667 159.811 131.168 160.706L134.021 165.803L132.757 166.251L129.904 161.154C129.59 160.592 129.199 160.249 128.732 160.125C128.265 160.001 127.806 160.019 127.356 160.178C126.778 160.383 126.42 160.703 126.284 161.139C126.145 161.572 126.214 162.035 126.489 162.528L129.264 167.486L127.979 167.941L125.06 162.725C124.817 162.292 124.47 161.997 124.019 161.84C123.565 161.679 123.099 161.684 122.621 161.853C122.292 161.969 122.031 162.159 121.836 162.422C121.644 162.684 121.541 162.989 121.527 163.339C121.515 163.684 121.613 164.043 121.822 164.416L124.486 169.176L123.222 169.623ZM140.746 163.424L135.063 153.27L138.899 151.913C139.663 151.643 140.361 151.542 140.995 151.611C141.626 151.677 142.178 151.872 142.65 152.196C143.121 152.517 143.494 152.925 143.772 153.421C144.016 153.857 144.134 154.247 144.125 154.591C144.12 154.933 144.028 155.235 143.849 155.496C143.674 155.756 143.451 155.981 143.181 156.172L143.237 156.271C143.583 156.172 143.982 156.162 144.432 156.24C144.882 156.318 145.325 156.502 145.761 156.792C146.197 157.081 146.565 157.493 146.864 158.029C147.149 158.538 147.28 159.04 147.258 159.535C147.235 160.03 147.021 160.492 146.615 160.921C146.209 161.349 145.574 161.717 144.71 162.022L140.746 163.424ZM141.464 161.864L144.099 160.931C144.967 160.624 145.496 160.251 145.687 159.812C145.879 159.368 145.85 158.922 145.6 158.476C145.408 158.132 145.135 157.848 144.783 157.625C144.43 157.397 144.029 157.258 143.581 157.207C143.131 157.152 142.667 157.209 142.188 157.378L139.488 158.333L141.464 161.864ZM138.889 157.262L141.353 156.391C141.753 156.249 142.073 156.049 142.313 155.79C142.556 155.53 142.699 155.234 142.74 154.902C142.785 154.57 142.708 154.225 142.508 153.868C142.258 153.422 141.878 153.102 141.369 152.91C140.857 152.715 140.237 152.746 139.509 153.004L137.002 153.891L138.889 157.262ZM150.385 160.015L146.123 152.399L147.387 151.952L151.649 159.567L150.385 160.015ZM146.056 150.902C145.809 150.989 145.553 150.987 145.288 150.895C145.026 150.801 144.834 150.645 144.712 150.427C144.59 150.209 144.573 149.991 144.661 149.774C144.752 149.556 144.921 149.403 145.168 149.316C145.414 149.228 145.668 149.232 145.93 149.325C146.196 149.417 146.389 149.572 146.511 149.791C146.634 150.009 146.649 150.227 146.557 150.446C146.469 150.663 146.302 150.815 146.056 150.902ZM153.281 149.867L153.836 150.859L149.572 152.367L149.017 151.375L153.281 149.867ZM149.239 149.111L150.503 148.664L154.565 155.923C154.75 156.253 154.94 156.483 155.136 156.611C155.334 156.735 155.531 156.797 155.727 156.795C155.924 156.788 156.116 156.752 156.301 156.686C156.441 156.637 156.551 156.59 156.633 156.545C156.713 156.497 156.777 156.459 156.825 156.43L157.671 157.39C157.602 157.45 157.499 157.522 157.362 157.606C157.227 157.694 157.041 157.779 156.806 157.862C156.448 157.989 156.059 158.041 155.636 158.02C155.218 157.998 154.814 157.882 154.426 157.67C154.042 157.458 153.726 157.13 153.478 156.687L149.239 149.111ZM162.787 155.818C162.016 156.09 161.257 156.157 160.512 156.017C159.766 155.877 159.077 155.564 158.446 155.078C157.815 154.593 157.287 153.97 156.861 153.209C156.429 152.436 156.2 151.699 156.176 150.999C156.154 150.294 156.326 149.677 156.693 149.147C157.061 148.613 157.617 148.214 158.36 147.952C158.938 147.747 159.515 147.662 160.09 147.696C160.665 147.73 161.201 147.873 161.697 148.125C162.193 148.377 162.61 148.729 162.948 149.179L161.684 149.627C161.393 149.314 161.007 149.082 160.525 148.932C160.045 148.777 159.526 148.798 158.969 148.995C158.476 149.169 158.111 149.441 157.873 149.811C157.636 150.175 157.535 150.609 157.568 151.112C157.603 151.611 157.782 152.147 158.103 152.723C158.433 153.311 158.819 153.788 159.264 154.154C159.711 154.518 160.187 154.756 160.689 154.867C161.196 154.977 161.699 154.943 162.199 154.766C162.528 154.65 162.796 154.492 163.005 154.291C163.213 154.091 163.355 153.859 163.43 153.595C163.504 153.331 163.503 153.046 163.427 152.74L164.691 152.293C164.871 152.768 164.921 153.235 164.84 153.696C164.761 154.151 164.551 154.566 164.209 154.941C163.868 155.311 163.394 155.603 162.787 155.818ZM171.213 152.837C170.47 153.1 169.727 153.167 168.983 153.038C168.243 152.908 167.551 152.604 166.908 152.127C166.268 151.648 165.728 151.016 165.287 150.229C164.843 149.436 164.611 148.688 164.591 147.987C164.574 147.284 164.752 146.67 165.126 146.146C165.504 145.62 166.064 145.226 166.807 144.963C167.55 144.701 168.291 144.634 169.031 144.765C169.775 144.893 170.468 145.199 171.11 145.681C171.755 146.161 172.3 146.798 172.744 147.591C173.184 148.378 173.412 149.121 173.427 149.821C173.445 150.519 173.266 151.131 172.888 151.656C172.514 152.181 171.956 152.574 171.213 152.837ZM170.625 151.786C171.189 151.586 171.578 151.288 171.793 150.892C172.007 150.495 172.08 150.048 172.011 149.549C171.941 149.051 171.764 148.548 171.48 148.039C171.195 147.529 170.842 147.086 170.421 146.708C170 146.331 169.531 146.071 169.015 145.928C168.499 145.786 167.959 145.815 167.395 146.015C166.831 146.214 166.442 146.514 166.23 146.914C166.017 147.314 165.947 147.764 166.018 148.266C166.089 148.767 166.267 149.273 166.551 149.782C166.836 150.291 167.188 150.733 167.608 151.107C168.027 151.481 168.493 151.738 169.007 151.877C169.521 152.016 170.061 151.985 170.625 151.786ZM176.782 150.677L172.52 143.061L173.784 142.614L178.046 150.23L176.782 150.677ZM172.453 141.564C172.206 141.652 171.95 141.649 171.685 141.557C171.423 141.463 171.231 141.308 171.109 141.089C170.987 140.871 170.97 140.654 171.058 140.436C171.149 140.218 171.318 140.065 171.565 139.978C171.811 139.891 172.065 139.894 172.327 139.987C172.593 140.079 172.786 140.235 172.909 140.453C173.031 140.671 173.046 140.889 172.954 141.108C172.866 141.325 172.699 141.477 172.453 141.564ZM179.062 144.382L181.626 148.964L180.362 149.411L176.1 141.795L177.321 141.363L177.987 142.553L178.094 142.515C178.07 142.06 178.189 141.646 178.451 141.272C178.71 140.895 179.151 140.597 179.772 140.377C180.329 140.18 180.876 140.113 181.412 140.177C181.947 140.237 182.449 140.44 182.92 140.784C183.389 141.125 183.805 141.62 184.167 142.267L186.875 147.107L185.611 147.554L182.947 142.794C182.613 142.196 182.184 141.789 181.661 141.574C181.137 141.355 180.582 141.35 179.996 141.557C179.593 141.7 179.277 141.908 179.05 142.183C178.827 142.456 178.711 142.78 178.703 143.155C178.694 143.53 178.814 143.939 179.062 144.382ZM190.151 146.043C189.887 146.136 189.611 146.129 189.324 146.021C189.036 145.913 188.824 145.736 188.687 145.491C188.55 145.247 188.528 145.003 188.619 144.761C188.71 144.519 188.888 144.351 189.152 144.258C189.416 144.164 189.692 144.172 189.979 144.28C190.267 144.388 190.479 144.565 190.616 144.809C190.706 144.971 190.745 145.136 190.732 145.303C190.722 145.469 190.667 145.619 190.567 145.753C190.468 145.883 190.33 145.98 190.151 146.043ZM186.988 140.391C186.724 140.484 186.448 140.477 186.16 140.368C185.873 140.26 185.661 140.084 185.524 139.839C185.387 139.595 185.364 139.351 185.456 139.109C185.547 138.867 185.725 138.699 185.989 138.606C186.253 138.512 186.529 138.519 186.816 138.628C187.104 138.736 187.316 138.912 187.453 139.157C187.543 139.319 187.582 139.483 187.568 139.651C187.558 139.816 187.503 139.967 187.403 140.101C187.305 140.231 187.166 140.327 186.988 140.391Z" fill="#0C0B0D"/>
<path d="M94.7396 219.804L93.3298 216.854L91.6297 219.389L89.5707 218.015L91.6673 215.759L88.1556 215.486L88.25 213.35L91.7565 214.043L89.9448 211.236L92.1062 210.471L93.5081 213.423L95.2082 210.889L97.2671 212.263L95.1785 214.516L98.6822 214.792L98.5878 216.928L95.0813 216.235L96.901 219.039L94.7396 219.804ZM107.511 215.286L106.101 212.337L104.401 214.871L102.342 213.497L104.439 211.241L100.927 210.968L101.021 208.832L104.528 209.525L102.716 206.718L104.878 205.954L106.279 208.906L107.98 206.371L110.038 207.745L107.95 209.999L111.454 210.274L111.359 212.41L107.853 211.717L109.672 214.521L107.511 215.286ZM120.282 210.768L118.872 207.819L117.172 210.354L115.113 208.979L117.21 206.723L113.698 206.451L113.793 204.315L117.299 205.008L115.488 202.2L117.649 201.436L119.051 204.388L120.751 201.853L122.81 203.227L120.721 205.481L124.225 205.756L124.131 207.892L120.624 207.199L122.444 210.004L120.282 210.768ZM133.054 206.25L131.644 203.301L129.944 205.836L127.885 204.462L129.981 202.205L126.47 201.933L126.564 199.797L130.071 200.49L128.259 197.683L130.42 196.918L131.822 199.87L133.522 197.335L135.581 198.71L133.493 200.963L136.996 201.238L136.902 203.374L133.395 202.681L135.215 205.486L133.054 206.25ZM145.825 201.733L144.415 198.783L142.715 201.318L140.656 199.944L142.753 197.688L139.241 197.415L139.335 195.279L142.842 195.972L141.03 193.165L143.192 192.4L144.594 195.352L146.294 192.818L148.353 194.192L146.264 196.445L149.768 196.721L149.673 198.857L146.167 198.164L147.986 200.968L145.825 201.733ZM163.682 203.399L155.158 188.167L161.746 185.837C162.957 185.409 164.059 185.218 165.054 185.264C166.049 185.31 166.915 185.556 167.652 186.002C168.387 186.443 168.968 187.045 169.395 187.809C169.728 188.404 169.892 188.972 169.887 189.514C169.88 190.052 169.732 190.544 169.443 190.99C169.156 191.43 168.76 191.811 168.253 192.133L168.337 192.281C168.977 192.085 169.655 192.041 170.371 192.15C171.092 192.257 171.776 192.523 172.424 192.947C173.07 193.366 173.602 193.95 174.021 194.699C174.473 195.507 174.66 196.305 174.581 197.093C174.505 197.875 174.149 198.597 173.514 199.262C172.878 199.926 171.944 200.476 170.712 200.912L163.682 203.399ZM165.687 199.536L168.524 198.532C169.493 198.189 170.104 197.768 170.358 197.269C170.608 196.764 170.572 196.225 170.25 195.65C170.014 195.228 169.697 194.895 169.297 194.65C168.897 194.406 168.442 194.264 167.932 194.224C167.428 194.183 166.897 194.261 166.34 194.458L163.423 195.49L165.687 199.536ZM162.204 193.311L164.783 192.398C165.259 192.23 165.64 192.003 165.923 191.719C166.209 191.427 166.379 191.1 166.432 190.737C166.491 190.371 166.408 189.988 166.183 189.586C165.875 189.036 165.415 188.667 164.804 188.48C164.197 188.29 163.508 188.332 162.737 188.605L160.093 189.54L162.204 193.311ZM170.976 185.753L169.49 183.098L183.004 178.317L184.49 180.972L179.452 182.754L186.49 195.331L183.052 196.547L176.013 183.971L170.976 185.753ZM201.982 177.992L198.463 179.237C198.162 178.838 197.822 178.51 197.44 178.253C197.056 177.991 196.644 177.798 196.203 177.675C195.762 177.552 195.303 177.501 194.826 177.521C194.355 177.539 193.884 177.631 193.413 177.798C192.561 178.099 191.929 178.558 191.516 179.173C191.1 179.783 190.926 180.522 190.994 181.389C191.06 182.251 191.388 183.21 191.979 184.266C192.586 185.352 193.271 186.202 194.033 186.818C194.8 187.432 195.605 187.815 196.448 187.968C197.29 188.122 198.127 188.051 198.957 187.758C199.423 187.593 199.823 187.383 200.155 187.129C200.493 186.873 200.756 186.581 200.945 186.253C201.131 185.92 201.237 185.559 201.263 185.169C201.294 184.778 201.236 184.365 201.089 183.93L204.616 182.7C204.917 183.431 205.066 184.186 205.066 184.964C205.067 185.736 204.906 186.485 204.581 187.212C204.259 187.932 203.76 188.589 203.086 189.184C202.414 189.772 201.55 190.253 200.495 190.626C199.028 191.145 197.543 191.302 196.042 191.097C194.546 190.889 193.138 190.321 191.816 189.393C190.5 188.463 189.378 187.17 188.451 185.514C187.522 183.853 187.069 182.32 187.091 180.916C187.114 179.512 187.534 178.301 188.349 177.282C189.162 176.257 190.292 175.49 191.738 174.978C192.692 174.641 193.645 174.452 194.598 174.412C195.556 174.37 196.484 174.475 197.383 174.728C198.278 174.975 199.116 175.371 199.895 175.915C200.68 176.457 201.375 177.149 201.982 177.992Z" fill="#0C0B0D"/>
<path d="M107.605 247.849L106.522 245.805L105.245 247.525L104.582 247.084L105.972 245.433L103.499 245.149L103.53 244.462L105.993 244.859L104.808 242.852L105.511 242.603L106.593 244.647L107.871 242.927L108.533 243.368L107.143 245.019L109.616 245.303L109.585 245.99L107.122 245.593L108.308 247.601L107.605 247.849ZM114.204 245.515L113.122 243.471L111.844 245.191L111.181 244.75L112.571 243.099L110.099 242.815L110.13 242.128L112.592 242.525L111.407 240.517L112.11 240.268L113.192 242.313L114.47 240.593L115.132 241.034L113.743 242.684L116.215 242.969L116.184 243.656L113.722 243.258L114.907 245.266L114.204 245.515ZM120.803 243.181L119.721 241.136L118.443 242.856L117.781 242.415L119.17 240.765L116.698 240.48L116.729 239.793L119.192 240.19L118.006 238.183L118.709 237.934L119.791 239.978L121.069 238.258L121.732 238.699L120.342 240.35L122.815 240.634L122.783 241.321L120.321 240.924L121.506 242.932L120.803 243.181ZM127.402 240.846L126.32 238.802L125.042 240.522L124.38 240.081L125.77 238.43L123.297 238.146L123.328 237.459L125.791 237.856L124.605 235.848L125.308 235.6L126.391 237.644L127.668 235.924L128.331 236.365L126.941 238.016L129.414 238.3L129.383 238.987L126.92 238.59L128.105 240.597L127.402 240.846ZM134.002 238.512L132.919 236.467L131.642 238.188L130.979 237.746L132.369 236.096L129.896 235.811L129.928 235.125L132.39 235.522L131.205 233.514L131.908 233.265L132.99 235.309L134.268 233.589L134.93 234.031L133.541 235.681L136.013 235.966L135.982 236.652L133.519 236.255L134.705 238.263L134.002 238.512ZM140.601 236.177L139.519 234.133L138.241 235.853L137.579 235.412L138.968 233.761L136.496 233.477L136.527 232.79L138.989 233.187L137.804 231.179L138.507 230.931L139.589 232.975L140.867 231.255L141.529 231.696L140.14 233.347L142.612 233.631L142.581 234.318L140.119 233.921L141.304 235.929L140.601 236.177ZM147.2 233.843L146.118 231.799L144.84 233.519L144.178 233.077L145.567 231.427L143.095 231.142L143.126 230.456L145.589 230.853L144.403 228.845L145.106 228.596L146.189 230.641L147.466 228.92L148.129 229.362L146.739 231.012L149.212 231.297L149.18 231.983L146.718 231.586L147.903 233.594L147.2 233.843ZM159.439 223.526L160.316 223.216L163.608 229.099C163.946 229.704 164.096 230.299 164.057 230.884C164.016 231.467 163.799 231.992 163.406 232.46C163.014 232.925 162.458 233.284 161.736 233.54C161.017 233.794 160.308 233.88 159.607 233.799C158.906 233.718 158.27 233.494 157.699 233.128C157.127 232.762 156.672 232.277 156.334 231.672L153.041 225.789L153.918 225.479L157.179 231.306C157.442 231.777 157.792 232.158 158.227 232.447C158.661 232.734 159.143 232.91 159.674 232.975C160.207 233.039 160.752 232.973 161.309 232.776C161.865 232.579 162.292 232.302 162.589 231.944C162.886 231.586 163.045 231.183 163.064 230.736C163.085 230.285 162.964 229.824 162.7 229.353L159.439 223.526ZM169.318 222.693C168.988 222.217 168.532 221.907 167.95 221.763C167.368 221.619 166.759 221.659 166.125 221.883C165.678 222.042 165.324 222.252 165.063 222.514C164.805 222.775 164.649 223.066 164.596 223.386C164.545 223.702 164.608 224.019 164.786 224.337C164.917 224.571 165.087 224.758 165.295 224.895C165.503 225.033 165.735 225.133 165.991 225.195C166.248 225.253 166.514 225.287 166.789 225.297C167.067 225.306 167.339 225.3 167.604 225.279L168.767 225.19C169.117 225.16 169.479 225.151 169.853 225.164C170.228 225.177 170.593 225.232 170.95 225.327C171.308 225.419 171.638 225.571 171.94 225.783C172.244 225.991 172.499 226.28 172.706 226.65C172.972 227.124 173.077 227.598 173.024 228.071C172.97 228.543 172.757 228.979 172.385 229.378C172.011 229.773 171.478 230.094 170.784 230.339C170.131 230.57 169.508 230.671 168.915 230.641C168.321 230.609 167.786 230.464 167.312 230.205C166.838 229.947 166.453 229.589 166.156 229.133L167.056 228.815C167.283 229.154 167.574 229.406 167.929 229.571C168.284 229.737 168.672 229.822 169.093 229.825C169.512 229.826 169.938 229.75 170.369 229.597C170.847 229.428 171.231 229.204 171.52 228.925C171.811 228.642 171.988 228.33 172.051 227.988C172.117 227.643 172.05 227.293 171.85 226.937C171.682 226.636 171.457 226.414 171.175 226.272C170.891 226.126 170.559 226.037 170.178 226.006C169.801 225.973 169.383 225.973 168.927 226.007L167.604 226.1C166.734 226.159 165.989 226.077 165.367 225.857C164.746 225.637 164.276 225.242 163.957 224.672C163.69 224.195 163.593 223.727 163.666 223.268C163.74 222.805 163.956 222.389 164.315 222.02C164.675 221.646 165.15 221.355 165.741 221.146C166.337 220.935 166.922 220.85 167.495 220.89C168.067 220.93 168.588 221.08 169.055 221.341C169.525 221.597 169.895 221.948 170.166 222.393L169.318 222.693ZM178.948 227.269L176.136 228.264L171.164 219.379L174.145 218.324C175.06 218 175.942 217.9 176.789 218.023C177.639 218.145 178.423 218.474 179.139 219.011C179.854 219.548 180.471 220.277 180.987 221.2C181.508 222.131 181.777 222.994 181.795 223.788C181.814 224.578 181.584 225.271 181.106 225.867C180.63 226.461 179.911 226.929 178.948 227.269ZM176.605 227.225L178.489 226.558C179.314 226.267 179.92 225.872 180.308 225.374C180.696 224.877 180.872 224.3 180.838 223.643C180.804 222.987 180.571 222.272 180.139 221.5C179.706 220.735 179.2 220.124 178.619 219.668C178.041 219.21 177.404 218.928 176.708 218.821C176.015 218.713 175.279 218.796 174.501 219.071L172.448 219.798L176.605 227.225Z" fill="#0C0B0D"/>
<g clip-path="url(#clip6_3692_13082)">
<path d="M313.801 96.9552L312.346 96.3332C312.155 95.7867 311.743 95.3575 311.11 95.0456C310.477 94.7336 309.885 94.7339 309.335 95.0463L307.879 94.4243C308.011 94.2731 308.158 94.1428 308.319 94.0334C308.481 93.924 308.668 93.8317 308.88 93.7566C309.677 93.4747 310.515 93.5214 311.393 93.8968C312.271 94.2721 312.939 94.8688 313.397 95.687C313.519 95.9051 313.612 96.1172 313.677 96.3231C313.741 96.529 313.783 96.7397 313.801 96.9552ZM316.995 98.2952L315.558 97.7059C315.785 97.2468 315.95 96.7736 316.052 96.2864C316.155 95.7992 316.184 95.2762 316.138 94.7173C314.991 93.8035 313.738 93.1978 312.382 92.9002C311.025 92.6026 309.736 92.6699 308.514 93.1021C308.206 93.2111 307.915 93.34 307.642 93.4889C307.369 93.6377 307.114 93.8065 306.876 93.9953L305.32 93.3304C305.652 92.9908 306.02 92.6939 306.425 92.4396C306.83 92.1852 307.282 91.9697 307.781 91.7931C309.386 91.2256 311.07 91.1755 312.833 91.6428C314.597 92.1101 316.166 92.9696 317.541 94.2212C317.657 94.9512 317.669 95.6621 317.579 96.3539C317.489 97.0457 317.294 97.6928 316.995 98.2952ZM319.566 102.208L315.369 100.439C315.064 100.69 314.74 100.913 314.397 101.106C314.053 101.299 313.679 101.468 313.275 101.61C311.671 102.178 309.987 102.228 308.224 101.761C306.46 101.293 304.891 100.434 303.516 99.1823C303.416 98.5252 303.397 97.8884 303.459 97.2718C303.521 96.6552 303.66 96.0736 303.876 95.5268L301.097 94.3144L301.477 93.0824L319.946 100.976L319.566 102.208ZM305.281 96.1273C305.132 96.5199 305.024 96.9304 304.959 97.3588C304.893 97.7871 304.879 98.2296 304.919 98.6862C306.066 99.6 307.319 100.206 308.675 100.503C310.032 100.801 311.321 100.734 312.543 100.301C312.755 100.226 312.955 100.139 313.142 100.041C313.328 99.9419 313.519 99.8386 313.713 99.7307L312.791 99.3119C312.693 99.386 312.595 99.45 312.498 99.504C312.401 99.5579 312.294 99.6056 312.177 99.6469C311.38 99.9288 310.542 99.882 309.664 99.5067C308.786 99.1313 308.118 98.5346 307.66 97.7165C307.593 97.5965 307.537 97.4792 307.491 97.3644C307.446 97.2497 307.406 97.1267 307.371 96.9955L305.281 96.1273Z" fill="#0C0B0D"/>
</g>
<rect width="133.735" height="55" rx="25" transform="matrix(0.942753 -0.33349 0.488357 0.872644 190.082 270.373)" fill="#212121"/>
<path d="M232.39 291.996L230.463 291.214L235.098 277.448L229.238 279.521L228.261 277.775L237.14 274.635L242.023 283.361L240.248 283.989L237.024 278.23L232.39 291.996Z" fill="#D1D2D2"/>
<g clip-path="url(#clip7_3692_13082)">
<path d="M296.362 268.32L291.478 259.594L293.254 258.966L296.477 264.725L301.112 250.959L303.038 251.741L298.404 265.507L304.264 263.434L305.241 265.179L296.362 268.32Z" fill="#D1D2D2"/>
</g>
<defs>
<filter id="filter0_d_3692_13082" x="7.49445" y="242.432" width="440.554" height="199.998" filterUnits="userSpaceOnUse" color-interpolation-filters="sRGB">
<feFlood flood-opacity="0" result="BackgroundImageFix"/>
<feColorMatrix in="SourceAlpha" type="matrix" values="0 0 0 0 0 0 0 0 0 0 0 0 0 0 0 0 0 0 127 0" result="hardAlpha"/>
<feMorphology radius="8" operator="erode" in="SourceAlpha" result="effect1_dropShadow_3692_13082"/>
<feOffset dy="16"/>
<feGaussianBlur stdDeviation="16"/>
<feComposite in2="hardAlpha" operator="out"/>
<feColorMatrix type="matrix" values="0 0 0 0 0.0470588 0 0 0 0 0.0470588 0 0 0 0 0.0509804 0 0 0 0.4 0"/>
<feBlend mode="normal" in2="BackgroundImageFix" result="effect1_dropShadow_3692_13082"/>
<feBlend mode="normal" in="SourceGraphic" in2="effect1_dropShadow_3692_13082" result="shape"/>
</filter>
<filter id="filter1_d_3692_13082" x="-6.18329" y="206.135" width="440.554" height="199.998" filterUnits="userSpaceOnUse" color-interpolation-filters="sRGB">
<feFlood flood-opacity="0" result="BackgroundImageFix"/>
<feColorMatrix in="SourceAlpha" type="matrix" values="0 0 0 0 0 0 0 0 0 0 0 0 0 0 0 0 0 0 127 0" result="hardAlpha"/>
<feMorphology radius="8" operator="erode" in="SourceAlpha" result="effect1_dropShadow_3692_13082"/>
<feOffset dy="16"/>
<feGaussianBlur stdDeviation="16"/>
<feComposite in2="hardAlpha" operator="out"/>
<feColorMatrix type="matrix" values="0 0 0 0 0.0470588 0 0 0 0 0.0470588 0 0 0 0 0.0509804 0 0 0 0.4 0"/>
<feBlend mode="normal" in2="BackgroundImageFix" result="effect1_dropShadow_3692_13082"/>
<feBlend mode="normal" in="SourceGraphic" in2="effect1_dropShadow_3692_13082" result="shape"/>
</filter>
<filter id="filter2_d_3692_13082" x="18.9699" y="56.5742" width="403.351" height="298.938" filterUnits="userSpaceOnUse" color-interpolation-filters="sRGB">
<feFlood flood-opacity="0" result="BackgroundImageFix"/>
<feColorMatrix in="SourceAlpha" type="matrix" values="0 0 0 0 0 0 0 0 0 0 0 0 0 0 0 0 0 0 127 0" result="hardAlpha"/>
<feMorphology radius="8" operator="erode" in="SourceAlpha" result="effect1_dropShadow_3692_13082"/>
<feOffset dy="16"/>
<feGaussianBlur stdDeviation="16"/>
<feComposite in2="hardAlpha" operator="out"/>
<feColorMatrix type="matrix" values="0 0 0 0 0.0470588 0 0 0 0 0.0470588 0 0 0 0 0.0509804 0 0 0 0.4 0"/>
<feBlend mode="normal" in2="BackgroundImageFix" result="effect1_dropShadow_3692_13082"/>
<feBlend mode="normal" in="SourceGraphic" in2="effect1_dropShadow_3692_13082" result="shape"/>
</filter>
<clipPath id="clip0_3692_13082">
<rect width="14.1918" height="18" fill="white" transform="matrix(0.95545 -0.295154 0.893595 0.448873 265.816 265.746)"/>
</clipPath>
<clipPath id="clip1_3692_13082">
<rect width="19.7661" height="24" rx="9.88304" transform="matrix(0.95545 -0.295154 0.893595 0.448873 262.829 374.682)" fill="white"/>
</clipPath>
<clipPath id="clip2_3692_13082">
<rect width="19.7661" height="24" rx="9.88304" transform="matrix(0.95545 -0.295154 0.893595 0.448873 320.272 356.936)" fill="white"/>
</clipPath>
<clipPath id="clip3_3692_13082">
<rect width="14.1918" height="18" fill="white" transform="matrix(0.95545 -0.295154 0.893595 0.448873 252.138 229.449)"/>
</clipPath>
<clipPath id="clip4_3692_13082">
<rect width="19.7661" height="24" rx="9.88304" transform="matrix(0.95545 -0.295154 0.893595 0.448873 249.151 338.385)" fill="white"/>
</clipPath>
<clipPath id="clip5_3692_13082">
<rect width="19.7661" height="24" rx="9.88304" transform="matrix(0.95545 -0.295154 0.893595 0.448873 306.594 320.639)" fill="white"/>
</clipPath>
<clipPath id="clip6_3692_13082">
<rect width="16.2287" height="18" fill="white" transform="matrix(0.942753 -0.33349 0.488357 0.872644 298.667 91.8809)"/>
</clipPath>
<clipPath id="clip7_3692_13082">
<rect width="22.6031" height="24" rx="11.3016" transform="matrix(0.942753 -0.33349 0.488357 0.872644 282.644 253.311)" fill="white"/>
</clipPath>
</defs>
</svg>
