<svg width="467" height="443" viewBox="0 0 467 443" fill="none" xmlns="http://www.w3.org/2000/svg">
<g filter="url(#filter0_d_3692_13082)">
<rect width="258.606" height="187" rx="20" transform="matrix(0.95545 -0.295154 0.893595 0.448873 27.6777 322.625)" fill="#009C3B"/>
</g>
<path d="M75.7894 331.158C75.2098 330.92 74.5462 330.801 73.7986 330.801C73.051 330.801 72.3407 330.906 71.6675 331.114C71.1753 331.266 70.8191 331.436 70.5989 331.625C70.3823 331.813 70.3011 332.004 70.3555 332.198C70.4134 332.392 70.6083 332.572 70.94 332.739C71.2176 332.878 71.5268 332.976 71.8676 333.033C72.2087 333.087 72.5574 333.112 72.9138 333.109C73.2668 333.105 73.6087 333.085 73.9394 333.052C74.2668 333.017 74.559 332.98 74.816 332.942L76.2295 332.736C76.5901 332.682 77.0104 332.632 77.4903 332.585C77.9738 332.537 78.4868 332.518 79.0291 332.526C79.5717 332.531 80.1173 332.585 80.6659 332.687C81.2146 332.79 81.7326 332.963 82.22 333.208C82.7819 333.49 83.1322 333.794 83.2709 334.119C83.4132 334.443 83.3177 334.765 82.9843 335.085C82.6546 335.404 82.0626 335.695 81.2085 335.959C80.4123 336.205 79.6027 336.358 78.7797 336.417C77.9603 336.475 77.1692 336.448 76.4064 336.335C75.6472 336.22 74.9615 336.027 74.3494 335.755L75.7392 335.326C76.168 335.512 76.6341 335.631 77.1374 335.684C77.641 335.735 78.1454 335.733 78.6507 335.678C79.1562 335.621 79.6297 335.524 80.0712 335.388C80.5851 335.229 80.9687 335.047 81.222 334.843C81.4718 334.637 81.5757 334.426 81.5337 334.211C81.4882 333.994 81.2759 333.791 80.8968 333.6C80.5516 333.427 80.1675 333.318 79.7446 333.273C79.3216 333.228 78.8742 333.223 78.4022 333.259C77.9302 333.295 77.4481 333.348 76.9556 333.418L75.2221 333.657C74.1199 333.808 73.0989 333.852 72.1589 333.791C71.219 333.73 70.3987 333.524 69.698 333.172C69.1158 332.879 68.7764 332.572 68.6797 332.251C68.5833 331.926 68.7008 331.615 69.0323 331.318C69.364 331.018 69.8846 330.758 70.5939 330.539C71.3105 330.318 72.0677 330.181 72.8653 330.13C73.6596 330.077 74.4261 330.103 75.1648 330.21C75.907 330.316 76.5496 330.498 77.0923 330.756L75.7894 331.158ZM89.7193 333.33C89.1909 333.493 88.6183 333.595 88.0015 333.634C87.3813 333.672 86.7668 333.641 86.158 333.54C85.5459 333.438 84.986 333.26 84.4782 333.005C84.0314 332.78 83.7634 332.569 83.674 332.372C83.5813 332.173 83.6128 331.984 83.7686 331.807C83.9243 331.63 84.1533 331.463 84.4555 331.307C84.7578 331.147 85.079 330.996 85.4188 330.853C85.8646 330.665 86.2297 330.516 86.5141 330.403C86.7987 330.288 86.9745 330.188 87.0414 330.104C87.1119 330.019 87.0507 329.928 86.8578 329.831L86.8172 329.811C86.3162 329.559 85.7804 329.409 85.2097 329.36C84.6426 329.31 84.0641 329.376 83.4742 329.559C82.8625 329.748 82.5082 329.959 82.4113 330.192C82.3143 330.425 82.3374 330.635 82.4806 330.821L80.8584 330.993C80.6017 330.688 80.5223 330.413 80.6202 330.168C80.7183 329.921 80.9302 329.705 81.256 329.519C81.5819 329.33 81.9548 329.171 82.3747 329.042C82.6425 328.959 82.9806 328.879 83.3889 328.802C83.7975 328.723 84.2561 328.679 84.7646 328.67C85.2767 328.66 85.8258 328.714 86.4119 328.832C86.998 328.951 87.6008 329.165 88.2202 329.476L93.3584 332.057L92.0772 332.453L91.0211 331.923L90.956 331.943C91.0384 332.055 91.0747 332.19 91.0649 332.35C91.0552 332.509 90.9498 332.675 90.7486 332.847C90.5474 333.019 90.2043 333.18 89.7193 333.33ZM88.8384 332.729C89.3451 332.572 89.6791 332.394 89.8403 332.193C90.0052 331.991 90.0291 331.789 89.9119 331.586C89.7984 331.382 89.5792 331.198 89.2542 331.035L88.1576 330.484C88.1642 330.532 88.1006 330.597 87.9668 330.679C87.8332 330.759 87.6656 330.845 87.464 330.937C87.2626 331.027 87.0633 331.113 86.866 331.196C86.6689 331.276 86.51 331.342 86.3894 331.393C86.0971 331.516 85.8519 331.646 85.6537 331.781C85.4558 331.913 85.3579 332.052 85.36 332.197C85.3622 332.339 85.5157 332.487 85.8203 332.64C86.2367 332.849 86.7161 332.956 87.2587 332.961C87.8015 332.964 88.3281 332.886 88.8384 332.729ZM86.5797 325.716L96.9779 330.939L95.6968 331.335L85.2986 326.112L86.5797 325.716ZM102.636 329.323C101.941 329.538 101.163 329.645 100.303 329.645C99.4391 329.642 98.5558 329.536 97.6529 329.326C96.7466 329.115 95.8805 328.802 95.0546 328.387C94.2355 327.975 93.6749 327.572 93.3727 327.176C93.0706 326.781 93.0232 326.418 93.2305 326.088C93.4378 325.757 93.8925 325.484 94.5947 325.267C95.1375 325.099 95.651 325.009 96.1351 324.997C96.6195 324.982 97.0515 325.002 97.4312 325.058C97.8112 325.11 98.1159 325.156 98.3454 325.195L98.454 325.162L94.6156 323.234L95.8967 322.838L106.295 328.061L105.057 328.444L103.859 327.842L103.707 327.889C103.755 327.989 103.801 328.121 103.843 328.283C103.883 328.444 103.826 328.616 103.673 328.801C103.517 328.984 103.171 329.158 102.636 329.323ZM101.733 328.729C102.247 328.57 102.556 328.373 102.66 328.138C102.761 327.901 102.68 327.641 102.418 327.36C102.152 327.077 101.725 326.787 101.136 326.492C100.554 326.199 99.9541 325.971 99.3365 325.808C98.7155 325.643 98.1058 325.554 97.5074 325.541C96.9056 325.526 96.3442 325.599 95.823 325.76C95.2802 325.928 94.9581 326.133 94.8568 326.376C94.7558 326.616 94.8365 326.875 95.0989 327.154C95.3616 327.43 95.7671 327.705 96.3155 327.981C96.8706 328.26 97.4654 328.485 98.0999 328.657C98.7347 328.826 99.3649 328.922 99.9906 328.946C100.617 328.967 101.197 328.895 101.733 328.729ZM112.369 326.317C111.616 326.549 110.788 326.669 109.885 326.676C108.985 326.682 108.075 326.583 107.154 326.379C106.237 326.173 105.375 325.868 104.57 325.464C103.757 325.056 103.206 324.651 102.915 324.249C102.627 323.847 102.598 323.474 102.828 323.131C103.061 322.787 103.554 322.499 104.307 322.266C105.059 322.034 105.886 321.915 106.785 321.909C107.689 321.901 108.601 322.001 109.521 322.208C110.446 322.414 111.314 322.721 112.126 323.129C112.932 323.534 113.477 323.937 113.761 324.338C114.048 324.738 114.076 325.11 113.843 325.454C113.613 325.796 113.122 326.084 112.369 326.317ZM111.293 325.776C111.865 325.599 112.198 325.385 112.293 325.133C112.388 324.881 112.301 324.616 112.031 324.337C111.762 324.058 111.367 323.787 110.845 323.525C110.324 323.263 109.75 323.047 109.122 322.875C108.495 322.704 107.857 322.606 107.211 322.58C106.564 322.555 105.955 322.63 105.383 322.807C104.811 322.984 104.479 323.199 104.388 323.452C104.296 323.706 104.387 323.973 104.66 324.254C104.933 324.535 105.33 324.806 105.851 325.068C106.372 325.33 106.945 325.546 107.569 325.715C108.193 325.885 108.827 325.982 109.47 326.005C110.113 326.029 110.721 325.952 111.293 325.776ZM125.899 322.137C125.095 322.385 124.237 322.516 123.322 322.529C122.408 322.54 121.494 322.443 120.58 322.24C119.666 322.033 118.81 321.729 118.011 321.328C117.212 320.927 116.664 320.525 116.366 320.123C116.068 319.718 116.029 319.343 116.248 318.998C116.467 318.65 116.953 318.36 117.706 318.127C118.14 317.993 118.637 317.895 119.196 317.832C119.754 317.769 120.36 317.76 121.012 317.806C121.661 317.85 122.337 317.965 123.041 318.151C123.745 318.338 124.46 318.614 125.188 318.979L125.696 319.234L119.268 321.22L118.233 320.699L123.357 319.116C122.917 318.895 122.431 318.727 121.897 318.612C121.367 318.495 120.831 318.44 120.287 318.446C119.747 318.451 119.246 318.525 118.782 318.668C118.272 318.826 117.949 319.021 117.813 319.256C117.678 319.487 117.698 319.728 117.875 319.978C118.051 320.228 118.355 320.461 118.785 320.677L119.475 321.024C120.064 321.32 120.672 321.537 121.299 321.676C121.926 321.812 122.541 321.873 123.145 321.859C123.746 321.844 124.305 321.756 124.823 321.596C125.159 321.492 125.419 321.376 125.603 321.248C125.786 321.117 125.888 320.976 125.908 320.825C125.924 320.671 125.851 320.51 125.689 320.34L127.251 320.121C127.514 320.359 127.64 320.6 127.63 320.844C127.617 321.087 127.467 321.32 127.181 321.543C126.891 321.765 126.463 321.963 125.899 322.137ZM131.138 320.387L123.339 316.469L124.577 316.087L125.796 316.699L125.904 316.666C125.662 316.403 125.619 316.154 125.776 315.918C125.93 315.682 126.278 315.479 126.821 315.311C127.371 315.142 127.945 315.059 128.545 315.063C129.144 315.065 129.755 315.138 130.377 315.284L130.464 315.257C130.275 314.989 130.275 314.729 130.466 314.478C130.652 314.225 131.044 314.007 131.641 313.822C132.387 313.592 133.215 313.513 134.126 313.586C135.033 313.657 135.946 313.923 136.863 314.384L142.082 317.006L140.801 317.402L135.582 314.78C135.006 314.491 134.427 314.336 133.843 314.316C133.259 314.296 132.739 314.356 132.283 314.497C131.697 314.678 131.409 314.902 131.418 315.168C131.425 315.432 131.68 315.691 132.184 315.945L137.262 318.495L135.959 318.898L130.617 316.215C130.174 315.992 129.663 315.86 129.085 315.819C128.503 315.776 127.969 315.83 127.485 315.98C127.152 316.082 126.923 316.22 126.8 316.393C126.68 316.565 126.678 316.752 126.795 316.955C126.913 317.154 127.163 317.35 127.545 317.543L132.419 319.991L131.138 320.387ZM148.898 314.9L138.5 309.677L142.387 308.476C143.161 308.237 143.925 308.103 144.679 308.073C145.429 308.042 146.137 308.094 146.803 308.228C147.465 308.362 148.05 308.556 148.558 308.811C149.005 309.035 149.289 309.247 149.41 309.446C149.534 309.643 149.544 309.827 149.438 309.997C149.336 310.166 149.166 310.32 148.929 310.459L149.03 310.51C149.391 310.415 149.844 310.366 150.391 310.361C150.938 310.357 151.517 310.415 152.128 310.533C152.739 310.652 153.318 310.849 153.866 311.125C154.388 311.387 154.73 311.661 154.893 311.949C155.056 312.236 154.986 312.525 154.683 312.817C154.38 313.108 153.791 313.389 152.915 313.659L148.898 314.9ZM149.127 313.923L151.798 313.098C152.678 312.827 153.143 312.554 153.194 312.28C153.245 312.003 153.042 311.75 152.585 311.521C152.233 311.344 151.812 311.21 151.323 311.12C150.83 311.028 150.316 310.992 149.782 311.011C149.245 311.029 148.733 311.113 148.248 311.262L145.512 312.108L149.127 313.923ZM144.416 311.557L146.913 310.785C147.318 310.66 147.609 310.51 147.786 310.334C147.966 310.158 148.017 309.972 147.938 309.777C147.863 309.58 147.642 309.39 147.277 309.206C146.82 308.977 146.262 308.835 145.604 308.78C144.942 308.724 144.242 308.809 143.504 309.038L140.963 309.822L144.416 311.557ZM158.667 311.883L150.868 307.965L152.149 307.569L159.948 311.487L158.667 311.883ZM150.22 307.111C149.97 307.188 149.675 307.215 149.335 307.191C148.999 307.166 148.719 307.097 148.496 306.985C148.272 306.873 148.17 306.749 148.188 306.614C148.21 306.479 148.345 306.372 148.595 306.295C148.845 306.218 149.138 306.192 149.474 306.217C149.814 306.241 150.096 306.309 150.32 306.421C150.543 306.533 150.644 306.657 150.622 306.793C150.604 306.928 150.47 307.034 150.22 307.111ZM158.122 305.724L159.138 306.234L154.817 307.569L153.801 307.059L158.122 305.724ZM153.192 305.732L154.473 305.336L161.906 309.07C162.245 309.24 162.551 309.351 162.825 309.404C163.1 309.453 163.349 309.467 163.573 309.444C163.797 309.419 164.004 309.377 164.192 309.319C164.333 309.276 164.442 309.236 164.519 309.202C164.592 309.165 164.651 309.136 164.695 309.114L166.032 309.574C165.976 309.617 165.885 309.669 165.76 309.733C165.638 309.798 165.458 309.867 165.219 309.941C164.857 310.053 164.43 310.126 163.937 310.16C163.447 310.193 162.94 310.17 162.414 310.091C161.892 310.011 161.404 309.856 160.95 309.629L153.192 305.732ZM171.309 308.109C170.527 308.351 169.681 308.472 168.771 308.473C167.861 308.474 166.952 308.369 166.042 308.159C165.132 307.948 164.288 307.648 163.509 307.256C162.717 306.859 162.174 306.459 161.879 306.059C161.585 305.656 161.547 305.281 161.766 304.936C161.985 304.589 162.471 304.298 163.224 304.066C163.81 303.885 164.44 303.773 165.114 303.729C165.788 303.686 166.457 303.71 167.123 303.8C167.789 303.891 168.402 304.048 168.962 304.27L167.681 304.666C167.228 304.518 166.696 304.427 166.085 304.393C165.474 304.357 164.887 304.425 164.322 304.6C163.823 304.754 163.507 304.951 163.374 305.189C163.242 305.425 163.29 305.686 163.521 305.972C163.751 306.255 164.161 306.544 164.75 306.84C165.352 307.143 165.978 307.375 166.628 307.537C167.281 307.698 167.917 307.783 168.537 307.792C169.16 307.799 169.726 307.725 170.232 307.569C170.565 307.466 170.813 307.345 170.976 307.207C171.139 307.069 171.214 306.919 171.199 306.759C171.184 306.599 171.074 306.435 170.869 306.268L172.15 305.872C172.538 306.126 172.774 306.389 172.857 306.663C172.94 306.934 172.857 307.196 172.606 307.449C172.356 307.699 171.924 307.919 171.309 308.109ZM179.848 305.471C179.095 305.704 178.267 305.824 177.364 305.831C176.464 305.837 175.554 305.738 174.633 305.534C173.715 305.328 172.854 305.023 172.048 304.619C171.236 304.21 170.684 303.806 170.393 303.404C170.106 303.001 170.077 302.629 170.306 302.286C170.54 301.942 171.032 301.654 171.785 301.421C172.538 301.189 173.364 301.069 174.264 301.063C175.167 301.056 176.079 301.156 177 301.363C177.924 301.569 178.793 301.876 179.605 302.284C180.411 302.689 180.955 303.092 181.239 303.493C181.527 303.893 181.554 304.265 181.321 304.608C181.092 304.951 180.601 305.239 179.848 305.471ZM178.772 304.931C179.343 304.754 179.677 304.54 179.772 304.288C179.867 304.036 179.779 303.771 179.51 303.492C179.241 303.212 178.845 302.942 178.324 302.68C177.803 302.418 177.228 302.202 176.601 302.03C175.973 301.859 175.336 301.76 174.689 301.735C174.043 301.71 173.433 301.785 172.862 301.962C172.29 302.139 171.958 302.354 171.866 302.607C171.775 302.861 171.866 303.128 172.138 303.409C172.411 303.69 172.808 303.961 173.33 304.223C173.851 304.485 174.423 304.7 175.048 304.87C175.672 305.04 176.305 305.136 176.949 305.16C177.592 305.184 178.2 305.107 178.772 304.931ZM185.419 303.618L177.621 299.701L178.902 299.305L186.701 303.223L185.419 303.618ZM176.972 298.847C176.723 298.924 176.428 298.95 176.088 298.926C175.751 298.901 175.472 298.833 175.248 298.72C175.025 298.608 174.922 298.485 174.94 298.35C174.962 298.214 175.098 298.108 175.348 298.031C175.597 297.953 175.891 297.927 176.227 297.953C176.567 297.977 176.849 298.045 177.072 298.157C177.296 298.269 177.396 298.393 177.374 298.529C177.356 298.664 177.222 298.77 176.972 298.847ZM185.637 299.745L190.328 302.102L189.047 302.498L181.249 298.58L182.486 298.198L183.705 298.81L183.813 298.776C183.613 298.517 183.591 298.266 183.749 298.022C183.904 297.777 184.296 297.557 184.925 297.362C185.49 297.188 186.092 297.089 186.732 297.067C187.369 297.044 188.023 297.105 188.695 297.252C189.364 297.397 190.03 297.636 190.693 297.969L195.648 300.458L194.367 300.854L189.493 298.406C188.881 298.098 188.233 297.911 187.551 297.844C186.866 297.776 186.226 297.833 185.633 298.017C185.224 298.143 184.941 298.298 184.785 298.48C184.632 298.662 184.623 298.861 184.756 299.078C184.89 299.295 185.183 299.517 185.637 299.745ZM199.005 299.488C198.737 299.57 198.417 299.596 198.046 299.565C197.675 299.535 197.364 299.456 197.114 299.33C196.863 299.205 196.744 299.067 196.756 298.918C196.769 298.768 196.909 298.652 197.177 298.569C197.445 298.487 197.764 298.461 198.135 298.492C198.507 298.522 198.817 298.601 199.068 298.727C199.234 298.81 199.341 298.9 199.389 298.998C199.441 299.095 199.435 299.187 199.371 299.275C199.308 299.361 199.186 299.432 199.005 299.488ZM193.217 296.58C192.949 296.663 192.629 296.689 192.258 296.658C191.887 296.627 191.576 296.549 191.325 296.423C191.075 296.297 190.956 296.159 190.968 296.01C190.981 295.861 191.121 295.745 191.389 295.662C191.657 295.579 191.976 295.553 192.347 295.584C192.718 295.615 193.029 295.693 193.28 295.819C193.446 295.902 193.553 295.993 193.601 296.091C193.653 296.187 193.647 296.28 193.583 296.368C193.52 296.454 193.397 296.524 193.217 296.58Z" fill="#0C0B0D"/>
<path d="M119.266 351.864L116.523 350.321L115.537 351.966L112.648 351.4L114.196 349.872L110.059 350.1L109.353 348.86L113.644 348.875L110.493 347.457L112.683 346.781L115.419 348.327L116.405 346.681L119.293 347.247L117.754 348.773L121.883 348.548L122.589 349.788L118.298 349.773L121.457 351.188L119.266 351.864ZM132.21 347.866L129.466 346.323L128.48 347.968L125.592 347.402L127.139 345.874L123.002 346.101L122.296 344.861L126.587 344.877L123.436 343.459L125.627 342.782L128.362 344.328L129.348 342.683L132.237 343.249L130.698 344.774L134.826 344.549L135.532 345.789L131.241 345.774L134.4 347.189L132.21 347.866ZM145.153 343.868L142.409 342.324L141.424 343.969L138.535 343.404L140.082 341.875L135.946 342.103L135.24 340.863L139.531 340.878L136.38 339.46L138.57 338.784L141.306 340.33L142.291 338.685L145.18 339.25L143.641 340.776L147.769 340.551L148.476 341.791L144.185 341.776L147.344 343.191L145.153 343.868ZM158.097 339.869L155.353 338.326L154.367 339.971L151.479 339.405L153.026 337.877L148.889 338.105L148.183 336.865L152.474 336.88L149.323 335.462L151.514 334.785L154.249 336.331L155.235 334.686L158.123 335.252L156.584 336.778L160.713 336.553L161.419 337.793L157.128 337.777L160.287 339.193L158.097 339.869ZM171.04 335.871L168.296 334.327L167.31 335.973L164.422 335.407L165.969 333.879L161.833 334.106L161.126 332.866L165.417 332.881L162.266 331.464L164.457 330.787L167.193 332.333L168.178 330.688L171.067 331.254L169.528 332.779L173.656 332.554L174.362 333.794L170.071 333.779L173.23 335.194L171.04 335.871ZM192.181 334.876L176.584 327.041L183.261 324.978C184.488 324.599 185.681 324.368 186.841 324.286C188.001 324.204 189.09 324.251 190.106 324.427C191.118 324.6 192.015 324.883 192.797 325.276C193.406 325.582 193.811 325.891 194.013 326.204C194.209 326.514 194.227 326.813 194.065 327.102C193.904 327.387 193.594 327.649 193.135 327.89L193.287 327.966C193.948 327.783 194.71 327.684 195.573 327.668C196.442 327.651 197.329 327.729 198.235 327.902C199.136 328.073 199.97 328.351 200.737 328.736C201.564 329.152 202.083 329.591 202.293 330.053C202.504 330.511 202.371 330.966 201.894 331.418C201.418 331.87 200.555 332.289 199.306 332.675L192.181 334.876ZM193.011 332.432L195.886 331.544C196.868 331.241 197.41 330.931 197.51 330.616C197.605 330.298 197.358 329.992 196.769 329.696C196.338 329.479 195.846 329.322 195.293 329.225C194.74 329.128 194.164 329.096 193.563 329.129C192.968 329.161 192.389 329.263 191.824 329.438L188.868 330.351L193.011 332.432ZM186.637 329.23L189.251 328.423C189.734 328.273 190.084 328.101 190.301 327.907C190.519 327.708 190.589 327.501 190.511 327.286C190.439 327.069 190.198 326.857 189.787 326.651C189.223 326.368 188.554 326.206 187.78 326.165C187.011 326.122 186.236 326.221 185.454 326.463L182.775 327.291L186.637 329.23ZM193.828 323.919L191.109 322.554L204.806 318.323L207.525 319.688L202.419 321.266L215.297 327.735L211.812 328.811L198.934 322.342L193.828 323.919ZM226.475 316.058L222.908 317.16C222.412 316.964 221.895 316.812 221.359 316.706C220.818 316.597 220.271 316.531 219.717 316.509C219.164 316.486 218.617 316.507 218.078 316.57C217.544 316.632 217.038 316.737 216.56 316.885C215.697 317.151 215.146 317.484 214.906 317.884C214.662 318.281 214.744 318.725 215.153 319.216C215.556 319.705 216.299 320.221 217.38 320.765C218.492 321.323 219.603 321.738 220.712 322.009C221.827 322.278 222.898 322.411 223.924 322.407C224.95 322.403 225.884 322.271 226.726 322.011C227.198 321.865 227.577 321.701 227.862 321.518C228.152 321.334 228.343 321.137 228.434 320.927C228.521 320.715 228.505 320.496 228.386 320.269C228.273 320.04 228.049 319.809 227.714 319.574L231.296 318.48C231.919 318.868 232.379 319.286 232.675 319.734C232.971 320.178 233.072 320.627 232.976 321.081C232.88 321.531 232.559 321.964 232.011 322.38C231.464 322.792 230.655 323.163 229.586 323.494C228.098 323.953 226.453 324.206 224.651 324.252C222.855 324.296 221.02 324.124 219.149 323.734C217.282 323.343 215.501 322.721 213.805 321.869C212.105 321.015 211 320.182 210.49 319.371C209.981 318.561 210.001 317.818 210.549 317.142C211.092 316.463 212.096 315.897 213.562 315.445C214.528 315.146 215.551 314.933 216.63 314.806C217.714 314.677 218.821 314.636 219.949 314.683C221.072 314.727 222.184 314.863 223.287 315.091C224.394 315.317 225.457 315.64 226.475 316.058Z" fill="#0C0B0D"/>
<path d="M144.736 366.602L142.713 365.544L141.902 366.674L140.973 366.492L141.939 365.39L138.991 365.497L138.765 365.098L141.745 365.057L139.618 364.031L140.33 363.811L142.353 364.869L143.164 363.739L144.093 363.921L143.127 365.023L146.074 364.916L146.301 365.315L143.321 365.356L145.448 366.382L144.736 366.602ZM151.424 364.536L149.401 363.478L148.59 364.608L147.661 364.426L148.627 363.324L145.68 363.431L145.454 363.032L148.433 362.991L146.306 361.965L147.018 361.745L149.041 362.803L149.852 361.673L150.781 361.855L149.815 362.957L152.763 362.85L152.989 363.249L150.009 363.29L152.136 364.316L151.424 364.536ZM158.112 362.47L156.09 361.411L155.278 362.541L154.349 362.36L155.316 361.258L152.368 361.365L152.142 360.966L155.121 360.925L152.994 359.899L153.707 359.679L155.729 360.737L156.54 359.607L157.469 359.789L156.503 360.891L159.451 360.784L159.677 361.183L156.698 361.224L158.824 362.25L158.112 362.47ZM164.8 360.404L162.778 359.345L161.966 360.475L161.037 360.294L162.004 359.192L159.056 359.299L158.83 358.9L161.809 358.859L159.682 357.833L160.395 357.613L162.417 358.671L163.229 357.541L164.158 357.723L163.191 358.825L166.139 358.718L166.365 359.117L163.386 359.158L165.513 360.184L164.8 360.404ZM171.488 358.338L169.466 357.279L168.655 358.409L167.725 358.228L168.692 357.126L165.744 357.233L165.518 356.834L168.497 356.793L166.37 355.767L167.083 355.547L169.105 356.605L169.917 355.475L170.846 355.657L169.879 356.759L172.827 356.652L173.053 357.051L170.074 357.092L172.201 358.118L171.488 358.338ZM178.176 356.272L176.154 355.213L175.343 356.343L174.414 356.162L175.38 355.06L172.432 355.166L172.206 354.768L175.185 354.727L173.059 353.701L173.771 353.481L175.794 354.539L176.605 353.409L177.534 353.59L176.568 354.693L179.515 354.586L179.741 354.984L176.762 355.025L178.889 356.051L178.176 356.272ZM184.865 354.206L182.842 353.147L182.031 354.277L181.102 354.096L182.068 352.993L179.12 353.1L178.894 352.702L181.874 352.661L179.747 351.635L180.459 351.415L182.482 352.473L183.293 351.343L184.222 351.524L183.256 352.627L186.203 352.52L186.429 352.918L183.45 352.959L185.577 353.985L184.865 354.206ZM194.985 346.927L195.873 346.653L201.897 349.679C202.516 349.99 202.915 350.316 203.093 350.657C203.269 350.997 203.22 351.323 202.947 351.636C202.675 351.946 202.173 352.214 201.441 352.44C200.713 352.665 199.931 352.792 199.095 352.822C198.26 352.852 197.444 352.793 196.648 352.645C195.852 352.497 195.144 352.267 194.525 351.956L188.501 348.93L189.389 348.656L195.356 351.653C195.839 351.895 196.385 352.076 196.995 352.195C197.603 352.313 198.223 352.361 198.858 352.341C199.495 352.319 200.096 352.221 200.659 352.047C201.223 351.873 201.607 351.667 201.812 351.428C202.017 351.189 202.046 350.94 201.897 350.681C201.75 350.419 201.434 350.167 200.951 349.924L194.985 346.927ZM206.012 345.366C205.451 345.128 204.81 345 204.086 344.981C203.363 344.962 202.679 345.051 202.037 345.25C201.584 345.39 201.257 345.55 201.057 345.729C200.86 345.908 200.793 346.092 200.854 346.282C200.915 346.47 201.109 346.645 201.435 346.809C201.675 346.929 201.941 347.018 202.232 347.074C202.524 347.131 202.828 347.163 203.145 347.171C203.462 347.176 203.781 347.167 204.101 347.142C204.424 347.117 204.733 347.084 205.03 347.043L206.331 346.864C206.722 346.808 207.134 346.764 207.569 346.73C208.004 346.697 208.444 346.688 208.89 346.704C209.336 346.718 209.773 346.769 210.201 346.858C210.629 346.944 211.032 347.083 211.412 347.273C211.897 347.517 212.2 347.778 212.318 348.056C212.437 348.334 212.359 348.609 212.083 348.879C211.805 349.147 211.314 349.39 210.611 349.607C209.949 349.812 209.272 349.938 208.58 349.986C207.885 350.032 207.216 350.007 206.573 349.91C205.93 349.813 205.352 349.65 204.837 349.42L205.749 349.138C206.139 349.308 206.569 349.421 207.04 349.478C207.51 349.534 207.988 349.541 208.473 349.497C208.955 349.451 209.415 349.361 209.852 349.226C210.336 349.076 210.691 348.905 210.917 348.713C211.143 348.518 211.227 348.319 211.17 348.116C211.113 347.91 210.903 347.715 210.538 347.532C210.23 347.378 209.887 347.274 209.509 347.223C209.128 347.17 208.712 347.156 208.263 347.179C207.817 347.202 207.338 347.248 206.826 347.317L205.342 347.516C204.366 347.644 203.479 347.679 202.682 347.62C201.885 347.561 201.194 347.385 200.611 347.092C200.122 346.847 199.832 346.588 199.74 346.316C199.649 346.042 199.739 345.778 200.01 345.527C200.281 345.272 200.715 345.053 201.314 344.868C201.919 344.681 202.558 344.568 203.23 344.528C203.903 344.488 204.558 344.518 205.195 344.617C205.832 344.713 206.39 344.874 206.871 345.101L206.012 345.366ZM218.816 346.947L215.966 347.827L206.867 343.257L209.888 342.323C210.816 342.037 211.79 341.882 212.81 341.861C213.833 341.838 214.858 341.941 215.885 342.172C216.912 342.403 217.898 342.755 218.843 343.23C219.796 343.709 220.435 344.176 220.758 344.631C221.081 345.084 221.081 345.508 220.759 345.903C220.439 346.297 219.791 346.645 218.816 346.947ZM216.108 347.178L218.017 346.588C218.853 346.33 219.399 346.036 219.655 345.707C219.91 345.378 219.893 345.027 219.604 344.653C219.314 344.278 218.774 343.893 217.983 343.495C217.195 343.102 216.38 342.806 215.539 342.607C214.701 342.407 213.862 342.314 213.021 342.329C212.184 342.342 211.371 342.471 210.583 342.714L208.502 343.357L216.108 347.178Z" fill="#0C0B0D"/>
<g clip-path="url(#clip0_3692_13082)">
<path d="M290.826 267.413L289.035 267.178C288.594 266.888 287.976 266.681 287.179 266.555C286.382 266.43 285.765 266.475 285.329 266.692L283.538 266.457C283.609 266.362 283.704 266.278 283.824 266.205C283.944 266.132 284.099 266.066 284.287 266.008C284.993 265.79 285.887 265.751 286.967 265.893C288.048 266.035 289.008 266.317 289.845 266.737C290.069 266.85 290.259 266.961 290.417 267.07C290.575 267.18 290.711 267.294 290.826 267.413ZM294.745 267.915L292.987 267.697C293.021 267.424 292.984 267.147 292.877 266.868C292.769 266.588 292.568 266.295 292.275 265.987C290.676 265.566 289.104 265.324 287.559 265.262C286.014 265.2 284.7 265.337 283.617 265.671C283.344 265.755 283.098 265.85 282.879 265.953C282.66 266.057 282.468 266.171 282.303 266.294L280.388 266.043C280.585 265.829 280.838 265.635 281.148 265.462C281.458 265.289 281.834 265.135 282.276 264.998C283.698 264.559 285.431 264.402 287.475 264.527C289.519 264.652 291.533 265.011 293.518 265.603C293.96 266.001 294.287 266.396 294.498 266.788C294.709 267.181 294.791 267.556 294.745 267.915ZM299.149 269.898L293.995 269.234C293.788 269.398 293.548 269.547 293.275 269.681C293.002 269.815 292.687 269.937 292.329 270.048C290.907 270.487 289.175 270.644 287.131 270.519C285.087 270.393 283.073 270.035 281.088 269.443C280.694 269.084 280.393 268.731 280.186 268.382C279.979 268.034 279.868 267.699 279.852 267.378L276.422 266.915L276.274 266.2L299.002 269.183L299.149 269.898ZM281.581 267.605C281.598 267.835 281.667 268.072 281.788 268.316C281.908 268.56 282.089 268.807 282.331 269.059C283.93 269.48 285.502 269.721 287.047 269.783C288.592 269.845 289.906 269.709 290.989 269.374C291.177 269.316 291.347 269.252 291.498 269.183C291.649 269.114 291.802 269.042 291.957 268.967L290.811 268.804C290.741 268.853 290.668 268.896 290.59 268.933C290.513 268.971 290.422 269.006 290.319 269.038C289.612 269.256 288.719 269.294 287.638 269.152C286.557 269.01 285.598 268.729 284.76 268.308C284.638 268.246 284.527 268.185 284.43 268.125C284.332 268.064 284.236 267.999 284.141 267.928L281.581 267.605Z" fill="#0C0B0D"/>
</g>
<rect width="116.949" height="55" rx="25" transform="matrix(0.95545 -0.295154 0.893595 0.448873 238.326 373.539)" fill="#212121"/>
<g clip-path="url(#clip1_3692_13082)">
<path d="M291.95 382.346L289.597 382.058L288.359 374.031L283.166 375.635L281.379 374.738L289.247 372.307L298.183 376.796L296.61 377.282L290.712 374.319L291.95 382.346Z" fill="#D1D2D2"/>
</g>
<g clip-path="url(#clip2_3692_13082)">
<path d="M348.185 364.249L339.249 359.76L340.823 359.274L346.72 362.236L345.483 354.21L347.835 354.498L349.073 362.524L354.266 360.92L356.054 361.818L348.185 364.249Z" fill="#D1D2D2"/>
</g>
<g filter="url(#filter1_d_3692_13082)">
<rect width="258.606" height="187" rx="20" transform="matrix(0.95545 -0.295154 0.893595 0.448873 14 286.328)" fill="#FFA726"/>
</g>
<path d="M62.1117 294.861C61.532 294.623 60.8684 294.504 60.1209 294.504C59.3733 294.505 58.6629 294.609 57.9898 294.817C57.4976 294.969 57.1414 295.139 56.9211 295.328C56.7045 295.516 56.6234 295.707 56.6778 295.902C56.7357 296.095 56.9306 296.275 57.2623 296.442C57.5398 296.581 57.849 296.679 58.1899 296.736C58.531 296.79 58.8797 296.815 59.2361 296.812C59.5891 296.808 59.931 296.789 60.2617 296.755C60.589 296.72 60.8812 296.683 61.1383 296.645L62.5518 296.439C62.9124 296.385 63.3327 296.335 63.8126 296.288C64.2961 296.24 64.809 296.221 65.3514 296.229C65.894 296.234 66.4396 296.288 66.9882 296.391C67.5368 296.493 68.0549 296.666 68.5423 296.911C69.1042 297.194 69.4545 297.497 69.5932 297.822C69.7355 298.146 69.64 298.468 69.3066 298.788C68.9768 299.107 68.3849 299.398 67.5308 299.662C66.7346 299.908 65.925 300.061 65.102 300.12C64.2826 300.178 63.4915 300.151 62.7286 300.038C61.9694 299.923 61.2838 299.73 60.6717 299.458L62.0614 299.029C62.4903 299.215 62.9564 299.334 63.4597 299.388C63.9633 299.438 64.4677 299.436 64.9729 299.381C65.4784 299.324 65.9519 299.227 66.3935 299.091C66.9074 298.932 67.291 298.75 67.5442 298.546C67.7941 298.34 67.898 298.129 67.8559 297.914C67.8105 297.698 67.5982 297.494 67.2191 297.304C66.8738 297.13 66.4897 297.021 66.0668 296.976C65.6439 296.931 65.1965 296.926 64.7245 296.962C64.2525 296.998 63.7703 297.051 63.2779 297.121L61.5443 297.36C60.4422 297.511 59.4211 297.556 58.4812 297.494C57.5413 297.433 56.721 297.227 56.0203 296.875C55.4381 296.582 55.0987 296.275 55.002 295.954C54.9056 295.629 55.0231 295.318 55.3546 295.021C55.6863 294.721 56.2069 294.461 56.9162 294.242C57.6328 294.021 58.3899 293.884 59.1876 293.833C59.9819 293.78 60.7484 293.807 61.487 293.913C62.2293 294.019 62.8718 294.201 63.4146 294.459L62.1117 294.861ZM76.0416 297.033C75.5132 297.196 74.9406 297.298 74.3238 297.337C73.7035 297.375 73.089 297.344 72.4803 297.244C71.8682 297.142 71.3082 296.963 70.8005 296.708C70.3537 296.484 70.0856 296.273 69.9963 296.075C69.9035 295.876 69.935 295.688 70.0908 295.51C70.2466 295.333 70.4756 295.166 70.7777 295.01C71.0801 294.851 71.4012 294.699 71.7411 294.556C72.1868 294.369 72.5519 294.219 72.8363 294.106C73.121 293.991 73.2967 293.891 73.3636 293.807C73.4342 293.722 73.373 293.631 73.18 293.535L73.1394 293.514C72.6385 293.263 72.1026 293.112 71.5319 293.063C70.9649 293.013 70.3863 293.08 69.7964 293.262C69.1848 293.451 68.8305 293.662 68.7335 293.895C68.6366 294.128 68.6597 294.338 68.8029 294.524L67.1807 294.696C66.9239 294.391 66.8445 294.116 66.9424 293.872C67.0405 293.624 67.2525 293.408 67.5782 293.222C67.9042 293.034 68.2771 292.874 68.6969 292.745C68.9647 292.662 69.3028 292.582 69.7112 292.506C70.1198 292.426 70.5783 292.382 71.0869 292.373C71.599 292.363 72.1481 292.417 72.7342 292.535C73.3203 292.654 73.923 292.868 74.5425 293.18L79.6806 295.761L78.3995 296.156L77.3434 295.626L77.2782 295.646C77.3606 295.758 77.3969 295.894 77.3872 296.053C77.3775 296.213 77.272 296.378 77.0708 296.55C76.8696 296.722 76.5266 296.883 76.0416 297.033ZM75.1607 296.432C75.6673 296.275 76.0013 296.097 76.1626 295.896C76.3275 295.694 76.3513 295.492 76.2342 295.289C76.1207 295.085 75.9014 294.902 75.5765 294.738L74.4798 294.187C74.4865 294.235 74.4229 294.3 74.2891 294.382C74.1555 294.462 73.9879 294.548 73.7863 294.641C73.5849 294.73 73.3855 294.817 73.1882 294.899C72.9912 294.98 72.8323 295.045 72.7117 295.096C72.4194 295.219 72.1741 295.349 71.976 295.484C71.7781 295.617 71.6802 295.755 71.6822 295.9C71.6845 296.042 71.838 296.19 72.1426 296.343C72.5589 296.552 73.0384 296.659 73.581 296.665C74.1238 296.667 74.6504 296.59 75.1607 296.432ZM72.902 289.419L83.3002 294.642L82.019 295.038L71.6208 289.815L72.902 289.419ZM88.9579 293.027C88.263 293.241 87.4854 293.348 86.6251 293.348C85.7613 293.345 84.878 293.239 83.9751 293.029C83.0689 292.818 82.2028 292.505 81.3769 292.09C80.5577 291.678 79.9971 291.275 79.695 290.879C79.3929 290.484 79.3455 290.121 79.5528 289.791C79.7601 289.46 80.2148 289.187 80.9169 288.97C81.4598 288.802 81.9733 288.712 82.4574 288.7C82.9417 288.685 83.3738 288.705 83.7535 288.761C84.1334 288.814 84.4382 288.86 84.6677 288.898L84.7762 288.865L80.9378 286.937L82.219 286.541L92.6172 291.764L91.3795 292.147L90.1812 291.545L90.0292 291.592C90.0773 291.692 90.1228 291.824 90.1657 291.986C90.2052 292.147 90.1485 292.32 89.9957 292.504C89.8394 292.687 89.4935 292.861 88.9579 293.027ZM88.0552 292.432C88.5691 292.273 88.8782 292.076 88.9824 291.841C89.0832 291.604 89.0025 291.345 88.7403 291.063C88.4747 290.78 88.0474 290.49 87.4584 290.195C86.8762 289.902 86.2763 289.674 85.6587 289.511C85.0377 289.346 84.4281 289.257 83.8297 289.244C83.2279 289.229 82.6665 289.302 82.1453 289.463C81.6024 289.631 81.2804 289.836 81.1791 290.079C81.078 290.319 81.1587 290.578 81.4212 290.857C81.6839 291.133 82.0894 291.408 82.6377 291.684C83.1929 291.963 83.7877 292.188 84.4222 292.36C85.057 292.529 85.6872 292.625 86.3129 292.649C86.9388 292.67 87.5196 292.598 88.0552 292.432ZM98.6915 290.02C97.9387 290.252 97.1107 290.372 96.2074 290.379C95.3077 290.385 94.3974 290.286 93.4764 290.082C92.559 289.877 91.6976 289.572 90.892 289.167C90.0796 288.759 89.5279 288.354 89.2369 287.952C88.9495 287.55 88.9205 287.177 89.15 286.834C89.3831 286.49 89.8761 286.202 90.6289 285.97C91.3816 285.737 92.2079 285.618 93.1075 285.612C94.0108 285.604 94.9229 285.704 95.8436 285.911C96.768 286.117 97.6363 286.424 98.4487 286.833C99.2543 287.237 99.7991 287.64 100.083 288.041C100.371 288.441 100.398 288.813 100.165 289.157C99.9354 289.499 99.4443 289.787 98.6915 290.02ZM97.6151 289.479C98.187 289.302 98.5204 289.088 98.6153 288.836C98.7103 288.585 98.6231 288.319 98.3536 288.04C98.0842 287.761 97.6888 287.49 97.1675 287.228C96.6463 286.966 96.0719 286.75 95.4444 286.578C94.8168 286.407 94.1797 286.309 93.533 286.283C92.8863 286.258 92.277 286.334 91.7052 286.51C91.1334 286.687 90.8017 286.902 90.7101 287.155C90.6185 287.409 90.7091 287.676 90.982 287.957C91.2548 288.238 91.6519 288.509 92.1731 288.771C92.6944 289.033 93.2671 289.249 93.8912 289.418C94.5154 289.588 95.1491 289.685 95.7924 289.708C96.4357 289.732 97.0433 289.656 97.6151 289.479ZM112.221 285.84C111.418 286.088 110.559 286.219 109.644 286.232C108.73 286.243 107.816 286.146 106.902 285.943C105.988 285.736 105.132 285.432 104.333 285.031C103.535 284.63 102.986 284.228 102.688 283.826C102.39 283.421 102.351 283.046 102.57 282.701C102.789 282.353 103.275 282.063 104.028 281.83C104.463 281.696 104.959 281.598 105.518 281.535C106.077 281.472 106.682 281.464 107.334 281.509C107.983 281.553 108.659 281.668 109.363 281.855C110.067 282.041 110.783 282.317 111.51 282.682L112.018 282.937L105.591 284.923L104.555 284.403L109.68 282.819C109.24 282.598 108.753 282.43 108.219 282.315C107.69 282.199 107.153 282.143 106.609 282.149C106.069 282.154 105.568 282.228 105.105 282.371C104.594 282.529 104.271 282.725 104.135 282.959C104 283.19 104.02 283.431 104.197 283.681C104.374 283.931 104.677 284.164 105.107 284.38L105.797 284.727C106.386 285.023 106.994 285.24 107.621 285.379C108.248 285.515 108.863 285.576 109.467 285.562C110.068 285.547 110.627 285.459 111.145 285.299C111.481 285.195 111.741 285.079 111.925 284.951C112.108 284.821 112.21 284.679 112.23 284.528C112.246 284.374 112.173 284.213 112.011 284.043L113.574 283.824C113.836 284.062 113.962 284.303 113.952 284.547C113.939 284.79 113.789 285.023 113.503 285.246C113.213 285.468 112.786 285.666 112.221 285.84ZM117.46 284.09L109.662 280.172L110.899 279.79L112.118 280.402L112.226 280.369C111.984 280.106 111.941 279.857 112.098 279.622C112.252 279.385 112.6 279.182 113.143 279.015C113.693 278.845 114.268 278.762 114.867 278.766C115.466 278.768 116.077 278.841 116.7 278.987L116.787 278.96C116.597 278.692 116.598 278.432 116.788 278.181C116.975 277.928 117.367 277.71 117.964 277.525C118.709 277.295 119.537 277.216 120.448 277.289C121.355 277.36 122.268 277.626 123.185 278.087L128.404 280.709L127.123 281.105L121.904 278.483C121.328 278.194 120.749 278.039 120.165 278.019C119.582 277.999 119.062 278.059 118.606 278.2C118.019 278.381 117.731 278.605 117.741 278.871C117.747 279.136 118.002 279.394 118.507 279.648L123.584 282.198L122.281 282.601L116.94 279.918C116.496 279.695 115.985 279.563 115.407 279.522C114.825 279.479 114.292 279.533 113.807 279.683C113.474 279.786 113.246 279.923 113.122 280.096C113.002 280.268 113 280.455 113.117 280.658C113.235 280.858 113.485 281.054 113.867 281.246L118.741 283.694L117.46 284.09ZM135.22 278.604L124.822 273.38L128.709 272.18C129.483 271.94 130.247 271.806 131.001 271.776C131.751 271.745 132.459 271.797 133.125 271.932C133.787 272.065 134.372 272.259 134.88 272.514C135.327 272.738 135.611 272.95 135.732 273.149C135.857 273.346 135.866 273.53 135.76 273.7C135.658 273.869 135.488 274.023 135.251 274.162L135.352 274.213C135.713 274.118 136.167 274.069 136.714 274.065C137.261 274.06 137.839 274.118 138.45 274.237C139.061 274.355 139.64 274.553 140.189 274.828C140.71 275.09 141.052 275.365 141.215 275.652C141.378 275.939 141.308 276.229 141.005 276.52C140.703 276.811 140.113 277.092 139.237 277.363L135.22 278.604ZM135.45 277.627L138.12 276.801C139 276.53 139.465 276.257 139.516 275.983C139.567 275.706 139.364 275.453 138.907 275.224C138.555 275.047 138.135 274.913 137.645 274.823C137.152 274.731 136.638 274.695 136.104 274.714C135.567 274.732 135.056 274.816 134.571 274.965L131.835 275.811L135.45 277.627ZM130.738 275.26L133.235 274.488C133.64 274.363 133.931 274.213 134.108 274.037C134.289 273.861 134.339 273.675 134.26 273.48C134.185 273.283 133.965 273.093 133.599 272.91C133.142 272.68 132.584 272.538 131.926 272.483C131.264 272.427 130.564 272.513 129.826 272.741L127.285 273.525L130.738 275.26ZM144.989 275.586L137.19 271.668L138.472 271.273L146.27 275.19L144.989 275.586ZM136.542 270.814C136.292 270.891 135.998 270.918 135.658 270.894C135.321 270.869 135.041 270.8 134.818 270.688C134.594 270.576 134.492 270.452 134.51 270.317C134.532 270.182 134.668 270.075 134.917 269.998C135.167 269.921 135.46 269.895 135.797 269.92C136.137 269.944 136.418 270.012 136.642 270.124C136.865 270.237 136.966 270.361 136.944 270.496C136.926 270.631 136.792 270.737 136.542 270.814ZM144.445 269.427L145.46 269.938L141.139 271.272L140.123 270.762L144.445 269.427ZM139.514 269.435L140.796 269.039L148.229 272.773C148.567 272.943 148.873 273.054 149.148 273.107C149.422 273.156 149.671 273.17 149.895 273.148C150.12 273.122 150.326 273.08 150.514 273.022C150.655 272.979 150.764 272.94 150.841 272.905C150.915 272.868 150.974 272.839 151.018 272.817L152.355 273.278C152.298 273.32 152.207 273.372 152.082 273.436C151.961 273.501 151.78 273.57 151.541 273.644C151.179 273.756 150.752 273.829 150.259 273.863C149.77 273.896 149.262 273.873 148.736 273.794C148.214 273.714 147.726 273.56 147.272 273.332L139.514 269.435ZM157.631 271.812C156.849 272.054 156.003 272.175 155.093 272.176C154.184 272.177 153.274 272.072 152.364 271.862C151.454 271.651 150.61 271.351 149.831 270.96C149.039 270.562 148.496 270.163 148.201 269.762C147.907 269.359 147.869 268.985 148.088 268.64C148.308 268.292 148.794 268.002 149.546 267.769C150.133 267.588 150.763 267.476 151.436 267.432C152.11 267.389 152.78 267.413 153.446 267.504C154.111 267.594 154.724 267.751 155.284 267.974L154.003 268.369C153.55 268.221 153.018 268.13 152.407 268.096C151.797 268.06 151.209 268.129 150.645 268.303C150.145 268.457 149.829 268.654 149.696 268.892C149.564 269.128 149.613 269.389 149.843 269.675C150.073 269.958 150.483 270.248 151.072 270.543C151.674 270.846 152.3 271.078 152.95 271.24C153.603 271.401 154.239 271.486 154.859 271.495C155.483 271.503 156.048 271.428 156.554 271.272C156.887 271.169 157.135 271.048 157.299 270.91C157.462 270.772 157.536 270.623 157.521 270.462C157.506 270.302 157.396 270.138 157.192 269.971L158.473 269.575C158.861 269.829 159.096 270.092 159.179 270.366C159.262 270.637 159.179 270.899 158.929 271.152C158.679 271.402 158.246 271.622 157.631 271.812ZM166.17 269.174C165.417 269.407 164.589 269.527 163.686 269.534C162.786 269.54 161.876 269.441 160.955 269.237C160.038 269.031 159.176 268.726 158.371 268.322C157.558 267.914 157.007 267.509 156.716 267.107C156.428 266.704 156.399 266.332 156.629 265.989C156.862 265.645 157.355 265.357 158.107 265.124C158.86 264.892 159.687 264.773 160.586 264.766C161.489 264.759 162.402 264.859 163.322 265.066C164.247 265.272 165.115 265.579 165.927 265.987C166.733 266.392 167.278 266.795 167.562 267.196C167.849 267.596 167.877 267.968 167.644 268.311C167.414 268.654 166.923 268.942 166.17 269.174ZM165.094 268.634C165.666 268.457 165.999 268.243 166.094 267.991C166.189 267.739 166.102 267.474 165.832 267.195C165.563 266.915 165.167 266.645 164.646 266.383C164.125 266.121 163.551 265.905 162.923 265.733C162.295 265.562 161.658 265.464 161.012 265.438C160.365 265.413 159.756 265.488 159.184 265.665C158.612 265.842 158.28 266.057 158.189 266.31C158.097 266.564 158.188 266.831 158.461 267.112C158.733 267.393 159.131 267.664 159.652 267.926C160.173 268.188 160.746 268.404 161.37 268.573C161.994 268.743 162.628 268.839 163.271 268.863C163.914 268.887 164.522 268.81 165.094 268.634ZM171.742 267.321L163.943 263.404L165.224 263.008L173.023 266.926L171.742 267.321ZM163.295 262.55C163.045 262.627 162.75 262.654 162.41 262.63C162.074 262.604 161.794 262.536 161.57 262.424C161.347 262.311 161.244 262.188 161.263 262.053C161.285 261.917 161.42 261.811 161.67 261.734C161.92 261.657 162.213 261.631 162.549 261.656C162.889 261.68 163.171 261.748 163.394 261.86C163.618 261.972 163.719 262.096 163.697 262.232C163.678 262.367 163.544 262.473 163.295 262.55ZM171.959 263.448L176.651 265.805L175.369 266.201L167.571 262.283L168.809 261.901L170.027 262.513L170.136 262.48C169.935 262.22 169.914 261.969 170.071 261.725C170.226 261.48 170.618 261.26 171.248 261.065C171.812 260.891 172.415 260.793 173.055 260.771C173.691 260.747 174.346 260.808 175.017 260.955C175.686 261.1 176.352 261.339 177.015 261.672L181.971 264.162L180.69 264.557L175.815 262.109C175.203 261.801 174.555 261.614 173.873 261.547C173.188 261.479 172.548 261.537 171.955 261.72C171.546 261.846 171.263 262.001 171.107 262.184C170.954 262.365 170.945 262.565 171.079 262.781C171.212 262.998 171.506 263.221 171.959 263.448ZM185.327 263.191C185.059 263.273 184.74 263.299 184.368 263.269C183.997 263.238 183.686 263.159 183.436 263.034C183.185 262.908 183.066 262.77 183.079 262.621C183.091 262.471 183.231 262.355 183.499 262.273C183.767 262.19 184.086 262.164 184.458 262.195C184.829 262.226 185.14 262.304 185.39 262.43C185.556 262.513 185.663 262.604 185.711 262.701C185.763 262.798 185.757 262.89 185.694 262.979C185.63 263.064 185.508 263.135 185.327 263.191ZM179.539 260.283C179.271 260.366 178.951 260.392 178.58 260.361C178.209 260.33 177.898 260.252 177.648 260.126C177.397 260 177.278 259.863 177.291 259.713C177.303 259.564 177.443 259.448 177.711 259.365C177.979 259.282 178.298 259.256 178.67 259.287C179.041 259.318 179.352 259.396 179.602 259.522C179.768 259.606 179.875 259.696 179.923 259.794C179.975 259.89 179.969 259.983 179.906 260.071C179.842 260.157 179.72 260.227 179.539 260.283Z" fill="#0C0B0D"/>
<path d="M105.589 315.568L102.845 314.024L101.859 315.669L98.9707 315.104L100.518 313.575L96.3813 313.803L95.6752 312.563L99.9662 312.578L96.8152 311.16L99.0057 310.484L101.741 312.03L102.727 310.384L105.616 310.95L104.076 312.476L108.205 312.251L108.911 313.491L104.62 313.476L107.779 314.891L105.589 315.568ZM118.532 311.569L115.788 310.026L114.803 311.671L111.914 311.105L113.461 309.577L109.325 309.804L108.619 308.565L112.91 308.58L109.759 307.162L111.949 306.485L114.685 308.031L115.67 306.386L118.559 306.952L117.02 308.478L121.148 308.253L121.854 309.492L117.563 309.477L120.723 310.892L118.532 311.569ZM131.475 307.571L128.732 306.027L127.746 307.673L124.857 307.107L126.405 305.578L122.268 305.806L121.562 304.566L125.853 304.581L122.702 303.164L124.892 302.487L127.628 304.033L128.614 302.388L131.502 302.953L129.963 304.479L134.092 304.254L134.798 305.494L130.507 305.479L133.666 306.894L131.475 307.571ZM144.419 303.572L141.675 302.029L140.689 303.674L137.801 303.108L139.348 301.58L135.211 301.808L134.505 300.568L138.796 300.583L135.645 299.165L137.836 298.489L140.571 300.034L141.557 298.389L144.446 298.955L142.907 300.481L147.035 300.256L147.741 301.496L143.45 301.481L146.609 302.896L144.419 303.572ZM157.362 299.574L154.618 298.031L153.633 299.676L150.744 299.11L152.291 297.582L148.155 297.809L147.449 296.569L151.74 296.584L148.589 295.167L150.779 294.49L153.515 296.036L154.5 294.391L157.389 294.957L155.85 296.482L159.978 296.257L160.685 297.497L156.394 297.482L159.553 298.897L157.362 299.574ZM178.503 298.579L162.906 290.744L169.583 288.681C170.81 288.302 172.004 288.072 173.164 287.989C174.324 287.907 175.412 287.954 176.429 288.13C177.44 288.303 178.337 288.586 179.119 288.979C179.728 289.285 180.134 289.594 180.335 289.907C180.532 290.217 180.549 290.516 180.387 290.805C180.226 291.09 179.916 291.352 179.457 291.593L179.609 291.67C180.27 291.486 181.032 291.387 181.895 291.371C182.764 291.354 183.652 291.432 184.558 291.605C185.458 291.776 186.292 292.054 187.059 292.439C187.886 292.855 188.405 293.294 188.616 293.756C188.826 294.214 188.693 294.669 188.216 295.121C187.74 295.573 186.877 295.992 185.629 296.378L178.503 298.579ZM179.333 296.135L182.208 295.247C183.19 294.944 183.732 294.634 183.832 294.319C183.927 294.002 183.68 293.695 183.091 293.399C182.66 293.182 182.168 293.025 181.615 292.928C181.063 292.831 180.486 292.799 179.886 292.832C179.291 292.864 178.711 292.967 178.146 293.141L175.19 294.054L179.333 296.135ZM172.959 292.933L175.573 292.126C176.056 291.977 176.406 291.804 176.623 291.61C176.841 291.411 176.911 291.204 176.834 290.989C176.762 290.772 176.52 290.56 176.109 290.354C175.545 290.071 174.876 289.909 174.102 289.868C173.334 289.825 172.558 289.925 171.777 290.166L169.098 290.994L172.959 292.933ZM180.15 287.623L177.431 286.257L191.128 282.026L193.847 283.392L188.741 284.969L201.62 291.438L198.134 292.515L185.256 286.045L180.15 287.623ZM212.797 279.762L209.231 280.863C208.734 280.667 208.218 280.515 207.682 280.409C207.141 280.3 206.593 280.234 206.04 280.212C205.486 280.189 204.94 280.21 204.4 280.273C203.866 280.335 203.36 280.44 202.883 280.588C202.019 280.855 201.468 281.188 201.229 281.587C200.984 281.984 201.066 282.428 201.475 282.919C201.878 283.408 202.621 283.925 203.702 284.468C204.814 285.026 205.925 285.441 207.034 285.712C208.149 285.982 209.22 286.114 210.246 286.11C211.273 286.106 212.207 285.974 213.048 285.714C213.52 285.568 213.899 285.404 214.184 285.221C214.474 285.037 214.665 284.84 214.757 284.63C214.843 284.418 214.827 284.199 214.708 283.972C214.595 283.743 214.371 283.512 214.036 283.277L217.618 282.183C218.242 282.571 218.701 282.989 218.997 283.438C219.294 283.882 219.394 284.33 219.298 284.784C219.202 285.234 218.881 285.667 218.333 286.083C217.786 286.495 216.977 286.867 215.908 287.197C214.421 287.656 212.776 287.909 210.974 287.955C209.177 287.999 207.343 287.827 205.471 287.437C203.605 287.046 201.823 286.424 200.128 285.572C198.427 284.718 197.322 283.885 196.813 283.075C196.303 282.264 196.323 281.521 196.871 280.845C197.414 280.166 198.418 279.601 199.884 279.148C200.851 278.849 201.873 278.636 202.952 278.509C204.037 278.38 205.143 278.339 206.271 278.386C207.394 278.43 208.506 278.566 209.609 278.794C210.717 279.02 211.779 279.343 212.797 279.762Z" fill="#0C0B0D"/>
<path d="M131.058 330.305L129.035 329.247L128.224 330.377L127.295 330.195L128.261 329.093L125.314 329.2L125.088 328.801L128.067 328.76L125.94 327.734L126.653 327.514L128.675 328.572L129.486 327.442L130.415 327.624L129.449 328.726L132.397 328.619L132.623 329.018L129.644 329.059L131.77 330.085L131.058 330.305ZM137.746 328.239L135.724 327.181L134.912 328.311L133.983 328.129L134.95 327.027L132.002 327.134L131.776 326.735L134.755 326.694L132.628 325.668L133.341 325.448L135.363 326.506L136.174 325.376L137.104 325.558L136.137 326.66L139.085 326.553L139.311 326.952L136.332 326.993L138.459 328.019L137.746 328.239ZM144.434 326.173L142.412 325.115L141.6 326.245L140.671 326.063L141.638 324.961L138.69 325.068L138.464 324.669L141.443 324.628L139.316 323.602L140.029 323.382L142.051 324.44L142.863 323.31L143.792 323.492L142.825 324.594L145.773 324.487L145.999 324.886L143.02 324.927L145.147 325.953L144.434 326.173ZM151.122 324.107L149.1 323.049L148.289 324.179L147.36 323.997L148.326 322.895L145.378 323.002L145.152 322.603L148.131 322.562L146.005 321.536L146.717 321.316L148.739 322.374L149.551 321.244L150.48 321.426L149.513 322.528L152.461 322.421L152.687 322.82L149.708 322.861L151.835 323.887L151.122 324.107ZM157.811 322.041L155.788 320.982L154.977 322.112L154.048 321.931L155.014 320.829L152.066 320.936L151.84 320.537L154.82 320.496L152.693 319.47L153.405 319.25L155.428 320.308L156.239 319.178L157.168 319.36L156.202 320.462L159.149 320.355L159.375 320.754L156.396 320.795L158.523 321.821L157.811 322.041ZM164.499 319.975L162.476 318.916L161.665 320.046L160.736 319.865L161.702 318.763L158.754 318.87L158.528 318.471L161.508 318.43L159.381 317.404L160.093 317.184L162.116 318.242L162.927 317.112L163.856 317.294L162.89 318.396L165.838 318.289L166.064 318.688L163.084 318.729L165.211 319.755L164.499 319.975ZM171.187 317.909L169.164 316.85L168.353 317.98L167.424 317.799L168.39 316.697L165.443 316.803L165.217 316.405L168.196 316.364L166.069 315.338L166.781 315.118L168.804 316.176L169.615 315.046L170.544 315.228L169.578 316.33L172.526 316.223L172.752 316.622L169.772 316.662L171.899 317.689L171.187 317.909ZM181.307 310.63L182.196 310.356L188.22 313.382C188.839 313.693 189.237 314.019 189.416 314.361C189.591 314.7 189.542 315.027 189.27 315.339C188.997 315.649 188.495 315.917 187.763 316.143C187.035 316.368 186.253 316.496 185.418 316.525C184.582 316.555 183.766 316.496 182.97 316.348C182.174 316.2 181.467 315.97 180.848 315.659L174.823 312.633L175.712 312.359L181.678 315.356C182.161 315.599 182.707 315.779 183.318 315.898C183.925 316.016 184.546 316.064 185.18 316.044C185.817 316.022 186.418 315.925 186.982 315.75C187.545 315.576 187.93 315.37 188.134 315.131C188.339 314.892 188.368 314.643 188.22 314.384C188.072 314.122 187.756 313.87 187.274 313.628L181.307 310.63ZM192.334 309.069C191.774 308.832 191.132 308.703 190.408 308.684C189.685 308.665 189.002 308.754 188.359 308.953C187.906 309.093 187.58 309.253 187.379 309.432C187.183 309.611 187.115 309.795 187.176 309.985C187.238 310.173 187.431 310.348 187.757 310.512C187.997 310.633 188.263 310.721 188.554 310.778C188.846 310.834 189.15 310.866 189.467 310.874C189.785 310.879 190.103 310.87 190.423 310.845C190.746 310.82 191.056 310.787 191.352 310.746L192.654 310.567C193.044 310.511 193.457 310.467 193.891 310.434C194.326 310.4 194.766 310.391 195.213 310.407C195.659 310.421 196.096 310.472 196.523 310.561C196.951 310.648 197.355 310.786 197.734 310.976C198.22 311.22 198.522 311.481 198.641 311.76C198.759 312.038 198.681 312.312 198.406 312.582C198.127 312.85 197.636 313.093 196.933 313.31C196.272 313.515 195.595 313.641 194.903 313.689C194.208 313.736 193.539 313.71 192.896 313.613C192.253 313.517 191.674 313.353 191.159 313.123L192.071 312.841C192.461 313.011 192.892 313.125 193.362 313.181C193.833 313.238 194.31 313.244 194.795 313.2C195.277 313.154 195.737 313.064 196.174 312.929C196.658 312.779 197.013 312.608 197.239 312.416C197.465 312.221 197.55 312.022 197.493 311.819C197.436 311.613 197.225 311.418 196.861 311.235C196.553 311.081 196.21 310.978 195.831 310.926C195.45 310.873 195.035 310.859 194.585 310.882C194.139 310.905 193.66 310.951 193.148 311.02L191.665 311.219C190.688 311.347 189.801 311.382 189.004 311.323C188.207 311.265 187.516 311.089 186.933 310.796C186.444 310.55 186.154 310.291 186.063 310.019C185.971 309.745 186.061 309.482 186.332 309.23C186.603 308.975 187.038 308.756 187.636 308.571C188.241 308.384 188.88 308.271 189.553 308.231C190.226 308.191 190.88 308.221 191.517 308.32C192.154 308.416 192.713 308.578 193.194 308.804L192.334 309.069ZM205.138 310.65L202.288 311.53L193.19 306.96L196.211 306.027C197.139 305.74 198.113 305.586 199.133 305.564C200.156 305.541 201.181 305.645 202.207 305.875C203.234 306.106 204.22 306.458 205.165 306.933C206.119 307.412 206.757 307.879 207.08 308.334C207.403 308.787 207.404 309.211 207.081 309.606C206.761 310.001 206.114 310.348 205.138 310.65ZM202.43 310.881L204.34 310.291C205.176 310.033 205.721 309.739 205.977 309.41C206.233 309.081 206.216 308.73 205.926 308.356C205.636 307.981 205.096 307.596 204.305 307.199C203.517 306.805 202.702 306.509 201.861 306.31C201.023 306.11 200.184 306.017 199.344 306.032C198.506 306.045 197.693 306.174 196.905 306.418L194.824 307.06L202.43 310.881Z" fill="#0C0B0D"/>
<g clip-path="url(#clip3_3692_13082)">
<path d="M277.148 231.116L275.357 230.881C274.917 230.591 274.298 230.384 273.501 230.258C272.704 230.133 272.088 230.178 271.651 230.395L269.86 230.16C269.931 230.065 270.026 229.982 270.147 229.908C270.267 229.835 270.421 229.769 270.609 229.711C271.315 229.493 272.209 229.455 273.29 229.596C274.371 229.738 275.33 230.02 276.168 230.44C276.391 230.553 276.582 230.664 276.739 230.774C276.897 230.883 277.033 230.998 277.148 231.116ZM281.067 231.618L279.309 231.4C279.343 231.127 279.306 230.85 279.199 230.571C279.091 230.292 278.891 229.998 278.597 229.69C276.998 229.269 275.426 229.027 273.881 228.965C272.336 228.903 271.022 229.04 269.939 229.374C269.666 229.459 269.42 229.553 269.201 229.657C268.982 229.761 268.79 229.874 268.625 229.998L266.711 229.746C266.907 229.532 267.16 229.338 267.47 229.165C267.78 228.992 268.156 228.838 268.599 228.701C270.02 228.262 271.753 228.105 273.797 228.23C275.841 228.355 277.855 228.714 279.84 229.306C280.282 229.704 280.609 230.099 280.82 230.492C281.031 230.884 281.113 231.26 281.067 231.618ZM285.471 233.601L280.317 232.937C280.11 233.101 279.87 233.25 279.598 233.384C279.325 233.518 279.009 233.64 278.652 233.751C277.23 234.19 275.497 234.347 273.453 234.222C271.409 234.096 269.395 233.738 267.41 233.146C267.016 232.787 266.715 232.434 266.509 232.085C266.302 231.737 266.19 231.402 266.174 231.081L262.744 230.618L262.597 229.903L285.324 232.886L285.471 233.601ZM267.903 231.308C267.921 231.538 267.99 231.775 268.11 232.019C268.23 232.263 268.411 232.51 268.653 232.762C270.252 233.183 271.824 233.425 273.369 233.486C274.914 233.548 276.228 233.412 277.311 233.077C277.5 233.019 277.669 232.956 277.82 232.886C277.971 232.817 278.124 232.745 278.279 232.67L277.134 232.507C277.064 232.556 276.99 232.599 276.912 232.637C276.835 232.674 276.745 232.709 276.641 232.741C275.935 232.959 275.041 232.997 273.96 232.855C272.88 232.713 271.92 232.432 271.083 232.011C270.96 231.95 270.85 231.888 270.752 231.828C270.654 231.767 270.558 231.702 270.464 231.632L267.903 231.308Z" fill="#0C0B0D"/>
</g>
<rect width="116.949" height="55" rx="25" transform="matrix(0.95545 -0.295154 0.893595 0.448873 224.648 337.242)" fill="#212121"/>
<g clip-path="url(#clip4_3692_13082)">
<path d="M278.272 346.049L275.919 345.761L274.681 337.734L269.488 339.339L267.701 338.441L275.57 336.01L284.506 340.499L282.932 340.985L277.034 338.022L278.272 346.049Z" fill="#D1D2D2"/>
</g>
<g clip-path="url(#clip5_3692_13082)">
<path d="M334.507 327.952L325.571 323.463L327.145 322.977L333.043 325.94L331.805 317.913L334.157 318.201L335.395 326.228L340.589 324.623L342.376 325.521L334.507 327.952Z" fill="#D1D2D2"/>
</g>
<g filter="url(#filter2_d_3692_13082)">
<rect width="295.724" height="187" rx="20" transform="matrix(0.942753 -0.33349 0.488357 0.872644 42.5867 157.762)" fill="#FF9800"/>
</g>
<path d="M79.0419 178.604C78.6965 178.125 78.2175 177.827 77.605 177.711C76.9925 177.595 76.3542 177.654 75.69 177.889C75.2043 178.061 74.8201 178.284 74.5372 178.559C74.2579 178.832 74.0877 179.131 74.0266 179.458C73.9691 179.783 74.031 180.108 74.2122 180.432C74.3639 180.703 74.564 180.911 74.8124 181.057C75.0625 181.198 75.3344 181.294 75.6279 181.345C75.9196 181.392 76.21 181.414 76.4991 181.411C76.7863 181.404 77.0456 181.389 77.2768 181.367L78.5464 181.251C78.8709 181.219 79.2424 181.202 79.6608 181.201C80.0828 181.198 80.5137 181.246 80.9534 181.344C81.3949 181.437 81.8126 181.61 82.2064 181.863C82.6003 182.115 82.9304 182.48 83.1967 182.956C83.5038 183.504 83.6259 184.055 83.5631 184.608C83.5039 185.159 83.251 185.671 82.8043 186.142C82.3612 186.611 81.7183 186.995 80.8755 187.293C80.0899 187.571 79.344 187.694 78.6377 187.663C77.935 187.63 77.3019 187.462 76.7384 187.159C76.1785 186.854 75.7218 186.431 75.3682 185.891L76.7394 185.406C76.9897 185.777 77.3066 186.045 77.69 186.21C78.0751 186.371 78.4894 186.446 78.9328 186.436C79.3779 186.421 79.8183 186.337 80.254 186.182C80.7611 186.003 81.1738 185.766 81.4923 185.471C81.8089 185.173 82.0082 184.845 82.0904 184.487C82.1707 184.126 82.1072 183.761 81.9001 183.391C81.7114 183.053 81.4561 182.815 81.1341 182.675C80.8122 182.536 80.4482 182.459 80.0421 182.444C79.636 182.429 79.2123 182.441 78.7712 182.478L77.2215 182.598C76.2369 182.673 75.3761 182.588 74.6394 182.342C73.9027 182.095 73.3429 181.63 72.96 180.946C72.6418 180.377 72.5304 179.823 72.6257 179.282C72.7227 178.737 72.9877 178.247 73.4206 177.813C73.8552 177.374 74.4225 177.031 75.1224 176.783C75.8294 176.533 76.5236 176.428 77.2049 176.468C77.8843 176.505 78.4976 176.669 79.0447 176.958C79.5953 177.246 80.0229 177.644 80.3275 178.15L79.0419 178.604ZM89.2733 184.322C88.7519 184.507 88.2279 184.583 87.7012 184.552C87.1726 184.517 86.6863 184.37 86.2421 184.112C85.796 183.85 85.4342 183.471 85.1568 182.975C84.9126 182.539 84.8075 182.152 84.8415 181.815C84.8737 181.475 85.0016 181.173 85.2253 180.908C85.4491 180.642 85.7272 180.405 86.0596 180.197C86.3937 179.983 86.7389 179.786 87.0951 179.605C87.5617 179.368 87.9421 179.18 88.2361 179.041C88.5318 178.896 88.7299 178.761 88.8302 178.634C88.934 178.507 88.9332 178.349 88.8278 178.16L88.8056 178.12C88.5318 177.631 88.1745 177.302 87.7335 177.134C87.2962 176.964 86.7864 176.982 86.2044 177.187C85.6009 177.401 85.1961 177.691 84.9902 178.056C84.7843 178.422 84.6894 178.769 84.7055 179.096L83.2836 179.123C83.2389 178.585 83.323 178.124 83.5358 177.739C83.7503 177.351 84.0414 177.03 84.409 176.777C84.7783 176.52 85.1701 176.318 85.5844 176.171C85.8486 176.078 86.1688 176 86.5449 175.938C86.9228 175.872 87.3223 175.871 87.7436 175.936C88.1685 176 88.5888 176.174 89.0047 176.458C89.4206 176.743 89.7978 177.187 90.1363 177.792L92.9444 182.81L91.6803 183.257L91.1031 182.226L91.0388 182.249C91.0456 182.444 91.0017 182.672 90.9072 182.931C90.8127 183.19 90.6363 183.444 90.3782 183.694C90.1201 183.944 89.7518 184.153 89.2733 184.322ZM88.8779 183.203C89.3778 183.026 89.7483 182.786 89.9894 182.483C90.2341 182.179 90.3634 181.852 90.3774 181.502C90.3951 181.152 90.3151 180.818 90.1375 180.5L89.5381 179.429C89.5179 179.508 89.4306 179.604 89.2762 179.718C89.1235 179.828 88.9395 179.942 88.7242 180.062C88.5106 180.177 88.3005 180.287 88.0939 180.392C87.889 180.492 87.7233 180.574 87.5968 180.639C87.2905 180.795 87.0195 180.968 86.7837 181.158C86.5497 181.344 86.3942 181.555 86.3173 181.792C86.2421 182.025 86.2877 182.29 86.4542 182.587C86.6817 182.994 87.0163 183.244 87.4578 183.337C87.901 183.426 88.3744 183.381 88.8779 183.203ZM90.8332 171.392L96.5159 181.547L95.2517 181.994L89.569 171.839L90.8332 171.392ZM102.027 179.787C101.341 180.03 100.646 180.084 99.9418 179.949C99.2356 179.81 98.5697 179.499 97.944 179.016C97.3165 178.529 96.777 177.882 96.3257 177.076C95.878 176.276 95.6377 175.529 95.6049 174.836C95.572 174.143 95.7301 173.543 96.0792 173.035C96.4282 172.527 96.9492 172.151 97.642 171.906C98.1776 171.717 98.647 171.649 99.0502 171.705C99.4551 171.756 99.7979 171.856 100.079 172.006C100.361 172.152 100.586 172.274 100.753 172.374L100.86 172.336L98.7622 168.587L100.026 168.14L105.709 178.295L104.488 178.727L103.833 177.556L103.683 177.61C103.668 177.781 103.634 178.003 103.581 178.275C103.526 178.544 103.386 178.817 103.16 179.095C102.933 179.37 102.555 179.6 102.027 179.787ZM101.61 178.675C102.117 178.496 102.477 178.222 102.69 177.854C102.901 177.482 102.976 177.046 102.914 176.545C102.85 176.041 102.657 175.501 102.335 174.926C102.017 174.358 101.649 173.892 101.232 173.529C100.813 173.162 100.362 172.922 99.879 172.807C99.394 172.69 98.8944 172.722 98.3802 172.904C97.8445 173.094 97.4694 173.379 97.2547 173.76C97.0418 174.136 96.9672 174.572 97.031 175.068C97.0965 175.56 97.279 176.073 97.5787 176.609C97.8821 177.151 98.247 177.612 98.6734 177.992C99.1016 178.367 99.5655 178.623 100.065 178.759C100.567 178.89 101.081 178.862 101.61 178.675ZM111.631 176.39C110.888 176.653 110.145 176.719 109.401 176.591C108.661 176.46 107.969 176.157 107.326 175.679C106.686 175.201 106.146 174.568 105.705 173.782C105.261 172.988 105.029 172.241 105.009 171.539C104.992 170.836 105.17 170.223 105.544 169.699C105.922 169.173 106.482 168.779 107.225 168.516C107.968 168.253 108.709 168.187 109.449 168.317C110.193 168.446 110.886 168.752 111.528 169.233C112.173 169.714 112.718 170.351 113.162 171.144C113.602 171.931 113.83 172.674 113.845 173.373C113.863 174.072 113.684 174.684 113.306 175.209C112.932 175.733 112.374 176.127 111.631 176.39ZM111.043 175.339C111.607 175.139 111.996 174.841 112.211 174.444C112.425 174.048 112.498 173.6 112.429 173.102C112.359 172.604 112.182 172.1 111.898 171.591C111.613 171.082 111.26 170.639 110.839 170.261C110.418 169.883 109.949 169.623 109.433 169.481C108.917 169.339 108.377 169.368 107.813 169.567C107.249 169.767 106.86 170.067 106.648 170.467C106.435 170.866 106.365 171.317 106.436 171.819C106.507 172.32 106.685 172.825 106.97 173.334C107.254 173.844 107.606 174.285 108.026 174.66C108.445 175.034 108.911 175.291 109.425 175.43C109.94 175.569 110.479 175.538 111.043 175.339ZM124.981 171.667C124.188 171.948 123.414 172.028 122.658 171.907C121.903 171.782 121.207 171.482 120.569 171.007C119.932 170.527 119.396 169.897 118.959 169.117C118.523 168.337 118.291 167.595 118.266 166.891C118.241 166.183 118.413 165.564 118.779 165.035C119.148 164.5 119.703 164.102 120.446 163.839C120.875 163.688 121.335 163.604 121.827 163.588C122.318 163.573 122.819 163.653 123.328 163.829C123.836 164.002 124.327 164.296 124.803 164.71C125.278 165.124 125.715 165.686 126.112 166.397L126.39 166.892L120.048 169.136L119.482 168.124L124.538 166.336C124.298 165.906 123.99 165.555 123.616 165.284C123.245 165.011 122.836 164.837 122.387 164.762C121.942 164.686 121.491 164.729 121.034 164.89C120.531 165.068 120.16 165.338 119.922 165.7C119.685 166.057 119.571 166.453 119.58 166.89C119.589 167.326 119.711 167.754 119.946 168.174L120.323 168.848C120.645 169.423 121.025 169.873 121.463 170.197C121.903 170.517 122.374 170.713 122.876 170.784C123.377 170.853 123.882 170.797 124.393 170.616C124.725 170.499 125.001 170.35 125.221 170.169C125.442 169.984 125.602 169.769 125.7 169.524C125.797 169.276 125.825 169.001 125.784 168.699L127.183 168.584C127.269 169.013 127.241 169.426 127.101 169.825C126.958 170.22 126.709 170.577 126.353 170.897C125.995 171.214 125.538 171.47 124.981 171.667ZM130.222 169.623L125.96 162.008L127.181 161.576L127.847 162.766L127.954 162.728C127.898 162.26 127.998 161.847 128.255 161.487C128.509 161.124 128.904 160.847 129.44 160.658C129.983 160.466 130.498 160.42 130.986 160.521C131.477 160.616 131.937 160.832 132.368 161.166L132.454 161.136C132.444 160.668 132.586 160.244 132.878 159.863C133.168 159.48 133.607 159.184 134.196 158.975C134.932 158.715 135.653 158.715 136.36 158.976C137.064 159.234 137.667 159.811 138.168 160.706L141.021 165.803L139.757 166.251L136.904 161.154C136.59 160.592 136.199 160.249 135.732 160.125C135.265 160.001 134.806 160.019 134.356 160.178C133.778 160.383 133.42 160.703 133.284 161.139C133.145 161.572 133.214 162.035 133.489 162.528L136.264 167.486L134.979 167.941L132.06 162.725C131.817 162.292 131.47 161.997 131.019 161.84C130.565 161.679 130.099 161.684 129.621 161.853C129.292 161.969 129.031 162.159 128.836 162.422C128.644 162.684 128.541 162.989 128.527 163.339C128.515 163.684 128.613 164.043 128.822 164.416L131.486 169.176L130.222 169.623ZM147.746 163.424L142.063 153.27L145.899 151.913C146.663 151.643 147.361 151.542 147.995 151.611C148.626 151.677 149.178 151.872 149.65 152.196C150.121 152.517 150.494 152.925 150.772 153.421C151.016 153.857 151.134 154.247 151.125 154.591C151.12 154.933 151.028 155.235 150.849 155.496C150.674 155.756 150.451 155.981 150.181 156.172L150.237 156.271C150.583 156.172 150.982 156.162 151.432 156.24C151.882 156.318 152.325 156.502 152.761 156.792C153.197 157.081 153.565 157.493 153.864 158.029C154.149 158.538 154.28 159.04 154.258 159.535C154.235 160.03 154.021 160.492 153.615 160.921C153.209 161.349 152.574 161.717 151.71 162.022L147.746 163.424ZM148.464 161.864L151.099 160.931C151.967 160.624 152.496 160.251 152.687 159.812C152.879 159.368 152.85 158.922 152.6 158.476C152.408 158.132 152.135 157.848 151.783 157.625C151.43 157.397 151.029 157.258 150.581 157.207C150.131 157.152 149.667 157.209 149.188 157.378L146.488 158.333L148.464 161.864ZM145.889 157.262L148.353 156.391C148.753 156.249 149.073 156.049 149.313 155.79C149.556 155.53 149.699 155.234 149.74 154.902C149.785 154.57 149.708 154.225 149.508 153.868C149.258 153.422 148.878 153.102 148.369 152.91C147.857 152.715 147.237 152.746 146.509 153.004L144.002 153.891L145.889 157.262ZM157.385 160.015L153.123 152.399L154.387 151.952L158.649 159.567L157.385 160.015ZM153.056 150.902C152.809 150.989 152.553 150.987 152.288 150.895C152.026 150.801 151.834 150.645 151.712 150.427C151.59 150.209 151.573 149.991 151.661 149.774C151.752 149.556 151.921 149.403 152.168 149.316C152.414 149.228 152.668 149.232 152.93 149.325C153.196 149.417 153.389 149.572 153.511 149.791C153.634 150.009 153.649 150.227 153.557 150.446C153.469 150.663 153.302 150.815 153.056 150.902ZM160.281 149.867L160.836 150.859L156.572 152.367L156.017 151.375L160.281 149.867ZM156.239 149.111L157.503 148.664L161.565 155.923C161.75 156.253 161.94 156.483 162.136 156.611C162.334 156.735 162.531 156.797 162.727 156.795C162.924 156.788 163.116 156.752 163.301 156.686C163.441 156.637 163.551 156.59 163.633 156.545C163.713 156.497 163.777 156.459 163.825 156.43L164.671 157.39C164.602 157.45 164.499 157.522 164.362 157.606C164.227 157.694 164.041 157.779 163.806 157.862C163.448 157.989 163.059 158.041 162.636 158.02C162.218 157.998 161.814 157.882 161.426 157.67C161.042 157.458 160.726 157.13 160.478 156.687L156.239 149.111ZM169.787 155.818C169.016 156.09 168.257 156.157 167.512 156.017C166.766 155.877 166.077 155.564 165.446 155.078C164.815 154.593 164.287 153.97 163.861 153.209C163.429 152.436 163.2 151.699 163.176 150.999C163.154 150.294 163.326 149.677 163.693 149.147C164.061 148.613 164.617 148.214 165.36 147.952C165.938 147.747 166.515 147.662 167.09 147.696C167.665 147.73 168.201 147.873 168.697 148.125C169.193 148.377 169.61 148.729 169.948 149.179L168.684 149.627C168.393 149.314 168.007 149.082 167.525 148.932C167.045 148.777 166.526 148.798 165.969 148.995C165.476 149.169 165.111 149.441 164.873 149.811C164.636 150.175 164.535 150.609 164.568 151.112C164.603 151.611 164.782 152.147 165.103 152.723C165.433 153.311 165.819 153.788 166.264 154.154C166.711 154.518 167.187 154.756 167.689 154.867C168.196 154.977 168.699 154.943 169.199 154.766C169.528 154.65 169.796 154.492 170.005 154.291C170.213 154.091 170.355 153.859 170.43 153.595C170.504 153.331 170.503 153.046 170.427 152.74L171.691 152.293C171.871 152.768 171.921 153.235 171.84 153.696C171.761 154.151 171.551 154.566 171.209 154.941C170.868 155.311 170.394 155.603 169.787 155.818ZM178.213 152.837C177.47 153.1 176.727 153.167 175.983 153.038C175.243 152.908 174.551 152.604 173.908 152.127C173.268 151.648 172.728 151.016 172.287 150.229C171.843 149.436 171.611 148.688 171.591 147.987C171.574 147.284 171.752 146.67 172.126 146.146C172.504 145.62 173.064 145.226 173.807 144.963C174.55 144.701 175.291 144.634 176.031 144.765C176.775 144.893 177.468 145.199 178.11 145.681C178.755 146.161 179.3 146.798 179.744 147.591C180.184 148.378 180.412 149.121 180.427 149.821C180.445 150.519 180.266 151.131 179.888 151.656C179.514 152.181 178.956 152.574 178.213 152.837ZM177.625 151.786C178.189 151.586 178.578 151.288 178.793 150.892C179.007 150.495 179.08 150.048 179.011 149.549C178.941 149.051 178.764 148.548 178.48 148.039C178.195 147.529 177.842 147.086 177.421 146.708C177 146.331 176.531 146.071 176.015 145.928C175.499 145.786 174.959 145.815 174.395 146.015C173.831 146.214 173.442 146.514 173.23 146.914C173.017 147.314 172.947 147.764 173.018 148.266C173.089 148.767 173.267 149.273 173.551 149.782C173.836 150.291 174.188 150.733 174.608 151.107C175.027 151.481 175.493 151.738 176.007 151.877C176.521 152.016 177.061 151.985 177.625 151.786ZM183.782 150.677L179.52 143.061L180.784 142.614L185.046 150.23L183.782 150.677ZM179.453 141.564C179.206 141.652 178.95 141.649 178.685 141.557C178.423 141.463 178.231 141.308 178.109 141.089C177.987 140.871 177.97 140.654 178.058 140.436C178.149 140.218 178.318 140.065 178.565 139.978C178.811 139.891 179.065 139.894 179.327 139.987C179.593 140.079 179.786 140.235 179.909 140.453C180.031 140.671 180.046 140.889 179.954 141.108C179.866 141.325 179.699 141.477 179.453 141.564ZM186.062 144.382L188.626 148.964L187.362 149.411L183.1 141.795L184.321 141.363L184.987 142.553L185.094 142.515C185.07 142.06 185.189 141.646 185.451 141.272C185.71 140.895 186.151 140.597 186.772 140.377C187.329 140.18 187.876 140.113 188.412 140.177C188.947 140.237 189.449 140.44 189.92 140.784C190.389 141.125 190.805 141.62 191.167 142.267L193.875 147.107L192.611 147.554L189.947 142.794C189.613 142.196 189.184 141.789 188.661 141.574C188.137 141.355 187.582 141.35 186.996 141.557C186.593 141.7 186.277 141.908 186.05 142.183C185.827 142.456 185.711 142.78 185.703 143.155C185.694 143.53 185.814 143.939 186.062 144.382ZM197.151 146.043C196.887 146.136 196.611 146.129 196.324 146.021C196.036 145.913 195.824 145.736 195.687 145.491C195.55 145.247 195.528 145.003 195.619 144.761C195.71 144.519 195.888 144.351 196.152 144.258C196.416 144.164 196.692 144.172 196.979 144.28C197.267 144.388 197.479 144.565 197.616 144.809C197.706 144.971 197.745 145.136 197.732 145.303C197.722 145.469 197.667 145.619 197.567 145.753C197.468 145.883 197.33 145.98 197.151 146.043ZM193.988 140.391C193.724 140.484 193.448 140.477 193.16 140.368C192.873 140.26 192.661 140.084 192.524 139.839C192.387 139.595 192.364 139.351 192.456 139.109C192.547 138.867 192.725 138.699 192.989 138.606C193.253 138.512 193.529 138.519 193.816 138.628C194.104 138.736 194.316 138.912 194.453 139.157C194.543 139.319 194.582 139.483 194.568 139.651C194.558 139.816 194.503 139.967 194.403 140.101C194.305 140.231 194.166 140.327 193.988 140.391Z" fill="#0C0B0D"/>
<path d="M101.74 219.804L100.33 216.854L98.6297 219.389L96.5707 218.015L98.6673 215.759L95.1556 215.486L95.25 213.35L98.7565 214.043L96.9448 211.236L99.1062 210.471L100.508 213.423L102.208 210.889L104.267 212.263L102.179 214.516L105.682 214.792L105.588 216.928L102.081 216.235L103.901 219.039L101.74 219.804ZM114.511 215.286L113.101 212.337L111.401 214.871L109.342 213.497L111.439 211.241L107.927 210.968L108.021 208.832L111.528 209.525L109.716 206.718L111.878 205.954L113.279 208.906L114.98 206.371L117.038 207.745L114.95 209.999L118.454 210.274L118.359 212.41L114.853 211.717L116.672 214.521L114.511 215.286ZM127.282 210.768L125.872 207.819L124.172 210.354L122.113 208.979L124.21 206.723L120.698 206.451L120.793 204.315L124.299 205.008L122.488 202.2L124.649 201.436L126.051 204.388L127.751 201.853L129.81 203.227L127.721 205.481L131.225 205.756L131.131 207.892L127.624 207.199L129.444 210.004L127.282 210.768ZM140.054 206.25L138.644 203.301L136.944 205.836L134.885 204.462L136.981 202.205L133.47 201.933L133.564 199.797L137.071 200.49L135.259 197.683L137.42 196.918L138.822 199.87L140.522 197.335L142.581 198.71L140.493 200.963L143.996 201.238L143.902 203.374L140.395 202.681L142.215 205.486L140.054 206.25ZM152.825 201.733L151.415 198.783L149.715 201.318L147.656 199.944L149.753 197.688L146.241 197.415L146.335 195.279L149.842 195.972L148.03 193.165L150.192 192.4L151.594 195.352L153.294 192.818L155.353 194.192L153.264 196.445L156.768 196.721L156.673 198.857L153.167 198.164L154.986 200.968L152.825 201.733ZM170.682 203.399L162.158 188.167L168.746 185.837C169.957 185.409 171.059 185.218 172.054 185.264C173.049 185.31 173.915 185.556 174.652 186.002C175.387 186.443 175.968 187.045 176.395 187.809C176.728 188.404 176.892 188.972 176.887 189.514C176.88 190.052 176.732 190.544 176.443 190.99C176.156 191.43 175.76 191.811 175.253 192.133L175.337 192.281C175.977 192.085 176.655 192.041 177.371 192.15C178.092 192.257 178.776 192.523 179.424 192.947C180.07 193.366 180.602 193.95 181.021 194.699C181.473 195.507 181.66 196.305 181.581 197.093C181.505 197.875 181.149 198.597 180.514 199.262C179.878 199.926 178.944 200.476 177.712 200.912L170.682 203.399ZM172.687 199.536L175.524 198.532C176.493 198.189 177.104 197.768 177.358 197.269C177.608 196.764 177.572 196.225 177.25 195.65C177.014 195.228 176.697 194.895 176.297 194.65C175.897 194.406 175.442 194.264 174.932 194.224C174.428 194.183 173.897 194.261 173.34 194.458L170.423 195.49L172.687 199.536ZM169.204 193.311L171.783 192.398C172.259 192.23 172.64 192.003 172.923 191.719C173.209 191.427 173.379 191.1 173.432 190.737C173.491 190.371 173.408 189.988 173.183 189.586C172.875 189.036 172.415 188.667 171.804 188.48C171.197 188.29 170.508 188.332 169.737 188.605L167.093 189.54L169.204 193.311ZM177.976 185.753L176.49 183.098L190.004 178.317L191.49 180.972L186.452 182.754L193.49 195.331L190.052 196.547L183.013 183.971L177.976 185.753ZM208.982 177.992L205.463 179.237C205.162 178.838 204.822 178.51 204.44 178.253C204.056 177.991 203.644 177.798 203.203 177.675C202.762 177.552 202.303 177.501 201.826 177.521C201.355 177.539 200.884 177.631 200.413 177.798C199.561 178.099 198.929 178.558 198.516 179.173C198.1 179.783 197.926 180.522 197.994 181.389C198.06 182.251 198.388 183.21 198.979 184.266C199.586 185.352 200.271 186.202 201.033 186.818C201.8 187.432 202.605 187.815 203.448 187.968C204.29 188.122 205.127 188.051 205.957 187.758C206.423 187.593 206.823 187.383 207.155 187.129C207.493 186.873 207.756 186.581 207.945 186.253C208.131 185.92 208.237 185.559 208.263 185.169C208.294 184.778 208.236 184.365 208.089 183.93L211.616 182.7C211.917 183.431 212.066 184.186 212.066 184.964C212.067 185.736 211.906 186.485 211.581 187.212C211.259 187.932 210.76 188.589 210.086 189.184C209.414 189.772 208.55 190.253 207.495 190.626C206.028 191.145 204.543 191.302 203.042 191.097C201.546 190.889 200.138 190.321 198.816 189.393C197.5 188.463 196.378 187.17 195.451 185.514C194.522 183.853 194.069 182.32 194.091 180.916C194.114 179.512 194.534 178.301 195.349 177.282C196.162 176.257 197.292 175.49 198.738 174.978C199.692 174.641 200.645 174.452 201.598 174.412C202.556 174.37 203.484 174.475 204.383 174.728C205.278 174.975 206.116 175.371 206.895 175.915C207.68 176.457 208.375 177.149 208.982 177.992Z" fill="#0C0B0D"/>
<path d="M114.605 247.849L113.522 245.805L112.245 247.525L111.582 247.084L112.972 245.433L110.499 245.149L110.53 244.462L112.993 244.859L111.808 242.852L112.511 242.603L113.593 244.647L114.871 242.927L115.533 243.368L114.143 245.019L116.616 245.303L116.585 245.99L114.122 245.593L115.308 247.601L114.605 247.849ZM121.204 245.515L120.122 243.471L118.844 245.191L118.181 244.75L119.571 243.099L117.099 242.815L117.13 242.128L119.592 242.525L118.407 240.517L119.11 240.268L120.192 242.313L121.47 240.593L122.132 241.034L120.743 242.684L123.215 242.969L123.184 243.656L120.722 243.258L121.907 245.266L121.204 245.515ZM127.803 243.181L126.721 241.136L125.443 242.856L124.781 242.415L126.17 240.765L123.698 240.48L123.729 239.793L126.192 240.19L125.006 238.183L125.709 237.934L126.791 239.978L128.069 238.258L128.732 238.699L127.342 240.35L129.815 240.634L129.783 241.321L127.321 240.924L128.506 242.932L127.803 243.181ZM134.402 240.846L133.32 238.802L132.042 240.522L131.38 240.081L132.77 238.43L130.297 238.146L130.328 237.459L132.791 237.856L131.605 235.848L132.308 235.6L133.391 237.644L134.668 235.924L135.331 236.365L133.941 238.016L136.414 238.3L136.383 238.987L133.92 238.59L135.105 240.597L134.402 240.846ZM141.002 238.512L139.919 236.467L138.642 238.188L137.979 237.746L139.369 236.096L136.896 235.811L136.928 235.125L139.39 235.522L138.205 233.514L138.908 233.265L139.99 235.309L141.268 233.589L141.93 234.031L140.541 235.681L143.013 235.966L142.982 236.652L140.519 236.255L141.705 238.263L141.002 238.512ZM147.601 236.177L146.519 234.133L145.241 235.853L144.579 235.412L145.968 233.761L143.496 233.477L143.527 232.79L145.989 233.187L144.804 231.179L145.507 230.931L146.589 232.975L147.867 231.255L148.529 231.696L147.14 233.347L149.612 233.631L149.581 234.318L147.119 233.921L148.304 235.929L147.601 236.177ZM154.2 233.843L153.118 231.799L151.84 233.519L151.178 233.077L152.567 231.427L150.095 231.142L150.126 230.456L152.589 230.853L151.403 228.845L152.106 228.596L153.189 230.641L154.466 228.92L155.129 229.362L153.739 231.012L156.212 231.297L156.18 231.983L153.718 231.586L154.903 233.594L154.2 233.843ZM166.439 223.526L167.316 223.216L170.608 229.099C170.946 229.704 171.096 230.299 171.057 230.884C171.016 231.467 170.799 231.992 170.406 232.46C170.014 232.925 169.458 233.284 168.736 233.54C168.017 233.794 167.308 233.88 166.607 233.799C165.906 233.718 165.27 233.494 164.699 233.128C164.127 232.762 163.672 232.277 163.334 231.672L160.041 225.789L160.918 225.479L164.179 231.306C164.442 231.777 164.792 232.158 165.227 232.447C165.661 232.734 166.143 232.91 166.674 232.975C167.207 233.039 167.752 232.973 168.309 232.776C168.865 232.579 169.292 232.302 169.589 231.944C169.886 231.586 170.045 231.183 170.064 230.736C170.085 230.285 169.964 229.824 169.7 229.353L166.439 223.526ZM176.318 222.693C175.988 222.217 175.532 221.907 174.95 221.763C174.368 221.619 173.759 221.659 173.125 221.883C172.678 222.042 172.324 222.252 172.063 222.514C171.805 222.775 171.649 223.066 171.596 223.386C171.545 223.702 171.608 224.019 171.786 224.337C171.917 224.571 172.087 224.758 172.295 224.895C172.503 225.033 172.735 225.133 172.991 225.195C173.248 225.253 173.514 225.287 173.789 225.297C174.067 225.306 174.339 225.3 174.604 225.279L175.767 225.19C176.117 225.16 176.479 225.151 176.853 225.164C177.228 225.177 177.593 225.232 177.95 225.327C178.308 225.419 178.638 225.571 178.94 225.783C179.244 225.991 179.499 226.28 179.706 226.65C179.972 227.124 180.077 227.598 180.024 228.071C179.97 228.543 179.757 228.979 179.385 229.378C179.011 229.773 178.478 230.094 177.784 230.339C177.131 230.57 176.508 230.671 175.915 230.641C175.321 230.609 174.786 230.464 174.312 230.205C173.838 229.947 173.453 229.589 173.156 229.133L174.056 228.815C174.283 229.154 174.574 229.406 174.929 229.571C175.284 229.737 175.672 229.822 176.093 229.825C176.512 229.826 176.938 229.75 177.369 229.597C177.847 229.428 178.231 229.204 178.52 228.925C178.811 228.642 178.988 228.33 179.051 227.988C179.117 227.643 179.05 227.293 178.85 226.937C178.682 226.636 178.457 226.414 178.175 226.272C177.891 226.126 177.559 226.037 177.178 226.006C176.801 225.973 176.383 225.973 175.927 226.007L174.604 226.1C173.734 226.159 172.989 226.077 172.367 225.857C171.746 225.637 171.276 225.242 170.957 224.672C170.69 224.195 170.593 223.727 170.666 223.268C170.74 222.805 170.956 222.389 171.315 222.02C171.675 221.646 172.15 221.355 172.741 221.146C173.337 220.935 173.922 220.85 174.495 220.89C175.067 220.93 175.588 221.08 176.055 221.341C176.525 221.597 176.895 221.948 177.166 222.393L176.318 222.693ZM185.948 227.269L183.136 228.264L178.164 219.379L181.145 218.324C182.06 218 182.942 217.9 183.789 218.023C184.639 218.145 185.423 218.474 186.139 219.011C186.854 219.548 187.471 220.277 187.987 221.2C188.508 222.131 188.777 222.994 188.795 223.788C188.814 224.578 188.584 225.271 188.106 225.867C187.63 226.461 186.911 226.929 185.948 227.269ZM183.605 227.225L185.489 226.558C186.314 226.267 186.92 225.872 187.308 225.374C187.696 224.877 187.872 224.3 187.838 223.643C187.804 222.987 187.571 222.272 187.139 221.5C186.706 220.735 186.2 220.124 185.619 219.668C185.041 219.21 184.404 218.928 183.708 218.821C183.015 218.713 182.279 218.796 181.501 219.071L179.448 219.798L183.605 227.225Z" fill="#0C0B0D"/>
<g clip-path="url(#clip6_3692_13082)">
<path d="M320.801 96.9552L319.346 96.3332C319.155 95.7867 318.743 95.3575 318.11 95.0456C317.477 94.7336 316.885 94.7339 316.335 95.0463L314.879 94.4243C315.011 94.2731 315.158 94.1428 315.319 94.0334C315.481 93.924 315.668 93.8317 315.88 93.7566C316.677 93.4747 317.515 93.5214 318.393 93.8968C319.271 94.2721 319.939 94.8688 320.397 95.687C320.519 95.9051 320.612 96.1172 320.677 96.3231C320.741 96.529 320.783 96.7397 320.801 96.9552ZM323.995 98.2952L322.558 97.7059C322.785 97.2468 322.949 96.7736 323.052 96.2864C323.155 95.7992 323.184 95.2762 323.138 94.7173C321.991 93.8035 320.738 93.1978 319.382 92.9002C318.025 92.6026 316.736 92.6699 315.514 93.1021C315.206 93.2111 314.915 93.34 314.642 93.4889C314.369 93.6377 314.114 93.8065 313.875 93.9953L312.32 93.3304C312.652 92.9908 313.02 92.6939 313.425 92.4396C313.83 92.1852 314.282 91.9697 314.781 91.7931C316.386 91.2256 318.07 91.1755 319.833 91.6428C321.597 92.1101 323.166 92.9696 324.541 94.2212C324.657 94.9512 324.669 95.6621 324.579 96.3539C324.489 97.0457 324.294 97.6928 323.995 98.2952ZM326.566 102.208L322.369 100.439C322.064 100.69 321.74 100.913 321.396 101.106C321.053 101.299 320.679 101.468 320.275 101.61C318.671 102.178 316.987 102.228 315.224 101.761C313.46 101.293 311.891 100.434 310.516 99.1823C310.416 98.5252 310.397 97.8884 310.459 97.2718C310.521 96.6552 310.66 96.0736 310.876 95.5268L308.097 94.3144L308.477 93.0824L326.946 100.976L326.566 102.208ZM312.281 96.1273C312.132 96.5199 312.024 96.9304 311.958 97.3588C311.893 97.7871 311.879 98.2296 311.919 98.6862C313.066 99.6 314.319 100.206 315.675 100.503C317.032 100.801 318.321 100.734 319.543 100.301C319.755 100.226 319.955 100.139 320.142 100.041C320.328 99.9419 320.519 99.8386 320.713 99.7307L319.791 99.3119C319.692 99.386 319.595 99.45 319.498 99.504C319.4 99.5579 319.293 99.6056 319.177 99.6469C318.38 99.9288 317.542 99.882 316.664 99.5067C315.786 99.1313 315.118 98.5346 314.66 97.7165C314.593 97.5965 314.536 97.4792 314.491 97.3644C314.446 97.2497 314.406 97.1267 314.371 96.9955L312.281 96.1273Z" fill="#0C0B0D"/>
</g>
<rect width="133.735" height="55" rx="25" transform="matrix(0.942753 -0.33349 0.488357 0.872644 197.082 270.373)" fill="#212121"/>
<path d="M239.39 291.996L237.463 291.214L242.098 277.448L236.238 279.521L235.261 277.775L244.14 274.635L249.023 283.361L247.248 283.989L244.025 278.23L239.39 291.996Z" fill="#D1D2D2"/>
<g clip-path="url(#clip7_3692_13082)">
<path d="M303.362 268.32L298.478 259.594L300.254 258.966L303.477 264.725L308.112 250.959L310.038 251.741L305.404 265.507L311.264 263.434L312.241 265.179L303.362 268.32Z" fill="#D1D2D2"/>
</g>
<defs>
<filter id="filter0_d_3692_13082" x="14.4944" y="242.432" width="440.554" height="199.998" filterUnits="userSpaceOnUse" color-interpolation-filters="sRGB">
<feFlood flood-opacity="0" result="BackgroundImageFix"/>
<feColorMatrix in="SourceAlpha" type="matrix" values="0 0 0 0 0 0 0 0 0 0 0 0 0 0 0 0 0 0 127 0" result="hardAlpha"/>
<feMorphology radius="8" operator="erode" in="SourceAlpha" result="effect1_dropShadow_3692_13082"/>
<feOffset dy="16"/>
<feGaussianBlur stdDeviation="16"/>
<feComposite in2="hardAlpha" operator="out"/>
<feColorMatrix type="matrix" values="0 0 0 0 0.0470588 0 0 0 0 0.0470588 0 0 0 0 0.0509804 0 0 0 0.4 0"/>
<feBlend mode="normal" in2="BackgroundImageFix" result="effect1_dropShadow_3692_13082"/>
<feBlend mode="normal" in="SourceGraphic" in2="effect1_dropShadow_3692_13082" result="shape"/>
</filter>
<filter id="filter1_d_3692_13082" x="0.816711" y="206.135" width="440.554" height="199.998" filterUnits="userSpaceOnUse" color-interpolation-filters="sRGB">
<feFlood flood-opacity="0" result="BackgroundImageFix"/>
<feColorMatrix in="SourceAlpha" type="matrix" values="0 0 0 0 0 0 0 0 0 0 0 0 0 0 0 0 0 0 127 0" result="hardAlpha"/>
<feMorphology radius="8" operator="erode" in="SourceAlpha" result="effect1_dropShadow_3692_13082"/>
<feOffset dy="16"/>
<feGaussianBlur stdDeviation="16"/>
<feComposite in2="hardAlpha" operator="out"/>
<feColorMatrix type="matrix" values="0 0 0 0 0.0470588 0 0 0 0 0.0470588 0 0 0 0 0.0509804 0 0 0 0.4 0"/>
<feBlend mode="normal" in2="BackgroundImageFix" result="effect1_dropShadow_3692_13082"/>
<feBlend mode="normal" in="SourceGraphic" in2="effect1_dropShadow_3692_13082" result="shape"/>
</filter>
<filter id="filter2_d_3692_13082" x="25.9699" y="56.5742" width="403.351" height="298.938" filterUnits="userSpaceOnUse" color-interpolation-filters="sRGB">
<feFlood flood-opacity="0" result="BackgroundImageFix"/>
<feColorMatrix in="SourceAlpha" type="matrix" values="0 0 0 0 0 0 0 0 0 0 0 0 0 0 0 0 0 0 127 0" result="hardAlpha"/>
<feMorphology radius="8" operator="erode" in="SourceAlpha" result="effect1_dropShadow_3692_13082"/>
<feOffset dy="16"/>
<feGaussianBlur stdDeviation="16"/>
<feComposite in2="hardAlpha" operator="out"/>
<feColorMatrix type="matrix" values="0 0 0 0 0.0470588 0 0 0 0 0.0470588 0 0 0 0 0.0509804 0 0 0 0.4 0"/>
<feBlend mode="normal" in2="BackgroundImageFix" result="effect1_dropShadow_3692_13082"/>
<feBlend mode="normal" in="SourceGraphic" in2="effect1_dropShadow_3692_13082" result="shape"/>
</filter>
<clipPath id="clip0_3692_13082">
<rect width="14.1918" height="18" fill="white" transform="matrix(0.95545 -0.295154 0.893595 0.448873 272.816 265.746)"/>
</clipPath>
<clipPath id="clip1_3692_13082">
<rect width="19.7661" height="24" rx="9.88304" transform="matrix(0.95545 -0.295154 0.893595 0.448873 269.828 374.682)" fill="white"/>
</clipPath>
<clipPath id="clip2_3692_13082">
<rect width="19.7661" height="24" rx="9.88304" transform="matrix(0.95545 -0.295154 0.893595 0.448873 327.272 356.936)" fill="white"/>
</clipPath>
<clipPath id="clip3_3692_13082">
<rect width="14.1918" height="18" fill="white" transform="matrix(0.95545 -0.295154 0.893595 0.448873 259.138 229.449)"/>
</clipPath>
<clipPath id="clip4_3692_13082">
<rect width="19.7661" height="24" rx="9.88304" transform="matrix(0.95545 -0.295154 0.893595 0.448873 256.151 338.385)" fill="white"/>
</clipPath>
<clipPath id="clip5_3692_13082">
<rect width="19.7661" height="24" rx="9.88304" transform="matrix(0.95545 -0.295154 0.893595 0.448873 313.594 320.639)" fill="white"/>
</clipPath>
<clipPath id="clip6_3692_13082">
<rect width="16.2287" height="18" fill="white" transform="matrix(0.942753 -0.33349 0.488357 0.872644 305.667 91.8809)"/>
</clipPath>
<clipPath id="clip7_3692_13082">
<rect width="22.6031" height="24" rx="11.3016" transform="matrix(0.942753 -0.33349 0.488357 0.872644 289.644 253.311)" fill="white"/>
</clipPath>
</defs>
</svg>
