<svg width="200" height="200" viewBox="0 0 200 200" fill="none" xmlns="http://www.w3.org/2000/svg">
<path fill-rule="evenodd" clip-rule="evenodd" d="M100 200C155.228 200 200 155.228 200 100C200 89.5861 198.408 79.5439 195.454 70.1036H76.1077H75.1329C73.4995 70.2105 71.6543 70.8092 70.2939 71.4893C68.6537 72.3092 67.2658 73.5574 66.2771 75.1017C65.2884 76.646 64.7357 78.4289 64.6775 80.2617C64.6194 82.0945 65.0579 83.9089 65.9467 85.5128C66.8355 87.1167 68.1414 88.4504 69.7263 89.3726C70.8875 90.0484 72.1668 90.4848 73.4889 90.6622H136.314C138.121 90.6622 139.873 90.8952 141.543 91.333C142.67 91.561 143.786 91.8469 144.889 92.1902C149.51 93.6294 153.767 96.0449 157.373 99.2731C160.979 102.501 163.849 106.467 165.789 110.901C167.728 115.335 168.692 120.134 168.616 124.973C168.539 129.812 167.423 134.578 165.343 138.949C163.264 143.319 160.27 147.191 156.563 150.303C152.856 153.416 148.524 155.695 143.86 156.986C140.882 157.811 137.813 158.221 134.74 158.212H18.6801C36.8253 183.515 66.4875 200 100 200ZM137.201 134.716H6.19052C2.18699 123.902 0 112.206 0 100C0 44.7715 44.7715 0 100 0C135.596 0 166.848 18.5985 184.569 46.6081L80.5125 46.6081C80.0155 46.6081 79.4532 46.5988 78.8359 46.5885H78.8358C77.4011 46.5647 75.6701 46.5359 73.775 46.6081H73.1703C72.6784 46.6081 72.1959 46.6484 71.7259 46.7259C67.6726 47.0432 63.1333 47.9311 59.2197 50.2793C53.7825 52.9973 49.7304 57.2902 46.4528 62.4095C43.1752 67.5289 41.343 73.4393 41.1502 79.515C40.9573 85.5906 42.4111 91.6053 45.3574 96.9222C48.3037 102.239 52.633 106.66 57.8869 109.718C63.1408 112.775 69.1236 114.355 75.2019 114.29C76.0855 114.28 76.9662 114.236 77.8423 114.158H137.2C137.463 114.218 137.723 114.288 137.981 114.368C139.424 114.818 140.753 115.572 141.879 116.58C143.005 117.588 143.901 118.826 144.507 120.211C145.112 121.595 145.413 123.093 145.389 124.604C145.366 126.115 145.017 127.604 144.368 128.968C143.719 130.333 142.784 131.542 141.626 132.513C140.469 133.485 139.116 134.197 137.66 134.6C137.508 134.642 137.355 134.681 137.201 134.716Z" fill="url(#paint0_linear_31_84)"/>
<defs>
<linearGradient id="paint0_linear_31_84" x1="100" y1="0" x2="100" y2="200" gradientUnits="userSpaceOnUse">
<stop stop-color="#FF910F"/>
<stop offset="0.515485" stop-color="#FE731D"/>
<stop offset="1" stop-color="#FE572A"/>
</linearGradient>
</defs>
</svg>
