<svg width="120" height="120" viewBox="0 0 120 120" fill="none" xmlns="http://www.w3.org/2000/svg"><g clip-path="url(#clip0)"><path d="M60 120c33.137 0 60-26.863 60-60S93.137 0 60 0 0 26.863 0 60s26.863 60 60 60z" fill="#000"/><g clip-path="url(#clip1)"><path d="M35.692 74.703a2.357 2.357 0 011.66-.681H94.77c1.046 0 1.57 1.254.83 1.988L84.254 87.258a2.356 2.356 0 01-1.66.681H25.177c-1.046 0-1.57-1.254-.83-1.988l11.346-11.248z" fill="url(#paint0_linear)"/><path d="M35.692 32.682a2.357 2.357 0 011.66-.682H94.77c1.046 0 1.57 1.255.83 1.989L84.253 45.236a2.357 2.357 0 01-1.66.682H25.176c-1.046 0-1.57-1.255-.83-1.989l11.346-11.247z" fill="url(#paint1_linear)"/><path d="M84.254 53.559a2.356 2.356 0 00-1.66-.682H25.177c-1.046 0-1.57 1.255-.83 1.988l11.346 11.248c.44.437 1.037.682 1.66.682H94.77c1.046 0 1.57-1.255.83-1.989L84.254 53.56z" fill="url(#paint2_linear)"/></g></g><defs><linearGradient id="paint0_linear" x1="72.64" y1="16.655" x2="33.39" y2="92.428" gradientUnits="userSpaceOnUse"><stop stop-color="#00FFA3"/><stop offset="1" stop-color="#DC1FFF"/></linearGradient><linearGradient id="paint1_linear" x1="72.64" y1="16.655" x2="33.39" y2="92.428" gradientUnits="userSpaceOnUse"><stop stop-color="#00FFA3"/><stop offset="1" stop-color="#DC1FFF"/></linearGradient><linearGradient id="paint2_linear" x1="72.64" y1="16.655" x2="33.391" y2="92.428" gradientUnits="userSpaceOnUse"><stop stop-color="#00FFA3"/><stop offset="1" stop-color="#DC1FFF"/></linearGradient><clipPath id="clip0"><path fill="#fff" d="M0 0h120v120H0z"/></clipPath><clipPath id="clip1"><path fill="#fff" transform="translate(24 32)" d="M0 0h72v56H0z"/></clipPath></defs></svg>